<svg xmlns="http://www.w3.org/2000/svg" clip-rule="evenodd" fill-rule="evenodd" stroke-linejoin="round" stroke-miterlimit="1.4" viewBox="0 0 1065 301"><defs><clipPath id="ClipPath-1"><rect width="487" height="301"/></clipPath></defs><g transform="translate(0,-768)"><g clip-path="url(#ClipPath-1)" transform="translate(0,768) scale(2.187,1)"><rect width="487" height="301" fill="none"/><g transform="translate(-74.4,-1082.6) scale(.606,1.326)"><path d="M191.9 1020h-61.5l-7.7-0.2l73.4-179.9h69.1l41.6 102l34.3-83.9h61.9c21 51.7 44.6 109.4 65.7 161l-6.7 .4h-56.6l-8.4-20.2h-51.8l-7.9 20.2h-6l-0.3 .6h-63.1l-9.3-21.1h-57.9l-8.8 21.1Zm167.6-63h23.8l-12-39.2c-3.9 13-7.8 26.1-11.8 39.2Zm-142.7-5.3h26.4l-13.3-44.6c-4.4 14.9-8.8 29.7-13.1 44.6Zm220.5-96.1c0-2.2 .4-4.2 1.3-6.1c.8-1.9 1.9-3.6 3.3-5c1.5-1.4 3.1-2.6 5-3.4c1.9-0.8 3.9-1.2 6.1-1.2c2.2 0 4.2 .4 6.1 1.2c1.9 .8 3.6 2 5 3.4c1.4 1.4 2.5 3.1 3.3 5c.9 1.9 1.3 3.9 1.3 6.1c0 2.1-0.4 4.1-1.3 6c-0.8 1.9-1.9 3.6-3.3 5c-1.4 1.4-3.1 2.6-5 3.4c-1.9 .8-3.9 1.2-6.1 1.2c-2.2 0-4.2-0.4-6.1-1.2c-1.9-0.8-3.5-2-5-3.4c-1.4-1.4-2.5-3.1-3.3-5c-0.9-1.9-1.3-3.9-1.3-6Zm4.3 0c0 1.6 .3 3.1 .9 4.6c.6 1.4 1.4 2.7 2.5 3.7c1 1.1 2.2 2 3.6 2.6c1.4 .6 2.8 .9 4.4 .9c1.6 0 3.1-0.3 4.4-0.9c1.4-0.6 2.6-1.5 3.7-2.6c1-1 1.8-2.3 2.4-3.7c.6-1.5 .9-3 .9-4.6c0-1.7-0.3-3.2-0.9-4.7c-0.6-1.4-1.4-2.7-2.4-3.7c-1.1-1.1-2.3-1.9-3.7-2.6c-1.3-0.6-2.8-0.9-4.4-0.9c-1.6 0-3 .3-4.4 .9c-1.4 .7-2.6 1.5-3.6 2.6c-1.1 1-1.9 2.3-2.5 3.7c-0.6 1.5-0.9 3-0.9 4.7Zm9.7 8h-4.3v-16.4h5.8c.4 0 1.1 0 1.9 .1c.7 0 1.5 .2 2.3 .5c.7 .4 1.4 .9 2 1.6c.5 .7 .8 1.8 .8 3.1c0 .8-0.1 1.5-0.3 2.1c-0.3 .5-0.6 1-0.9 1.3c-0.4 .4-0.8 .6-1.2 .8c-0.5 .2-1 .3-1.4 .4l4.2 6.5h-4.5l-3.7-6.3h-0.7v6.3Zm1.7-13.1h-1.8v3.5h1.8c.2 0 .5 0 .8 0c.3-0.1 .6-0.1 .8-0.3c.3-0.1 .5-0.2 .6-0.5c.2-0.2 .3-0.6 .3-1c0-0.4-0.1-0.7-0.3-1c-0.1-0.2-0.3-0.4-0.6-0.5c-0.2-0.1-0.5-0.2-0.8-0.2c-0.3 0-0.6 0-0.8 0Z" fill="#f7941d"/></g><g transform="translate(240.1,-194.2) scale(.295,.644)"><path d="M282.8 488.3v15.4h18.9v-15.4h-18.9Zm357.8 0v37.2h-0.3c-5.6-8.7-16.4-12.2-27.7-12.2c-27.6 0-39.7 20-39.7 38.4c0 18.6 12.1 38.6 39.7 38.6c15 0 26.4-8.3 27.7-12.7h.3v10h18.9v-99.3h-18.9Zm-463.8 1.7v97.6h63.9c26.4 0 33.2-17.8 33.2-28.7c0-16.4-10.2-21.9-17.8-24.2c5.2-2.4 13.3-6.4 13.3-20.4c0-12.4-5.8-24.3-28-24.3h-64.6Zm20.6 15.3h34.7c11.9 0 16.8 3.8 16.8 11.9c0 11.1-7.5 12.5-13.3 12.5h-38.2v-24.4Zm149 7.1c-12.2 0-36.3 2.7-36.3 23.4c0 16.5 11.8 19.1 34.2 22.1c20.4 2.8 23.6 4.7 23.6 10.3c0 6.8-10.3 9.3-19.7 9.3c-6.9 0-19.5-1.7-20-12.6h-20.5c.6 22.2 25.1 25.4 40.6 25.4c22.4 0 40.1-6.2 40.1-24.7c0-16.8-15.6-19.1-39.4-22.6c-18.2-2.6-20-3.5-20-9.4c0-3.8 5.7-8.3 16.4-8.3c6.4 0 19 1.2 20.5 12h19.7c-1.1-23.2-28-24.9-39.2-24.9Zm177.5 0c-32.5 0-44.9 19-44.9 39c0 19.9 12.4 38.9 44.9 38.9c32.4 0 44.8-19 44.8-38.9c0-20-12.4-39-44.8-39Zm186 0c-25.7 0-43.6 15.5-43.6 39.7c0 19.2 12.2 38.2 44.9 38.2c27.6 0 37.4-16 41.5-24h-20.5c-3.7 6-9.2 10.4-21.6 10.4c-18.7 0-24.2-12.5-24.6-20.5h68.4v-2.8c0-21.2-12.4-41-44.5-41Zm-267.7 .9c-12.8 0-22.4 5-28.6 12.8h-0.2v-10.9h-18.9v72.4h18.9v-38.9c0-15.5 12.7-21 22.5-21c15.6 0 18.2 8.9 18.2 16.7v43.2h18.9v-49.2c0-19.5-15.2-25.1-30.8-25.1Zm-159.4 1.9v72.4h18.9v-72.4h-18.9Zm427.4 10.1c9.3 0 22.1 4.3 24.5 18.8h-48.7c3.2-14.7 15.4-18.8 24.2-18.8Zm-186.3 1.6c18.3 0 25.1 11.9 25.1 24.5c0 12.6-6.8 24.4-25.1 24.4c-18.4 0-25.2-11.8-25.2-24.4c0-12.6 6.8-24.5 25.2-24.5Zm93.2 .8c17.6 0 24.3 11.9 24.3 24c0 12.3-6.7 24.1-24.3 24.1c-17.8 0-24.5-11.8-24.5-24.1c0-12.1 6.7-24 24.5-24Zm-419.7 16.4h39.7c9.2 0 15.5 4.8 15.5 13.8c0 12.6-9.3 14.4-18.5 14.4h-36.7v-28.2Z" fill="#231f20" fill-rule="nonzero"/><path d="M337 405.8c-19.7 0-35.6 15.9-35.6 35.5c0 19.7 15.9 35.6 35.6 35.6c19.6 0 35.5-15.9 35.5-35.6c0-19.6-15.9-35.5-35.5-35.5Zm-206.9 175.6c-15.1 0-27.3 12.3-27.3 27.4c0 15 12.2 27.3 27.3 27.3c15.1 0 27.3-12.3 27.3-27.3c0-15.1-12.2-27.4-27.3-27.4Zm105.2 40.8c-11.7 0-21.2 9.5-21.2 21.2c0 11.7 9.5 21.2 21.2 21.2c11.7 0 21.2-9.5 21.2-21.2c0-11.7-9.5-21.2-21.2-21.2Z" fill="#49690f" fill-rule="nonzero"/></g></g></g></svg>