<svg xmlns="http://www.w3.org/2000/svg" xmlns:xlink="http://www.w3.org/1999/xlink" clip-rule="evenodd" fill-rule="evenodd" stroke-linejoin="round" stroke-miterlimit="1.4" viewBox="0 0 506 127" style="background: rgba(125,90,90,0.00);"><g transform="translate(52.2,63.6) translate(-52,-62.6)"/><rect id="_a0" width="10.2" height="10.2" fill="#c23c35" transform="translate(150.2,121.1) translate(0,0) translate(-5.1,-5.1)"/><rect id="_a1" width="10.2" height="10.2" fill="#c23c35" transform="translate(150.2,121.1) translate(0,0) translate(-5.1,-5.1)"/><rect id="_a2" width="10.2" height="10.2" fill="#c23c35" transform="translate(150.2,121.1) translate(0,0) translate(-5.1,-5.1)"/><path d="M-2434.6 477.8c4.4 0 8.7 1.5 12.2 4c5.3 3.9 8.6 10.3 8.6 16.8c0 3.9 .3 7.8-0.7 11.5c-1.3 4.4-4.1 8.4-7.8 11.2v.1l8.8 2.6c2.7 .7 5.2 2.3 7.2 4.5c0 0-0.2 .1 .2-0.2c1.9-2 4.3-3.6 7-4.3l8.8-2.6v-0.1c-5.2-3.9-8.5-10.3-8.5-16.8c0-3-0.2-6 .2-8.9c1.1-6.8 5.6-12.9 11.9-15.9c5.8-2.7 12.8-2.5 18.5 .4c6.8 3.5 11.3 10.8 11.3 18.6c0 3.8 .3 7.6-0.7 11.2c-1.2 4.5-4.1 8.6-7.8 11.4v.1l8.8 2.6c6.3 1.8 11.1 7.9 11.1 14.6c0 2.1 .2 4.4-0.9 6.2c-1.2 2-3.4 3.4-5.8 3.4c-55.1 .2-110.2 .2-165.3 0c-3.4 0-6.5-3-6.5-6.6c0-1.4-0.1-2.8 0-4.2c.5-6 4.8-11.4 10.6-13.3c.1-0.1 .3-0.1 .5-0.1l8.8-2.6v-0.1c-5.2-3.9-8.5-10.3-8.5-16.8c-0.1-3-0.2-6 .2-8.9c1.3-8.8 8.8-16.5 18.1-17.7c6.3-0.8 12.8 1.4 17.4 6c3.8 3.8 6.1 9 6.2 14.4c.1 3.9 .3 8-0.8 11.8c-1.2 4.4-4 8.4-7.7 11.2v.1l8.8 2.6c2.8 .7 5.2 2.3 7.2 4.5c0 0-0.2 .1 .2-0.2c1.9-2.1 4.3-3.6 7-4.3l8.8-2.6v-0.1c-5.3-3.9-8.5-10.3-8.5-16.8c0-2.8-0.2-5.6 .1-8.3c.8-6.2 4.5-11.9 9.8-15.2c3.2-2.1 7.1-3.2 11-3.2c.1 0 .1 0 .2 0Zm11.2 51.5c-1.7 3.9-5.4 6.8-9.6 7.4c-3.8 .5-7.7-0.8-10.5-3.5c-1.1-1.1-2-2.5-2.6-3.9v-0.1c-2.6 .8-5.2 1.5-7.8 2.3c-3 .9-5.3 3.8-5.4 7c0 1 .7 1.9 1.7 1.9c15.2 .1 30.5 .1 45.7 0c.9 0 1.7-0.9 1.7-1.9c0-3.1-2.2-6.1-5.3-7h-0.1l-7.8-2.3c0 0 0 .1 0 .1Zm56.9 0c-1.6 3.8-5.4 6.8-9.6 7.4c-5.2 .7-10.7-2.1-13-7.1c0-0.2-0.1-0.4-0.1-0.4c-2.6 .8-5.2 1.5-7.8 2.3c-3 .9-5.3 3.8-5.4 7c0 1 .7 1.9 1.7 1.9c15.2 .1 30.5 .1 45.7 0c1 0 1.7-0.9 1.7-1.9c0-3.1-2.2-6.1-5.3-7h-0.1l-7.7-2.3c0 0 0 .1 0 .1Zm-113.8 0c-1.7 3.8-5.4 6.8-9.6 7.4c-3.8 .5-7.8-0.8-10.5-3.5c-1.1-1.1-2-2.5-2.7-3.9v-0.1c-2.6 .8-5.2 1.5-7.8 2.3c-3 .9-5.3 3.8-5.3 7c0 1 .7 1.9 1.7 1.9c15.2 .1 30.4 .1 45.7 0c.9 0 1.7-0.9 1.7-1.9c-0.1-3.1-2.3-6.1-5.4-7l-7.8-2.3c0 0 0 .1 0 .1Zm97.9-4.4c.2 2.2 2.2 4 4.4 4.1c2.3 .1 4.5-1.7 4.8-4.1c0 0-0.7 .2-1.4 .3c-2.6 .4-5.3 .3-7.8-0.3c0 0 0 0 0 0Zm-104.7 0c-3 .7-6.2 .7-9.1 0h-0.1c.3 2.3 2.5 4.3 5 4.1c2.1-0.2 4-1.9 4.2-4.1c0 0 .1 0 0 0Zm56.9 0c-3 .7-6.1 .7-9.1 0h-0.1c.3 2.1 2.1 3.9 4.3 4.1c2.3 .2 4.7-1.6 4.9-4.1c0 0 0 0 0 0Zm-61.5-39.3c-5.4 0-10.6 3.6-12.4 8.9c-0.5 1.3-0.8 2.8-0.8 4.2c0 2.7-0.2 5.4 .2 7.9c1 6.1 6.7 11.2 13.3 11c4.9-0.1 9.7-3.2 11.7-7.7c.8-1.7 1.2-3.5 1.2-5.4c0-3.4 .4-6.9-0.7-10.1c-1.8-5-6.7-8.8-12.3-8.8c-0.1 0-0.2 0-0.2 0Zm56.9 0c-4.2 0-8.3 2.1-10.7 5.5c-1.6 2.2-2.4 4.9-2.4 7.6c0 2.7-0.3 5.4 .1 7.9c.9 5.5 5.6 10.1 11.3 10.9c4.2 .6 8.6-1.1 11.5-4.2c2.2-2.4 3.4-5.6 3.4-8.8c0-3.5 .4-7-0.7-10.1c-1.8-5.1-6.9-8.8-12.3-8.8c-0.1 0-0.1 0-0.2 0Zm56.9 0c-5.4 0-10.6 3.6-12.4 9c-0.5 1.3-0.7 2.7-0.7 4.1c0 2 0 3.9 0 5.8c0 4.5 2.5 8.9 6.5 11.3c4.9 2.9 11.6 2.2 15.9-1.9c2.4-2.4 3.9-5.8 3.9-9.4c0-1.9 0-3.9 0-5.8c0-5.4-3.6-10.6-8.8-12.4c-1.4-0.5-2.9-0.7-4.4-0.7Zm-56.7-94.4c9.9 0 19.9 4.2 27 11.4c6.8 7 10.9 16.6 10.9 26.5c0 10.9-4.9 21.7-13.2 28.9c-6.8 5.9-15.8 9.3-24.9 9.3c-9.1 0-18.2-3.5-25.1-9.5c-6.1-5.4-10.4-12.7-12.1-20.7c-2.1-10 0-20.8 5.8-29.2c6.8-10 18.3-16.5 30.7-16.7c.3 0 .6 0 .9 0Zm-30.4 36.4c-0.5 9.4 3.7 19 11.1 25c7.3 6.1 17.6 8.3 26.9 5.8c-0.9-1.2-1.8-2.4-2.7-3.7c-0.8-1-2.1-1.6-3.4-1.7c-0.8 0-1.5 0-2.2 0c-4.7-0.5-9-4-10.4-8.7c-0.3-1.1-0.5-2.3-1.3-3.1c-0.8-0.9-2.1-1.2-3.2-1.7c-3.2-1.6-5.6-4.5-6.5-8c-0.2-0.7-0.3-1.4-0.7-2c-0.8-1.3-2.2-2.1-3.7-2.1c0 0-3.8 0-3.8 0c-0.1 .1-0.1 .1-0.1 .2Zm6.5-17.1c-2.2 2.8-3.8 5.9-4.9 9.1c1.1 0 2.3 0 3.5 .1c4.8 .4 9.1 3.9 10.5 8.7c.2 .8 .3 1.6 .7 2.2c.5 1.1 1.6 1.7 2.6 2.1c3.7 1.4 6.7 4.5 7.7 8.4c.2 .7 .3 1.5 .7 2.1c.8 1.3 2.2 2 3.6 2c1.4 0 2.8 .1 4.1 .5c2.6 .7 4.9 2.2 6.5 4.4l4 5.3c2.3-1.4 4.5-3.2 6.4-5.1l.1-0.1c-6-3.2-9.5-10.2-8.3-17.1c.9-5.6 5-10.6 10.4-12.5c1.6-0.6 3.2-0.9 4.8-1c-0.4-1.2-0.9-2.4-1.5-3.6c-1.6 0-3.3 0-4.9 0c-0.1 0-0.1 0-0.1 0c-2.6 .1-5 2-5.6 4.6c-0.4 1.6-1 3.2-1.9 4.6c-2.7 3.7-7.5 5.8-12.2 4.8c-3.4-0.7-6.5-3-8.1-6.2c-0.7-1.5-1.4-3-2.6-3.9c-1.4-1-3.2-0.9-4.8-1.1c-4.2-0.5-8.1-3.3-10-7.1l-0.1-0.1l-0.6-1.1c0 0 0 0 0 0Zm53.9 16.9h-0.8c-2.5 0-4.8 1.1-6.4 3c-2.5 3-2.6 7.8 0 10.9c.7 .9 1.6 1.5 2.6 2l.9 .5c2.8-5 4.1-10.8 3.7-16.4Zm-91.3 5.7l1.9 1.9l.2 .3c.1 .3 .2 .6 0 .9c0 .1-0.1 .2-0.2 .3l-4 4c-0.4 .3-0.8 .4-1.2 .2c-0.1 0-0.2-0.1-0.3-0.2l-10.5-10.5c-0.3-0.4-0.4-0.9-0.2-1.3c0-0.1 .1-0.1 .2-0.2l10.5-10.6c.1 0 .2-0.1 .3-0.2c.2-0.1 .3-0.1 .6-0.1c.1 .1 .2 .1 .3 .1l.3 .2l4 4c.3 .4 .4 .9 .2 1.3c0 .1-0.1 .1-0.2 .2l-1.9 1.9h13.4l.3 .1c.3 .1 .6 .3 .7 .6c0 .2 0 .3 0 .4v5.7c0 .4-0.3 .8-0.7 1c-0.1 0-0.2 0-0.3 0h-13.4Zm126.6-15.4l.3 .2l10.5 10.6c.3 .3 .4 .8 .2 1.2c0 .1-0.1 .2-0.2 .3l-10.5 10.5c-0.4 .3-0.9 .4-1.2 .2c-0.1 0-0.2-0.1-0.3-0.2l-4-4c-0.3-0.4-0.4-0.8-0.2-1.2c0-0.1 .1-0.2 .2-0.3l1.9-1.9h-13.4h-0.3c-0.3-0.2-0.6-0.4-0.7-0.7c0-0.1 0-0.2-0.1-0.3v-5.7c.1-0.5 .4-0.9 .8-1c.1-0.1 .2-0.1 .3-0.1h13.4l-1.9-1.9l-0.2-0.2c-0.1-0.4-0.2-0.7 0-1c0-0.1 .1-0.2 .2-0.3l4-4c.2-0.1 .3-0.2 .6-0.3c.2 0 .4 .1 .6 .1Zm-65.5-18.7c-6.3 0-12.6 2-17.7 5.8h-0.1c.7 1.3 1.2 2.7 2 3.9c1 1.5 2.9 2.3 4.8 2.4c4.6 .1 9 2.8 11.2 6.9c.7 1.3 1.1 2.7 2.1 3.5c1 .8 2.3 1.1 3.5 .9c1.6-0.4 2.8-1.8 3.1-3.5c1.3-5.7 6.7-10.4 12.9-10.6c0-0.1 0-0.1-0.1-0.2c-5.6-5.7-13.5-9.1-21.4-9.1c-0.1 0-0.2 0-0.3 0Zm-44.9-5.1h-5.7c-0.4-0.1-0.8-0.3-1-0.7c0-0.1 0-0.2 0-0.3v-14.3c.1-0.4 .3-0.8 .7-1c.1 0 .2 0 .3 0h14.3c.1 0 .2 0 .3 0c.3 .2 .6 .4 .7 .7c0 .1 0 .2 0 .3v5.7c0 .5-0.3 .9-0.7 1c-0.1 .1-0.2 .1-0.3 .1h-2l4.7 4.7l.2 .3c.1 .3 .2 .6 0 .9c0 .1-0.1 .2-0.2 .3l-4 4c-0.4 .3-0.8 .4-1.2 .2c-0.1 0-0.2-0.1-0.3-0.2l-4.7-4.7v2l-0.1 .3c-0.1 .3-0.3 .6-0.6 .7c-0.1 0-0.3 0-0.4 0Zm95.5 0h-5.7c-0.4-0.1-0.8-0.3-1-0.7c0-0.1 0-0.2 0-0.3v-2l-4.7 4.7l-0.3 .2c-0.3 .1-0.7 .2-1 0c-0.1 0-0.1-0.1-0.2-0.2l-4.1-4c-0.2-0.4-0.3-0.8-0.1-1.2c0-0.1 .1-0.2 .1-0.3l4.8-4.7h-2l-0.3-0.1c-0.3-0.1-0.6-0.3-0.7-0.7c0-0.1 0-0.2-0.1-0.3v-5.7c.1-0.4 .4-0.8 .8-1c.1 0 .2 0 .3 0h14.2c.1 0 .2 0 .4 0c.3 .2 .5 .4 .6 .7c.1 .1 .1 .2 .1 .3v14.3c-0.1 .4-0.3 .8-0.7 1c-0.1 0-0.3 0-0.4 0Zm-47.7-11.4h-5.7c-0.5 0-0.9-0.3-1-0.7c0-0.1 0-0.2-0.1-0.3v-7.7l-1.8 1.9l-0.3 .2c-0.3 .1-0.7 .1-1 0c-0.1-0.1-0.1-0.1-0.2-0.2l-4.1-4c-0.2-0.4-0.4-0.9-0.1-1.3c0-0.1 .1-0.1 .1-0.2l10.6-10.6c.1 0 .2-0.1 .3-0.2c.2-0.1 .3-0.1 .6-0.1c.1 .1 .2 .1 .3 .1l.3 .2l10.5 10.6c.3 .3 .4 .8 .2 1.2c0 .1-0.1 .2-0.2 .3l-4 4c-0.4 .3-0.8 .4-1.2 .2c-0.1-0.1-0.2-0.1-0.3-0.2l-1.9-1.9v7.7v.3c-0.2 .3-0.4 .6-0.7 .7c-0.1 0-0.2 0-0.3 0Z" fill="#c23c35" transform="translate(1709.1,-242.7) scale(.677,.677)"/><script xlink:href="/jvg/keyshape.js"/><script><![CDATA[if(KeyshapeJS.version.indexOf('1.')!=0)throw Error('Expected KeyshapeJS v1.*.*');window.ks=document.ks=KeyshapeJS;(function(ks){
ks.animate("#_a0",[{p:'mpath',t:[0,1000],v:['0%','100%'],e:[[1,.8,0,.2,1],[0]],mp:"M150.2,121.1L213,121.1"}],
"#_a1",[{p:'mpath',t:[0,1000],v:['0%','100%'],e:[[1,.8,0,.2,1],[0]],mp:"M150.2,121.1L356.9,121.1"}],
"#_a2",[{p:'mpath',t:[0,1000],v:['0%','100%'],e:[[1,.8,0,.2,1],[0]],mp:"M150.2,121.1L498.9,121.1"}],
{autoremove:false}).range(0,1000);
if(document.location.search.substr(1).split('&').indexOf('global=paused')>=0)ks.globalPause()})(KeyshapeJS);
]]></script></svg>