<svg xmlns="http://www.w3.org/2000/svg" xmlns:xlink="http://www.w3.org/1999/xlink" clip-rule="evenodd" fill-rule="evenodd" stroke-linejoin="round" stroke-miterlimit="1.4" viewBox="0 0 506 127" style="background: rgba(125,90,90,0.00);"><g transform="translate(52.2,63.6) translate(-52,-62.6)"/><rect id="_a0" width="10.2" height="10.2" fill="#c23c35" transform="translate(150.2,121.1) translate(0,0) translate(-5.1,-5.1)"/><rect id="_a1" width="10.2" height="10.2" fill="#c23c35" transform="translate(150.2,121.1) translate(0,0) translate(-5.1,-5.1)"/><rect id="_a2" width="10.2" height="10.2" fill="#c23c35" transform="translate(150.2,121.1) translate(0,0) translate(-5.1,-5.1)"/><path d="M-2486.2 832.3c8 0 15.7 5.2 18.5 13.1c.7 2.1 1 4.2 1 6.4c0 5.9 0 11.8 0 17.7c0 4.6-2.2 9.2-6 12l-0.1 .1v.2l11.8 2.9c5.4 1.4 10 5.6 11.7 11c.6 1.6 .8 3.3 .8 5c0 1 0 2.1 0 3.1c0 2-1.4 3.8-3.3 4.3c-2 .4-4.2-0.6-5-2.4c-0.3-0.6-0.5-1.2-0.5-1.9c0-1.8 .2-3.6-0.3-5.2c-0.8-2.6-2.9-4.6-5.5-5.3c-5-1.3-10.1-2.5-15.1-3.8c-1.9-0.5-3.3-2.2-3.4-4.2c0-2.1 .1-4.1 0-6.2c.1-1.6 1.1-3.2 2.6-3.9c0-0.1 .1-0.1 .1-0.1c2-1.1 3.4-3.3 3.4-5.7c0-5.9 0-11.7 0-17.6c0-4.1-2.6-8.1-6.3-9.8c-3-1.3-6.7-1.2-9.6 .4c-3.3 1.8-5.6 5.5-5.6 9.4c-0.1 5.9-0.1 11.7 0 17.6c0 2.4 1.4 4.7 3.6 5.8c.2 .1 .3 .1 .4 .2c1.2 .8 2 2.2 2 3.7v6.1c0 1.9-1.3 3.8-3.2 4.3c-5.1 1.3-10.2 2.5-15.2 3.8c-3.3 .8-5.8 3.9-5.8 7.4v.1c0 1 0 2 0 3c-0.1 2-1.6 3.9-3.5 4.3c-1.9 .4-4-0.6-4.9-2.4c-0.3-0.6-0.4-1.2-0.4-1.8c-0.1-1.6-0.1-3.2 0-4.7c.7-6.8 5.8-12.8 12.5-14.5l11.7-2.9v-0.2c-3.6-2.8-6-7.4-6-12.2c-0.1-5.8 0-11.7 0-17.6c0-6.3 3.1-12.3 8.3-16c3.2-2.3 7.1-3.5 11.2-3.5c0 0 .1 0 .1 0Zm109.3 0c3.8 0 7.6 1.1 10.8 3.3c5.3 3.6 8.6 9.6 8.7 16.2c0 5.9 0 11.8 0 17.7c-0.1 4.7-2.3 9.2-6.1 12.1v.2l11.7 2.9c5.5 1.4 10.1 5.6 11.8 11c.5 1.6 .8 3.3 .8 5c0 1 0 2.1 0 3.1c0 2-1.5 3.8-3.4 4.3c-1.9 .5-4.1-0.6-5-2.4c-0.3-0.6-0.4-1.2-0.4-1.9c0-1.8 .1-3.7-0.4-5.4c-0.8-2.5-2.9-4.5-5.5-5.1c-5-1.3-10-2.5-15.1-3.8c-1.9-0.5-3.3-2.2-3.3-4.2c0-2.1 0-4.1 0-6.2c0-1.6 1-3.2 2.6-4c2-1.1 3.4-3.3 3.5-5.7c0-5.9 0-11.7 0-17.6c-0.1-4.1-2.6-8.1-6.4-9.8c-4-1.8-9.2-0.8-12.3 2.5c-1.8 2-2.9 4.6-2.9 7.3c0 5.9 0 11.7 0 17.6c.1 2.4 1.5 4.7 3.7 5.8c.2 .1 .2 .1 .4 .2c1.2 .8 2 2.2 2 3.7c0 2 0 4.1 0 6.1c0 2-1.4 3.8-3.3 4.3c-5 1.3-10.1 2.5-15.2 3.8c-3.2 .8-5.8 4-5.8 7.4c0 1.9 .3 3.9-0.6 5.4c-1.1 1.8-3.7 2.6-5.7 1.7c-1.4-0.7-2.5-2.3-2.5-3.9c0-1.7-0.1-3.3 .1-5c.7-6.6 5.8-12.5 12.4-14.2l11.8-2.9v-0.2c-0.1-0.1-0.1-0.1-0.1-0.1c-3.7-2.9-6-7.4-6-12.1c0-5.8 0-11.7 0-17.6c0-4.3 1.5-8.5 4.1-12c3.6-4.6 9.4-7.5 15.4-7.5c.1 0 .1 0 .2 0Zm-54.6-109c14.8 .1 29.3 5.5 40.5 15.1c10.8 9.4 18.3 22.6 20.6 37c3.2 19.5-3.4 40.1-17.7 54.2c-8.9 8.8-20.6 14.8-33.1 16.9v4.6c.1 0 .1 0 .1 0c1.7 .6 3 2.3 3 4.1c.1 13.2 0 26.4 0 39.6c-0.1 3.7-1.7 7.4-4.5 9.9c-3.2 2.9-7.7 4.1-11.8 3.2c-6-1.2-10.7-6.9-10.7-13.1c-0.1-13.2-0.1-26.4 0-39.6c0-1.8 1.2-3.5 3-4.1c0 0 0-4.6 0-4.6c-11.9-2-23.3-7.6-32.2-16c-12.4-11.7-19.7-28.6-19.4-46.1c.2-14.1 5.4-27.9 14.3-38.7c10.8-13 27-21.3 44.1-22.3c1.3-0.1 2.6-0.1 3.8-0.1Zm4.6 136.3h-9.4c0 11.7-0.1 23.4 0 35.1c0 2.1 1.4 4 3.3 4.5c1.6 .5 3.4 0 4.6-1.1c.9-0.9 1.5-2.1 1.5-3.4v-35.1Zm-3.1-12.1c-1.1 0-2.2 0-3.2 0l-0.1-0.1v3.4h3.3v-3.4c0 0 0 0 0 .1Zm-1.7-115.3c-9.1 0-18.2 2.4-26 6.8c-12.6 7.1-22.2 19.3-25.7 33.9c-2.5 10.2-1.9 20.9 1.8 31c4.6 12.5 14.1 23.1 26.1 29.1c10.9 5.5 23.7 7.1 35.6 4.4c12.3-2.8 23.5-10.1 31.1-20.3c7.2-9.7 10.9-21.6 10.4-34.2c-0.6-12-5.5-23.9-13.5-32.9c-8.8-9.9-21.5-16.3-34.5-17.6c-1.8-0.1-3.6-0.2-5.3-0.2Zm21.4 79.2c2.2 0 4.2 2 4.3 4.3c0 0 0 0 0 .1v9.1c0 2-1.5 3.9-3.4 4.3c-2.5 .5-5.2-1.3-5.4-4c0-0.1 0-0.2 0-0.2c0-3.1 0-6.2 0-9.2c0-2.3 2-4.4 4.4-4.4c0 0 0 0 .1 0Zm-42.5 0c2.3 0 4.3 2 4.3 4.4c0 3 0 6.1 0 9.1c0 1.9-1.3 3.7-3.1 4.2c-2.6 .8-5.6-1.2-5.7-4.1c0-3.1 0-6.2 0-9.3c.1-2.2 1.9-4.3 4.4-4.3c0 0 0 0 .1 0Zm21.2-72.8c6.1 0 12 2.9 15.7 7.8c2.4 3.4 3.8 7.5 3.8 11.7c.1 5.9 .1 11.8 0 17.7c0 4.6-2.2 9.2-6 12.1v.2l11.7 2.9c6.9 1.8 12.3 8.1 12.5 15.4c.1 2.8 .1 5.6 0 8.4c0 2-1.5 3.9-3.5 4.3c-2.4 .5-5-1.3-5.2-4c-0.1-0.1-0.1-0.3-0.1-0.3c0-2.6 0-5.2 0-7.8c0-3.4-2.4-6.6-5.8-7.4c-5-1.3-10.1-2.5-15.1-3.8c-1.9-0.5-3.3-2.3-3.3-4.2c0-2.1 0-4.1 0-6.2c0-1.6 1-3.2 2.5-3.9c0-0.1 .1-0.1 .1-0.1c2-1.1 3.4-3.3 3.4-5.6v-0.1c.1-5.9 .1-11.7 0-17.6c0-0.1 0-0.1 0-0.2c-0.1-4.1-2.7-8-6.4-9.6c-4-1.8-9.1-0.8-12.2 2.5c-1.8 2-2.9 4.6-2.9 7.3c0 5.9 0 11.7 0 17.6c0 2.4 1.5 4.7 3.7 5.8c.2 .1 .2 .2 .4 .3c1.2 .8 1.9 2.2 2 3.6c0 2 0 4.1 0 6.1c0 1.9-1.4 3.8-3.3 4.3c-5.1 1.3-10.1 2.5-15.2 3.8c-3.3 .8-5.8 4-5.8 7.4c0 2.4 0 4.8 0 7.2c0 2-1.5 3.9-3.5 4.3c-2.5 .5-5.3-1.5-5.3-4.3c0-2.4 0-4.8 0-7.2c0-5.6 3-11 7.8-14c1.5-0.9 3-1.6 4.7-2l11.8-2.9v-0.2c-0.1-0.1-0.1-0.1-0.2-0.1c-3.6-2.8-5.9-7.4-5.9-12.1c0-5.8 0-11.7 0-17.6c0-6.5 3.4-12.9 9-16.5c3.1-1.9 6.7-3 10.4-3c.1 0 .1 0 .2 0Zm-67 70.5c1.6 0 3.2 1 3.9 2.5c.4 .8 .7 1.7 .7 2.6c0 1.5-0.9 3.1-2.4 3.8c0 0-0.1 .1-0.1 .1c-2 1-4.7 .1-5.8-1.9c-0.4-0.8-0.7-1.5-0.8-2.3c-0.1-1.8 .9-3.7 2.6-4.4c.3-0.2 1.1-0.4 1.8-0.4c0 0 0 0 .1 0Zm25.1-83.5c.2 .2 .2 .2 .2 .3c.8 1.6 .4 3.7-1.1 4.8c-10.4 7.7-18.7 18.8-23 31.2c-4.2 12-4.8 25.1-1.7 37.5c.2 .6 .3 1.2 .5 1.9c.1 .2 .1 .2 .1 .4c.2 1.6-0.8 3.4-2.4 4c-0.1 0-0.2 0-0.3 .1c-2.5 .7-5.4-0.8-6.2-3.4c-0.3-0.9-0.5-1.8-0.7-2.8c-3.5-15.7-1.7-32.6 5-47.2c4.9-10.5 12.2-19.9 21.2-27c.3-0.3 .6-0.5 1-0.8c.9-0.7 1.9-1.2 3.1-1.2c1.6-0.1 3.3 .8 4.3 2.2l-0.1-0.1c0 0 .1 .1 .1 .1Zm-26.7 78.3c0 0 0 0 0 0Zm24.6-78.5Z" fill="#c23c35" transform="translate(1709.5,-489.3) scale(.677,.677)"/><script xlink:href="/jvg/keyshape.js"/><script><![CDATA[if(KeyshapeJS.version.indexOf('1.')!=0)throw Error('Expected KeyshapeJS v1.*.*');window.ks=document.ks=KeyshapeJS;(function(ks){
ks.animate("#_a0",[{p:'mpath',t:[0,1000],v:['0%','100%'],e:[[1,.8,0,.2,1],[0]],mp:"M150.2,121.1L213,121.1"}],
"#_a1",[{p:'mpath',t:[0,1000],v:['0%','100%'],e:[[1,.8,0,.2,1],[0]],mp:"M150.2,121.1L356.9,121.1"}],
"#_a2",[{p:'mpath',t:[0,1000],v:['0%','100%'],e:[[1,.8,0,.2,1],[0]],mp:"M150.2,121.1L498.9,121.1"}],
{autoremove:false}).range(0,1000);
if(document.location.search.substr(1).split('&').indexOf('global=paused')>=0)ks.globalPause()})(KeyshapeJS);
]]></script></svg>