<svg xmlns="http://www.w3.org/2000/svg" xmlns:xlink="http://www.w3.org/1999/xlink" clip-rule="evenodd" fill-rule="evenodd" stroke-linejoin="round" stroke-miterlimit="1.4" viewBox="0 0 506 127" style="background: rgba(125,90,90,0.00);"><g transform="translate(52.2,63.6) translate(-52,-62.6)"/><rect id="_a0" width="10.2" height="10.2" fill="#c23c35" transform="translate(150.2,121.1) translate(0,0) translate(-5.1,-5.1)"/><rect id="_a1" width="10.2" height="10.2" fill="#c23c35" transform="translate(150.2,121.1) translate(0,0) translate(-5.1,-5.1)"/><rect id="_a2" width="10.2" height="10.2" fill="#c23c35" transform="translate(150.2,121.1) translate(0,0) translate(-5.1,-5.1)"/><path d="M-2440.8 1946.9c.3 0 .4 0 .6 0c1.8 .3 3.4 2 3.4 4c.1 3.8 0 7.6 0 11.4c0 2.1-1.8 4-3.8 4.1c-2.1 0-4.1-1.7-4.2-3.9c0 0 0 0 0-0.1c-0.1-3.8 0-7.7 0-11.5c0-2 1.7-3.9 3.8-4c.2 0 .2 0 .2 0Zm.1-117c2 .1 3.8 1.8 3.9 3.8c0 .1 0 .2 0 .2c.1 9.6 .1 19.1 0 28.7c0 4.5-1 9-2.8 13.1v.1c0 3.4 .2 6.8-0.2 10.2c-0.8 7.4-4.3 14.5-9.6 19.7c-0.5 .5-1.1 1-1.6 1.5c0 0 0 7.6 0 7.6c1.5 1.6 3 3.2 4.6 4.8c.5 .6 .8 1.3 1 2c5.2 1.9 10.4 3.8 15.7 5.7c5.7 2.1 9.9 7.8 10.1 14c0 .2 0 .3 0 .4c0 6.9 0 13.8 0 20.6c-0.1 2.2-2 4.2-4.2 4.1c-2-0.1-3.8-1.8-3.9-3.8c0-0.1 0-0.1 0-0.2c-0.1-6.9 0-13.8 0-20.6c0-3-2-5.9-4.9-6.9l-16.3-5.9c-2.2 3.3-4.4 6.6-6.6 9.9c-1.4 2-3.8 3.2-6.3 3c-1.6-0.1-3.1-0.8-4.3-2l-2-2v24.5c-0.1 2.1-2 4.1-4.2 4c-2-0.1-3.8-1.8-3.9-3.9c0 0 0-0.1 0-0.1v-24.5c-1.3 1.2-2.4 2.6-3.9 3.3c-3 1.5-6.9 .5-8.8-2.3l-6.6-9.9c-5.4 1.9-10.9 3.9-16.3 5.9c-2.8 1-4.8 3.8-4.8 6.8c-0.1 6.9 0 13.8 0 20.7c-0.1 2.1-2 4.1-4.2 4c-2.1-0.1-3.9-1.9-3.9-4c-0.1-6.9 0-13.8 0-20.7c0-6.2 4-12.1 10.1-14.4c5.2-1.9 10.4-3.8 15.6-5.7c0 0 .1-0.1 .1-0.1c.1-0.7 .5-1.3 1-1.9l4.6-4.8v-7.8c-7.2-6.3-11.4-15.9-11.4-25.5v-5.7c-0.1-0.1-0.1-0.2-0.1-0.3c-1.8-4.1-2.8-8.4-2.8-12.9c0-3-0.2-6.1 .2-9.1c.9-7.4 5.1-14.4 11.3-18.7c4.5-3.1 9.8-4.8 15.3-4.9c13.3 0 26.7-0.1 40.1 0Zm-66.9 125c0-1.3 0-2.7 0-4c0-2 1.7-3.9 3.9-4c.2 0 .1 0 .2 0c.2 0 .3 0 .5 0c1.9 .3 3.4 2 3.5 4c0 3.8 0 7.6 0 11.4c0 2.2-2 4.2-4.2 4.1c-2-0.1-3.9-1.9-3.9-4c0-1.8 0-3.6 0-5.5c-0.1-0.3-0.1-0.6-0.1-1c0-0.3 0-0.7 .1-1Zm41.7-26.2l4.5 4.5l6.9-10.4l-1.1-1.1c-3.4 2.3-6.9 4.7-10.3 7Zm-23.9-5.9l6.8 10.4l4.5-4.5l-10.2-7c-0.4 .4-0.8 .8-1.2 1.1Zm4.5-8.5l13.1 8.9l13.1-8.9v-2c-8.1 3.6-17.9 3.6-26.1-0.1h-0.1c0 .7 0 1.4 0 2.1Zm40.5-76.3h-35.9c-4.1 0-8.1 1.3-11.3 3.8c-4.6 3.4-7.5 9.1-7.5 14.9c0 2.9-0.2 5.9 .2 8.7c.3 2.6 1 5.2 2.2 7.6c.3 .6 .4 1.2 .4 1.8c.1 3.8-0.2 7.5 .4 11.2c1.2 6.6 5 12.9 10.6 16.8c5 3.4 11.3 4.8 17.4 3.8c11.2-1.7 20.6-11.9 20.6-24.1c0-2.5 0-5.1 0-7.7c0-1.3 .8-2.4 1.2-3.6c1.1-2.8 1.7-5.7 1.7-8.7v-24.5Zm65.2 42.8l-27.2 19.7c0 0-1 .8-2 1c-2.2 .5-4.7-0.6-5.9-2.6c-0.7-1.2-0.9-2.7-0.6-4.1l3.5-14c-1.7 0-3.5 .1-5.1-0.1c-4.6-0.7-8.7-4-10.2-8.4c-0.4-1.3-0.7-2.7-0.7-4.1c0-15.2-0.1-30.5 0-45.7c0-4 2.1-7.9 5.3-10.2c2.1-1.5 4.7-2.3 7.3-2.4c4.7 0 9.5 0 14.3 0c2.1 .1 4.1 2 4 4.2c-0.1 2-1.8 3.8-3.9 3.9c0 0-0.1 0-0.1 0c-4.8 0-9.6 0-14.3 0c-2.4 .1-4.5 2.1-4.5 4.5c-0.1 15.3-0.1 30.5 0 45.7c0 2.4 2 4.5 4.4 4.5h.1c2.8 0 5.7 0 8.6 0c1.4 0 2.8 .8 3.5 2.1c.5 .9 .6 1.9 .4 2.9l-3 12.1l22.4-16.3c.1-0.1 .1-0.1 .2-0.2c.6-0.4 1.4-0.6 2.1-0.6c9.5 0 19.1 0 28.6 0c2.3 0 4.4-2 4.5-4.5c.1-15.2 0-30.4 0-45.7c0-2.3-2-4.4-4.5-4.5c-4.8 0-9.5 0-14.3 0c0 0-1 0-1.7-0.4c-2-0.9-3-3.7-1.7-5.7c.7-1.2 2-1.9 3.4-2c4.8 0 9.6 0 14.3 0c4.2 .1 8.3 2.3 10.5 5.8c1.3 2 2 4.4 2.1 6.8c0 15.2 0 30.5 0 45.8c-0.1 5.2-3.6 10.2-8.7 11.8c-1.2 .5-2.6 .7-3.9 .7h-27.2Zm-96.6-26.6c7.4 0 15 .9 21.5 4.4c2 1.1 3.9 2.3 5.5 4c1.3 1.4 1.3 3.7 .2 5.2c-1.4 1.7-4.2 2.1-5.9 .6c-1-0.9-1.9-1.8-3.1-2.5c-4.2-2.4-9.1-3.2-14-3.5c-5.4-0.4-10.8-0.1-16.1 .7c0 0 0 5.1 0 5.1c0 0 0 .9-0.3 1.5c-0.8 2-3.3 3-5.2 2.2c-1.5-0.5-2.6-2-2.6-3.7c0-2 0-4.1 0-6.2c0-3.2 2.5-6.2 5.8-6.8c4.6-0.7 9.2-1 13.8-1c.1 0 .2 0 .4 0Zm92.5-7.2c3.5 .1 7 2.2 8.6 5.5c1.8 3.6 1.1 8.4-1.9 11.3c-3.2 3-8.3 3.6-12.1 1.2c-2.3-1.5-4-4.1-4.4-6.9c-0.4-3.1 .8-6.4 3.2-8.6c1.7-1.5 4.1-2.4 6.4-2.5c.1 0 .1 0 .2 0Zm-0.1 8.1c-0.7 0-1.3 .4-1.5 1c-0.5 1 .3 2.4 1.5 2.4c.7 0 1.5-0.6 1.6-1.3c.2-1-0.5-2.1-1.6-2.1c0 0 0 0 0 0Zm2.9-8.5h-5.8c-1.9 0-3.7-1.6-4-3.6c0-0.1 0-0.1 0-0.2c-1-15.2-1.9-30.5-2.8-45.7c-0.2-2.1 1.6-4.1 3.8-4.3c0 0 .1 0 .1 0c3.9 0 7.7 0 11.6 0c2.1 .1 4 2 3.9 4.1c0 .1 0 .1 0 .2c-0.8 15.2-1.9 30.4-2.8 45.7c-0.2 2-1.9 3.7-3.9 3.8c0 0-0.1 0-0.1 0Zm-1.5-45.7h-2.8l1.4 22.5l1.4-22.5Z" fill="#c23c35" transform="translate(1710,-1213.3) scale(.677,.677)"/><script xlink:href="/jvg/keyshape.js"/><script><![CDATA[if(KeyshapeJS.version.indexOf('1.')!=0)throw Error('Expected KeyshapeJS v1.*.*');window.ks=document.ks=KeyshapeJS;(function(ks){
ks.animate("#_a0",[{p:'mpath',t:[0,1000],v:['0%','100%'],e:[[1,.8,0,.2,1],[0]],mp:"M150.2,121.1L213,121.1"}],
"#_a1",[{p:'mpath',t:[0,1000],v:['0%','100%'],e:[[1,.8,0,.2,1],[0]],mp:"M150.2,121.1L356.9,121.1"}],
"#_a2",[{p:'mpath',t:[0,1000],v:['0%','100%'],e:[[1,.8,0,.2,1],[0]],mp:"M150.2,121.1L498.9,121.1"}],
{autoremove:false}).range(0,1000);
if(document.location.search.substr(1).split('&').indexOf('global=paused')>=0)ks.globalPause()})(KeyshapeJS);
]]></script></svg>