<svg xmlns="http://www.w3.org/2000/svg" xmlns:xlink="http://www.w3.org/1999/xlink" clip-rule="evenodd" fill-rule="evenodd" stroke-linejoin="round" stroke-miterlimit="1.4" viewBox="0 0 506 127" style="background: rgba(125,90,90,0.00);"><g transform="translate(52.2,63.6) translate(-52,-62.6)"/><rect id="_a0" width="10.2" height="10.2" fill="#c23c35" transform="translate(150.2,121.1) translate(0,0) translate(-5.1,-5.1)"/><rect id="_a1" width="10.2" height="10.2" fill="#c23c35" transform="translate(150.2,121.1) translate(0,0) translate(-5.1,-5.1)"/><rect id="_a2" width="10.2" height="10.2" fill="#c23c35" transform="translate(150.2,121.1) translate(0,0) translate(-5.1,-5.1)"/><path fill="#c23c35" d="M3188.2 1596.5c2.5 .1 4.9 1.6 5.9 3.9c5.8 0 11.6 0 17.3 0c3.5 0 6.9 2.4 8.1 5.8c.3 .9 .4 1.8 .4 2.8c.2 33.6 .2 67.2 0 100.8c0 2.5-1.1 4.9-3 6.5c-1.5 1.2-3.5 2-5.5 2c-24.6 .2-49.1 .1-73.7 0c-2.8 0-5.5-1.5-7.1-3.8c-0.9-1.4-1.4-3-1.4-4.7c-0.2-33.6-0.2-67.2 0-100.9c0-3.4 2.2-6.7 5.5-7.9c1-0.4 2-0.6 3-0.6h17.3c1-2.2 3.4-3.8 5.9-3.8h.1h5.4c2-2.4 4.9-3.8 7.9-3.9c3.2-0.1 6.3 1.4 8.3 3.9c1.9 0 3.7 0 5.6 0Zm3.8 17.2h-34.9c-1.4-0.1-2.7-1.3-2.7-2.8v-5c-5.6 0-11.1 0-16.7 0c-1.5 0-3 1.4-3 2.9c0 .1 0 .1 0 .2c-0.2 33.6-0.2 67.2 0 100.8c0 1.6 1.4 3 3 3c24.6 .1 49.1 .1 73.7 0c1.6 0 3-1.4 3-3c.4-33.6 0-67.2 0-100.8c0-1.6-1.3-3-2.9-3.1c0 0 0 0-0.1 0c-5.5 0-11.1 0-16.7 0v5c0 .2 0 .2 0 .3c-0.1 1.3-1.3 2.4-2.7 2.5Zm17.4 93h-69.7c-1.7 0-2.8-1.4-2.8-2.8v-93c.1-1.6 1.4-2.7 2.8-2.7h9.7c1.4 0 2.7 1.3 2.7 2.8c0 1.4-1.2 2.6-2.6 2.7h-0.1h-7v87.5h64.3v-87.5h-7c-1.5-0.1-2.8-1.4-2.7-2.9c.1-1.4 1.3-2.6 2.7-2.6h9.7c.1 0 .1 0 .1 0c1.5 0 2.7 1.3 2.7 2.7v93c0 1.4-1.2 2.7-2.7 2.8h-0.1Zm-11.6-11.7h-31c-1.4 0-2.7-1.2-2.7-2.6c-0.1-1.4 1.1-2.8 2.6-2.8c0 0 .1 0 .1 0c10.3 0 20.7-0.1 31.1 0c1.7 0 3 1.8 2.6 3.5c-0.4 1.1-1.5 1.9-2.7 1.9Zm-42.6-13.2c3.2 0 6.2 2.6 6.6 6c.2 2-0.6 4-2 5.4c-2.1 2-5.6 2.5-8.2 .8c-1.6-1-2.7-2.8-3-4.7c-0.5-3.5 2.3-7.2 6.2-7.5c.1 0 .3 0 .4 0Zm0 5.5c-0.8 0-1.4 .9-1 1.7c.3 .7 1.5 .7 2 0c.3-0.7-0.1-1.7-1-1.7c0 0 0 0 0 0Zm29.1-5.5c1.4 0 2.7 1.3 2.7 2.8c0 1.4-1.3 2.7-2.7 2.7c-5.8 0-11.7 0-17.5 0c-0.2 0-0.2 0-0.3 0c-1.4-0.2-2.5-1.5-2.4-2.8c0-1.4 1.2-2.7 2.6-2.7c.1 0 .1 0 .1 0c5.8 0 11.7 0 17.5 0Zm13.5-4.2h-31c-1.2 0-2.3-0.8-2.6-2c-0.4-1.2 .3-2.7 1.5-3.2c.3-0.2 .7-0.3 1.1-0.3c10.3 0 20.7-0.1 31.1 0c1.3 0 2.6 1.3 2.7 2.7c0 1.4-1.2 2.8-2.7 2.8h-0.1Zm-42.6-13.2c2.5 0 4.9 1.5 6 3.9c.8 1.7 .8 3.8-0.1 5.6c-0.7 1.4-1.9 2.6-3.3 3.2c-2.4 1-5.3 .5-7.2-1.3c-1.6-1.5-2.3-3.8-1.9-6c.5-3 3.2-5.4 6.4-5.4c0 0 .1 0 .1 0Zm0 5.5c-0.9 0-1.5 1.1-0.9 1.8c.6 .7 1.8 .4 2-0.5c.1-0.6-0.4-1.3-1.1-1.3c0 0 0 0 0 0Zm29.1-5.5c1.2 0 2.3 .8 2.6 2c.4 1.5-0.8 3.3-2.5 3.5c0 0-0.1 0-0.1 0c-5.8 0-11.7 0-17.5 0c-1.5 0-2.8-1.4-2.7-2.8c0-1.4 1.2-2.7 2.7-2.7c5.8-0.1 11.6-0.1 17.5 0Zm13.5-4.2h-31c-1.2 0-2.3-0.9-2.6-2c-0.5-1.5 .7-3.4 2.4-3.5c.1 0 .1 0 .2 0c10.3 0 20.7-0.1 31.1 0c1.3 0 2.6 1.2 2.7 2.6c0 1.4-1.2 2.8-2.7 2.9h-0.1Zm-42.6-13.3c3.3 .1 6.4 2.8 6.6 6.3c.2 3.1-2.1 6.1-5.2 6.8c-2.1 .5-4.4-0.1-6-1.7c-1.6-1.5-2.3-3.8-1.9-5.9c.5-3 3.3-5.4 6.4-5.5c.1 0 .1 0 .1 0Zm0 5.5c-0.5 0-1 .4-1.1 .9c-0.2 .9 .9 1.9 1.8 1.1c.6-0.5 .5-1.5-0.2-1.9c-0.2 0-0.4-0.1-0.5-0.1Zm29 0h-17.4c-1.4 0-2.8-1.3-2.7-2.8c0-1.4 1.2-2.6 2.7-2.7c5.8 0 11.6 0 17.5 0c1.4 .1 2.7 1.3 2.7 2.7c0 1.4-1.2 2.8-2.7 2.8h-0.1Zm13.6-11.6h-46.5c-1.5 0-2.8-1.4-2.7-2.9c0-1.3 1.3-2.6 2.7-2.6c15.5 0 31-0.1 46.6 0c1.3 0 2.6 1.2 2.7 2.6c0 1.5-1.2 2.8-2.7 2.9h-0.1Zm-11.6-9.7h-5.8c-1.4 0-2.7-1.2-2.8-2.6c0-1.4 1.1-2.8 2.6-2.9c.1 0 .1 0 .2 0c1.9 0 3.9 0 5.8 0c1.7 .1 3.2 1.8 2.6 3.6c-0.4 1.1-1.4 1.9-2.6 1.9Zm-27.1 0h-7.8c-1.4 0-2.7-1.2-2.7-2.6c0-0.1 0-0.1 0-0.1v-7.8c0-1.4 1.1-2.7 2.6-2.7c0 0 .1 0 .1 0c2.6 0 5.2-0.1 7.8 0c1.3 0 2.7 1.1 2.7 2.6c0 .1 0 .1 0 .1v7.8c0 1.7-1.4 2.7-2.7 2.7Zm13.5 0h-5.8c-1.4 0-2.7-1.2-2.7-2.6c-0.1-1.5 1.2-2.9 2.7-2.9c1.9 0 3.9 0 5.8 0c1.8 .1 3.2 1.9 2.6 3.6c-0.3 1.1-1.4 1.9-2.6 1.9Zm-16.3-7.8h-2.3v2.3h2.3v-2.2Zm41.5 0h-31c-1.1 0-2.1-0.6-2.5-1.7c-0.7-1.5 .5-3.7 2.4-3.7c0 0 .1 0 .1 0c10.3 0 20.7-0.1 31.1 0c1.7 0 3 1.8 2.6 3.5c-0.4 1.1-1.5 1.9-2.7 2Zm-23.3-25.1c-1.7 0-3.4 1-4.3 2.5c-0.5 .8-1.3 1.3-2.3 1.3c-2.3 0-4.6 0-6.9 0c-0.6 0-1.1 .6-1.1 1.1c0 0 0 .1 0 .1v5h29.4c0-1.7 0-3.4 0-5c0-0.1 0-0.1 0-0.1c-0.1-0.6-0.6-1.1-1.2-1.1c-2.3 0-4.6 0-6.9 0c-1 0-1.9-0.6-2.4-1.5c-0.9-1.4-2.5-2.3-4.2-2.3c0 0 0 0-0.1 0Zm.1 2.2c1.4 0 2.6 1.2 2.7 2.5c.2 1.5-1.1 3-2.7 3c-1.5 0-2.8-1.3-2.8-2.8c.1-1.4 1.2-2.6 2.6-2.7c.1 0 .2 0 .2 0Z" transform="translate(-3128.2,-1592.2)"/><script xlink:href="/jvg/keyshape.js"/><script><![CDATA[if(KeyshapeJS.version.indexOf('1.')!=0)throw Error('Expected KeyshapeJS v1.*.*');window.ks=document.ks=KeyshapeJS;(function(ks){
ks.animate("#_a0",[{p:'mpath',t:[0,1000],v:['0%','100%'],e:[[1,.8,0,.2,1],[0]],mp:"M150.2,121.1L213,121.1"}],
"#_a1",[{p:'mpath',t:[0,1000],v:['0%','100%'],e:[[1,.8,0,.2,1],[0]],mp:"M150.2,121.1L356.9,121.1"}],
"#_a2",[{p:'mpath',t:[0,1000],v:['0%','100%'],e:[[1,.8,0,.2,1],[0]],mp:"M150.2,121.1L498.9,121.1"}],
{autoremove:false}).range(0,1000);
if(document.location.search.substr(1).split('&').indexOf('global=paused')>=0)ks.globalPause()})(KeyshapeJS);
]]></script></svg>