<svg xmlns="http://www.w3.org/2000/svg" xmlns:xlink="http://www.w3.org/1999/xlink" clip-rule="evenodd" fill-rule="evenodd" stroke-linejoin="round" stroke-miterlimit="1.4" viewBox="0 0 506 127" style="background: rgba(125,90,90,0.00);"><g transform="translate(52.2,63.6) translate(-52,-62.6)"><path d="M-2406.5 2592.4c9.7 .1 19.3 4.3 25.9 11.5c8 8.6 11.3 21.2 8.3 32.8c-3 11.4-12.1 21.1-23.4 24.8c-8.4 2.7-17.9 2.2-26.1-1.7c-8.8-4.2-15.7-12.1-18.7-21.6c-2.6-8.4-1.9-17.8 2.1-25.9c5.5-11.2 17.2-19.2 29.9-19.8c.6-0.1 1.3-0.1 2-0.1Zm-0.2 8.1c-7.7 0-15.3 3.4-20.5 9.4c-6 6.8-8.2 16.7-5.7 25.5c2.5 8.6 9.3 15.7 18.1 18.5c7.6 2.4 16.3 1.2 23.1-3.2c8.8-5.7 13.9-16.8 12-27.5c-1.4-8.7-7.4-16.5-15.7-20.3c-3.4-1.6-7.2-2.4-11-2.4c-0.1 0-0.2 0-0.3 0Zm4.1 31.4v8.5c0 0 0 .9-0.3 1.7c-1 2-3.8 2.9-5.8 1.7c-1.2-0.7-1.9-2-1.9-3.4v-8.5h-8.5c0 0-1-0.1-1.8-0.4c-1.9-0.9-2.9-3.6-1.8-5.6c.7-1.3 2.1-2.1 3.6-2.1h8.5v-8.5c0 0 0-0.9 .3-1.6c.6-1.4 2-2.4 3.7-2.5c0 0 0 0 .1 0c2 .1 3.9 1.8 3.9 4.1v8.5h8.6c0 0 .9 0 1.7 .4c1.7 .8 2.7 2.9 2.1 4.8c-0.5 1.6-2.1 2.8-3.8 2.9h-8.6Zm-100.9-19.5c1.4 0 2.8 .8 3.5 2.1c0 0 0 0 0 .1c.9 1.8 2 3.6 2.6 5.5c.5 1.5 .7 3 .7 4.6c.1 4.8 0 9.7 0 14.5c0 2.2-1.9 4.1-4.2 4.1c-2-0.1-3.8-1.9-3.8-4c-0.1-4.9 0-9.7 0-14.5c-0.1-2.3-1.4-4.4-2.5-6.6c-0.9-2 0-4.6 2.1-5.5c.4-0.2 1-0.3 1.5-0.3c0 0 0 0 .1 0Zm42.5 2.3l-1.5 24.8c-0.1 1.7-1.4 3.2-3 3.6c-2.4 .6-5.2-1.4-5-4.1l1.5-26.8c0 0 0 0 0-0.1c-0.3-0.3-0.5-0.6-0.7-1c-1.7 1.7-4.3 2.4-6.6 1.9c-1.6-0.4-3-1.3-4-2.7l-10.5-14.7c-5.8 2.1-11.5 4.1-17.3 6.3c-4.8 1.7-8.4 6.5-8.5 11.8c0 .2 0 .4 0 .4c-0.1 8.3 0 16.7 0 25.1c0 0-0.1 .8-0.3 1.5c-1 2.4-4.4 3.4-6.5 1.5c-0.8-0.8-1.3-1.8-1.3-2.9c0-8.5-0.1-16.9 0-25.3c0-8.5 5.5-16.7 13.9-19.7v-0.1l18.9-6.8c1.2-1.8 2.3-3.6 3.5-5.4c.9-1.2 2.2-2.1 3.6-2.5v-7.8c0 0-0.1 0-0.1-0.1c-8.8-7.5-14.1-18.7-14.1-30.4v-0.1v-9.8c-0.7-2.6-1.4-5.2-1.9-7.9c-0.7-3.3-1-6.7-1-10.1c0-2.7 0-5.4 0-8.2c0-5.9 2.7-11.7 7.1-15.7c3-2.6 6.7-4.4 10.7-5.1c0 0 .5-0.4 .8-0.7c3.8-3.3 8.8-5.2 13.8-5.3h.1c12.4 0 24.8-0.1 37.2 0c5.2 .1 10.1 3.5 11.8 8.5c.5 1.3 .7 2.7 .7 4.1c.1 7.4 0 14.9 0 22.3c0 4.5-0.5 9-1.6 13.3l-1.2 4.8v11c0 0 0 .1 0 .2c-0.1 8.4-3 16.7-8 23.2c-1.9 2.3-4 4.5-6.3 6.3c0 0 0 7.5 0 7.5c.2 0 .3 .1 .4 .1c1.3 .5 2.5 1.4 3.3 2.6c1.4 2.1 2.8 4.2 4.2 6.3c.9 1.4 .9 3.2-0.1 4.5c-4.1 5.8-8.2 11.6-12.3 17.3c-1.8 2.6-5.4 3.6-8.4 2.3c-0.8-0.4-1.5-0.9-2.1-1.4c0 0 0-0.3-0.2 .1c-0.1 .3-0.4 .6-0.6 .9l1.5 26.8c.2 1.9-1.3 3.8-3.2 4.2c-2.2 .4-4.6-1.2-4.8-3.6c0 0 0-0.1 0-0.1l-1.5-24.8h-0.4Zm-1.5-10.9v2.9h3.4v-2.9l-1.7-1.7c-0.5 .6-1.1 1.2-1.7 1.7Zm8.2-6.6l7.3 7.3l9.8-13.8l-2-3c-5 3.2-10.1 6.3-15.1 9.5Zm-30.1-6.5l9.9 13.8l7.3-7.3l-15.2-9.5c-0.7 1-1.3 2-2 3Zm7.7-9l15.9 10l15.9-10v-4.6c-0.3 .1-0.6 .2-0.9 .4c-9.8 4.2-21.2 4-30.8-0.5l-0.1-0.1c0 1.6 0 3.2 0 4.8Zm7.3-95.3c-3.7 0-7.3 1.7-9.7 4.5c0 0-0.3 .2-0.6 .5c-1 .7-2.3 .7-3.5 1c-5.8 1.1-10.6 6.4-10.6 12.7c-0.1 6.5-0.2 12.9 1.3 19.3c.5 1.8 1 3.7 1.4 5.5c.1 .3 .1 .6 .1 .9c.1 3.5 0 6.9 0 10.4c0 .1 0 .2 0 .2c.1 12 7.2 23.6 18.5 28.6c9.7 4.3 21.8 2.8 30.4-4c7.1-5.6 11.5-14.5 11.5-23.6c0-3.9 0-7.7 0-11.6c0-0.3 0-0.6 .1-0.9c.8-3.4 1.8-6.8 2.3-10.3c.3-2.1 .4-4.2 .4-6.3v-0.1c.1-7.4 .1-14.9 0-22.3c0-2.3-1.9-4.4-4.4-4.5c-12.4-0.1-24.8 0-37.2 0Zm-1 19.4c8.8 0 17.6 .9 25.8 3.8c4.3 1.6 8.4 3.7 12.1 6.7c0 0 .6 .6 .9 1.2c1 1.8 .3 4.4-1.5 5.5c-1.5 .8-3.4 .5-4.7-0.6c-5.2-4.2-11.7-6.3-18.4-7.4c-7.7-1.4-15.8-1.4-23.6-0.8c-0.9 .1-1.8 .1-2.3 .8c-0.2 .3-0.3 .6-0.3 1c0 2.1 0 4.2 0 6.3c0 2.2-2 4.1-4.2 4c-2 0-3.8-1.8-3.9-3.9c0-2.3-0.1-4.6 0-6.8c.2-4.6 3.9-8.8 8.8-9.3c.2 0 .3 0 .5 0c3.6-0.4 7.2-0.5 10.8-0.5Z" fill="#c23c35" transform="translate(1709.3,-1677.9) scale(.677,.677)"/></g><rect id="_a0" width="10.2" height="10.2" fill="#c23c35" transform="translate(150.2,121.1) translate(0,0) translate(-5.1,-5.1)"/><rect id="_a1" width="10.2" height="10.2" fill="#c23c35" transform="translate(150.2,121.1) translate(0,0) translate(-5.1,-5.1)"/><rect id="_a2" width="10.2" height="10.2" fill="#c23c35" transform="translate(150.2,121.1) translate(0,0) translate(-5.1,-5.1)"/><script xlink:href="/jvg/keyshape.js"/><script><![CDATA[if(KeyshapeJS.version.indexOf('1.')!=0)throw Error('Expected KeyshapeJS v1.*.*');window.ks=document.ks=KeyshapeJS;(function(ks){
ks.animate("#_a0",[{p:'mpath',t:[0,1000],v:['0%','100%'],e:[[1,.8,0,.2,1],[0]],mp:"M150.2,121.1L213,121.1"}],
"#_a1",[{p:'mpath',t:[0,1000],v:['0%','100%'],e:[[1,.8,0,.2,1],[0]],mp:"M150.2,121.1L356.9,121.1"}],
"#_a2",[{p:'mpath',t:[0,1000],v:['0%','100%'],e:[[1,.8,0,.2,1],[0]],mp:"M150.2,121.1L498.9,121.1"}],
{autoremove:false}).range(0,1000);
if(document.location.search.substr(1).split('&').indexOf('global=paused')>=0)ks.globalPause()})(KeyshapeJS);
]]></script></svg>