<svg xmlns="http://www.w3.org/2000/svg" xmlns:xlink="http://www.w3.org/1999/xlink" clip-rule="evenodd" fill-rule="evenodd" stroke-linejoin="round" stroke-miterlimit="1.4" viewBox="0 0 506 127" style="background: rgba(125,90,90,0.00);"><g transform="translate(52.2,63.6) translate(-52,-62.6)"/><rect id="_a0" width="10.2" height="10.2" fill="#c23c35" transform="translate(150.2,121.1) translate(0,0) translate(-5.1,-5.1)"/><rect id="_a1" width="10.2" height="10.2" fill="#c23c35" transform="translate(150.2,121.1) translate(0,0) translate(-5.1,-5.1)"/><rect id="_a2" width="10.2" height="10.2" fill="#c23c35" transform="translate(150.2,121.1) translate(0,0) translate(-5.1,-5.1)"/><path d="M-2331.2 1154c.2 .2 .3 .2 .4 .5c.1 .2 .1 .3 .1 .4v63c0 6-3 11.9-7.8 15.5c-3.3 2.4-7.3 3.7-11.4 3.7c-8 .1-16 0-24.1 .1c-1 0-1.9 .8-2.1 1.8c-0.9 7.3-1.8 14.5-2.8 21.8c-0.3 2.3-2.7 4.2-5.1 3.6c-1.7-0.4-2.9-2.1-2.7-3.9c1.1-8.4 2.1-16.9 3.2-25.4c.4-3.1 3.3-5.8 6.6-5.8c9 0 18 .1 27 0c4.9 0 9.7-3.5 11-8.5c.2-0.9 .3-1.9 .3-2.9v-54.6c-3.4 .9-6.8 1.7-10.3 2.7c-3.2 1-6.3 2.5-8.2 5.2c-1 1.3-1.5 2.8-1.5 4.4v38.6c0 .7-0.2 .9-0.4 1.1c-0.3 .5-0.8 .7-1.4 .7c-9.5 0-19-0.1-28.5 0c-1.9 .1-3.7 1.6-3.8 3.6c.1 0 .1 .1 .1 .1c-0.2 13.6 0 27.3 0 40.9c-0.1 2.9-3 4.6-5.4 3.7c-1.4-0.6-2.5-2.1-2.5-3.7c-0.1-13.6 0-27.2 0-40.8c0-4.8 3.1-9.3 7.7-11c1.3-0.4 2.6-0.6 3.9-0.6h22.5c0-10.9-0.1-21.8 0-32.7c0-2.7 .8-5.5 2.2-7.9c2.9-4.7 8.2-7.7 13.7-9.3c4.9-1.4 10-2.6 15-3.7h.1l3.4-0.7h.4c.1 0 .2 .1 .4 .1Zm-85.9 44.4v62.2c0 0-0.1 1-0.4 1.7c-0.9 1.8-3.3 2.8-5.2 1.8c-1.4-0.6-2.3-2-2.3-3.5c-0.2-20.1 .1-40.3 0-60.4c0-1.3-1.7-2.3-2.9-1.5c-0.4 .3-0.7 .9-0.8 1.5c-0.1 20.1 .1 40.3 .1 60.4c-0.1 2.1-2 4-4.1 3.9c-2-0.1-3.8-1.9-3.8-3.9v-62.2c-11.2 0-22.4 0-33.6 0c-3.5-0.1-6.7-3-6.8-6.8c0-1.9 0-3.9 0-5.8c.1-3.5 3.1-6.8 6.8-6.8c28.1-0.1 56.3-0.1 84.5 0c3.4 0 6.6 2.9 6.7 6.6c.1 2 0 4 0 6c0 3.5-3.1 6.8-6.8 6.8h-31.4Zm-48.7 9.8c3.7 0 7.3 1.8 9.4 4.9c1.4 1.9 2.1 4.2 2.2 6.6c0 13.6 0 27.3 0 40.9c-0.1 2.8-3 4.6-5.4 3.7c-1.4-0.6-2.5-2.1-2.5-3.7c-0.1-13.6 .1-27.3 0-40.9c0-1.9-1.7-3.7-3.7-3.7c-9.5-0.1-18.9 .1-28.3 0c-0.9 0-1.7-0.6-2-1.5c-0.1-0.2-0.1-0.2-0.1-0.2c0-0.2 0-0.2 0-0.3c-0.1-12.9 .1-25.7 0-38.5c0-4-3.5-7.1-7.7-8.8c-2.3-0.9-4.8-1.5-7.2-2.1c-1.6-0.4-3.1-0.8-4.7-1.2h-0.2l-0.2-0.1c0 18.2-0.1 36.4 0 54.7c0 4 2.3 7.9 5.9 9.9c1.7 .9 3.5 1.4 5.4 1.4h.1c9 0 18-0.1 27.1 0c3.1 0 6 2.5 6.4 5.7c1.1 8.5 2.2 17 3.2 25.6c.3 2.1-1.7 4.2-4.2 3.9c-1.8-0.3-3.3-1.8-3.6-3.7c-1-7-1.8-14.1-2.7-21.2c-0.2-1.3-1.4-2.4-2.8-2.5c-7.8 0-15.6 .1-23.5 0c-6.2 0-12.3-3.2-15.9-8.5c-2.1-3.1-3.2-6.9-3.3-10.7v-63c.1-0.1 .1-0.2 .1-0.4c.1-0.2 .3-0.4 .5-0.5c.2-0.1 .5-0.1 .7-0.1c6.5 1.3 13 2.7 19.3 4.6c4.2 1.3 8.3 3.4 11.2 6.8c2.5 2.8 4 6.5 4 10.2v.1v32.6h22.5Zm-1.4-21.3c-1.2 0-2.1 1.3-1.7 2.4c.2 .7 .9 1.2 1.7 1.2c26.2 .2 52.4 .2 78.6 0c1.3 0 2.3-1.5 1.6-2.7c-0.3-0.6-0.9-0.9-1.6-0.9c-26.2-0.2-52.4 0-78.6 0Zm25.3-28.6c.9 0 1.8 .9 1.8 1.9c.1 1.3 .1 2.7 0 4.1c0 1-0.8 1.8-1.8 1.9c-1.4 0-2.8 0-4.1 0c-1-0.1-1.9-0.9-1.9-1.9c0-1.4 0-2.8 0-4.1c0-1 .8-1.9 1.9-1.9c1.3 0 2.7 0 4.1 0Zm16.1 0c.9 0 1.8 .9 1.8 1.9c0 0 0 4.1 0 4.1c0 1-0.8 1.8-1.8 1.9c-1.4 0-2.8 0-4.1 0c-1-0.1-1.9-0.9-1.9-1.9c0-1.4 0-2.8 0-4.1c0-0.2 0-0.4 0-0.4c.2-0.8 1-1.5 1.9-1.5c1.3 0 2.7 0 4.1 0Zm16.1 0c.9 0 1.8 .8 1.8 1.9c.1 1.3 .1 2.7 0 4.1c0 1-0.8 1.8-1.8 1.9c-1.4 0-2.8 0-4.1 0c-1-0.1-1.9-0.9-1.9-1.9c0 0 0-4.1 0-4.1c0-1 .9-1.9 1.9-1.9c1.3 0 2.7 0 4.1 0Zm-78.9-12v7.8c0 0-0.1 .8-0.5 1.2c-0.3 .3-0.7 .5-1.2 .6c-5.1 0-10.2 0-15.3 0c-5.7-0.1-11.3-2.9-14.8-7.5c-2.3-3.1-3.6-7-3.7-10.9c0-3.4 0-6.8 0-10.2c.1-6.1 3.5-12.1 8.8-15.2c2.7-1.6 5.8-2.4 8.9-2.5c0 0 .1 0 .1 0c8 .1 15.7 5.9 17.4 14.4c.1 .8 .2 1.7 .3 2.5c0 0 8 18.3 8 18.3v.3c0 .5-0.2 1-0.7 1.1c-0.1 .1-0.2 .1-0.3 .1h-7Zm140.2-36.7c8.2 .1 16 6.2 17.5 14.9c.1 .9 .2 1.9 .2 2.8c0 3.4 0 6.7 0 10.1c0 6.1-3.3 12.1-8.4 15.5c-3 1.9-6.5 2.9-10 3c-5.1 0-10.2 0-15.3 0c-0.9-0.1-1.7-0.8-1.8-1.8v-7.8h-6.9l-0.4-0.1c-0.2-0.1-0.4-0.2-0.5-0.4c-0.2-0.3-0.2-0.7-0.1-1l8-18.3c0 0 0-0.1 0-0.2c.3-5.4 3.3-10.6 7.9-13.7c2.8-1.9 6.3-2.9 9.8-3c0 0 0 0 0 0Zm-11 28.8l.4 .1c.3 .1 .5 .3 .6 .6c.1 .2 .1 .3 .1 .4v8.5c3.1 0 6.1 0 9.2 0c2.8 0 5.6-1.2 7.6-3.3c1.9-1.9 2.9-4.6 3-7.4c.5-3.2 0-6.6 0-9.9c-0.1-4-2.7-7.8-6.5-9.3c-1.1-0.4-2.2-0.6-3.4-0.6c0 0 0 0-0.1 0c-4.1 .1-8 2.8-9.3 6.8c-0.3 1-0.5 2-0.5 3.1v.6c0 .2 0 .2-0.1 .4l-4.3 10h3.3Zm-146.9-20.9c-4.1 0-7.9 2.8-9.3 6.6c-0.4 1-0.6 2.1-0.6 3.2c0 3.4 0 6.8 0 10.1c0 4.2 2.8 8.3 6.8 9.9c1.2 .5 2.5 .7 3.8 .7h9.2v-8.5v-0.4c.2-0.3 .4-0.5 .7-0.6c.1-0.1 .2-0.1 .3-0.1h3.4l-4.4-10v-0.2v-0.2c0-2.7-0.9-5.3-2.6-7.3c-1.9-2-4.6-3.2-7.3-3.2Zm46.1 4h.4c.3 .2 .6 .4 .7 .7c0 .1 0 .2 0 .3v5.8c-0.1 .5-0.3 .9-0.7 1c-0.1 0-0.2 0-0.4 0c-3.7 0-7.4 .1-11.1 0c-1 0-1.9-0.8-1.9-1.9v-10.5h-12c-0.1 0-0.1 0-0.2 0c-0.1 0-0.2-0.1-0.3-0.1c-0.5-0.2-0.9-0.7-1-1.3l.1-0.4c0-0.2 .1-0.4 .2-0.6l13.2-16.1v-13.4c0-0.7 .2-1 .5-1.3c.4-0.3 .9-0.5 1.3-0.6h.1h65.4c1 .1 1.9 .9 1.9 1.9v13.5c4.7 0 9.5-0.1 14.2 0c.1 0 .2 0 .3 0c.8 .1 1.6 .9 1.6 1.8c0 0 0 0 0 .1v13.4l13.3 16.2c0 0 .4 .6 .2 1.1c-0.1 .6-0.7 1.1-1.3 1.1h-12.2v10.6c0 1-0.9 1.9-1.9 1.9c-21.8 .1-43.6 .1-65.4 0c-1 0-1.9-0.9-1.9-1.9c-0.2-14 0-28.1 0-42.2c0-1.1 1-2.1 2.2-2.1h43v-7.5h-53.5v9.8v.4l-0.2 .3l-6.1 7.5h5.3l.3 .1c.1 0 .2 .1 .3 .1c.1 .1 .2 .2 .2 .3c.2 .2 .2 .3 .2 .6v11.4h5.2Zm64.4-15.2h-53.5v15.2h37.4v-12.5l.1-0.3c.1-0.4 .3-0.6 .7-0.7c.1 0 .2 0 .3-0.1h5.7c.5 .1 .9 .3 1 .8c.1 .1 .1 .2 .1 .3v18.4c0 1-0.9 1.9-1.9 1.9h-43.4v7.5h53.5v-11.4l.1-0.3c.1-0.3 .4-0.6 .7-0.7c.1 0 .2 0 .3 0h5.3l-6.1-7.5l-0.2-0.4l-0.1-0.3v-9.9Z" fill="#c23c35" transform="translate(1709.2,-732.5) scale(.677,.677)"/><script xlink:href="/jvg/keyshape.js"/><script><![CDATA[if(KeyshapeJS.version.indexOf('1.')!=0)throw Error('Expected KeyshapeJS v1.*.*');window.ks=document.ks=KeyshapeJS;(function(ks){
ks.animate("#_a0",[{p:'mpath',t:[0,1000],v:['0%','100%'],e:[[1,.8,0,.2,1],[0]],mp:"M150.2,121.1L213,121.1"}],
"#_a1",[{p:'mpath',t:[0,1000],v:['0%','100%'],e:[[1,.8,0,.2,1],[0]],mp:"M150.2,121.1L356.9,121.1"}],
"#_a2",[{p:'mpath',t:[0,1000],v:['0%','100%'],e:[[1,.8,0,.2,1],[0]],mp:"M150.2,121.1L498.9,121.1"}],
{autoremove:false}).range(0,1000);
if(document.location.search.substr(1).split('&').indexOf('global=paused')>=0)ks.globalPause()})(KeyshapeJS);
]]></script></svg>