<svg xmlns="http://www.w3.org/2000/svg" xmlns:xlink="http://www.w3.org/1999/xlink" clip-rule="evenodd" fill-rule="evenodd" stroke-linejoin="round" stroke-miterlimit="1.4" viewBox="0 0 506 127" style="background: rgba(125,90,90,0.00);"><g transform="translate(52.2,63.6) translate(-52,-62.6)"/><rect id="_a0" width="10.2" height="10.2" fill="#c23c35" transform="translate(150.2,121.1) translate(0,0) translate(-5.1,-5.1)"/><rect id="_a1" width="10.2" height="10.2" fill="#c23c35" transform="translate(150.2,121.1) translate(0,0) translate(-5.1,-5.1)"/><rect id="_a2" width="10.2" height="10.2" fill="#c23c35" transform="translate(150.2,121.1) translate(0,0) translate(-5.1,-5.1)"/><path d="M-2482.2 1604.5c-5.4 4-10.8 8-16.1 12c-2 1.5-4.8 1.8-7 .8c-2.7-1.3-4.4-4.4-3.9-7.4c0 0 .9-5.4 .9-5.4c-2.7 0-5.5 .2-8-0.7c-4.8-1.7-8.4-6.5-8.4-11.8c0-5.8 0-11.5 0-17.3c0-4.1 2.2-8.1 5.7-10.4c2-1.4 4.4-2.1 6.8-2.1c22.9-0.1 45.7-0.1 68.6 0c3.9 0 7.9 2 10.2 5.3c1.5 2.1 2.3 4.7 2.3 7.2c0 5.8 0 11.5 0 17.3c0 5.1-3.5 10.1-8.5 11.8c-1.3 .5-2.7 .7-4 .7h-0.1h-38.6Zm-29.9-34.2c-2.3 0-4.4 1.9-4.5 4.3c0 0 0 .1 0 .2c-0.1 5.7-0.1 11.4 0 17.1c0 2.3 1.9 4.4 4.2 4.5c.1 0 .2 0 .2 0c2.9 0 5.8 0 8.7 0c2.3 0 4.3 2.3 3.9 4.7c0 0-1.2 7.2-1.2 7.2l14.8-11.1c.7-0.5 1.5-0.8 2.4-0.8c13.3 0 26.6 .1 40 0c2.3 0 4.4-2 4.4-4.4c.1-5.8 .1-11.5 0-17.2c0-2.4-2-4.5-4.4-4.5c-22.9-0.1-45.7 0-68.5 0Zm14.2 22.8h-5.7c-2 0-3.9-1.8-4-3.8c-0.1-2.2 1.7-4.2 3.9-4.3c0 0 .1 0 .1 0c2 0 3.9 0 5.8 0c2.1 0 3.9 1.9 4 3.9c0 2.2-1.8 4.2-4.1 4.2Zm45.7 0h-34.2c-2.1 0-4-1.8-4.1-3.8c-0.1-2.2 1.6-4.2 3.9-4.3c0 0 .1 0 .1 0c11.5 0 22.9-0.1 34.3 0c2.1 0 3.9 1.8 4 3.9c.1 2.1-1.7 4.2-4 4.2Zm-17.1-19.5c2.1 0 4.1 2 4 4.2c-0.1 2-1.9 3.8-4 3.9c-11.4 0-22.8 0-34.3 0c-2.1 0-4.1-2-4-4.2c.1-2 1.9-3.9 4-3.9c11.4 0 22.9 0 34.3 0Zm17.1 0c2.6 0 4.8 2.8 3.7 5.5c-0.5 1.5-2.1 2.5-3.7 2.6c-1.9 0-3.8 0-5.7 0c-2.2 0-4.1-2-4.1-4.2c.1-2 1.9-3.9 4-3.9c1.9 0 3.9 0 5.8 0Zm96-6.2c.3 1.8 .6 3.7 .9 5.5c.5 3-1.2 6.1-4 7.3c-2.2 1-4.9 .7-6.9-0.7l-16.1-12.1c-11 0-21.9 .1-32.9 0c-4 0-7.9-2-10.2-5.3c-1.5-2.1-2.3-4.6-2.3-7.2c0-2.1-0.1-4.2 0-6.3c.1-4.9 3.4-9.5 8.1-11.2c1.4-0.6 2.9-0.9 4.4-0.9c20.9-0.1 41.9-0.1 62.9 0c5.1 .1 10.1 3.5 11.8 8.6c.3 .8 .5 1.7 .6 2.6c0 .4 .1 .9 .1 1.3c0 3.4 .4 6.8-0.7 9.9c-1.7 4.9-6.6 8.5-11.9 8.5h-3.8Zm-58.9-22.8c-2.4 0-4.5 2-4.6 4.5c0 1.9 0 3.8 0 5.8c.1 2.2 2 4.3 4.3 4.4c.1 0 .1 0 .2 0c11.4 .1 22.8 0 34.3 0c.8 0 1.7 .3 2.4 .8l14.7 11.1c-0.4-2.4-0.8-4.8-1.2-7.2c-0.3-2.2 1.5-4.5 3.8-4.6c.1-0.1 .1-0.1 .2-0.1c2.9 0 5.7 0 8.6 0c2.3 0 4.5-2 4.5-4.4c0-2 0-3.9 0-5.8c0-2.3-2.1-4.5-4.5-4.5c-20.9-0.1-41.8 0-62.8 0Zm14.2 11.4h-5.7c-2.1 0-4-1.8-4-3.9c-0.1-2.2 1.8-4.1 4-4.2c1.9 0 3.8 0 5.8 0c2 .1 3.8 1.8 3.9 3.9c.1 2-1.6 4.1-3.8 4.2c0 0-0.1 0-0.2 0Zm39.9 0h-28.5c-2 0-3.9-1.8-4-3.8c-0.1-2.1 1.6-4.2 3.8-4.3c.1 0 .1 0 .2 0c9.5 0 19.1-0.1 28.6 0c2 .1 3.9 1.8 4 3.9c.1 2.1-1.7 4.1-3.9 4.2c0 0-0.1 0-0.2 0Zm-121.2-17.1c-5.4 4-10.8 8-16.1 12c-2.6 1.9-6.4 1.8-8.8-0.4c-1.7-1.5-2.5-3.9-2.1-6.2c0 0 .9-5.4 .9-5.4c-1.9 0-3.8 .1-5.6-0.1c-5.7-0.8-10.6-5.9-10.8-12c0-0.1 0-0.3 0-0.4c0-9.6 0-19.1 0-28.7c0-5 3.3-9.8 8-11.7c1.5-0.5 3-0.8 4.5-0.8c24.8-0.1 49.5-0.1 74.3 0c4.1 0 8.1 2.2 10.4 5.6c1.3 2 2.1 4.5 2.1 6.9c.1 9.6 .1 19.1 0 28.7c0 5.2-3.6 10.2-8.6 11.9c-1.3 .4-2.6 .6-3.9 .6h-0.1h-44.2Zm-29.9-45.6c-2.3 0-4.5 1.9-4.5 4.4v.1c-0.1 9.5-0.1 19 0 28.5c0 2.4 2 4.5 4.4 4.5c2.9 .1 5.8 0 8.7 0c1.9 0 3.6 1.5 3.9 3.4c.1 .4 .1 .8 0 1.3l-1.2 7.2l14.8-11.1c.1-0.1 .1-0.1 .2-0.1c.6-0.4 1.4-0.7 2.2-0.7c15.2 0 30.4 .1 45.7 0c2.3 0 4.4-1.9 4.5-4.4c.1-9.6 0-19.1 0-28.6c-0.1-2.3-2-4.4-4.4-4.5c0 0-0.1 0-0.1 0c-24.8-0.1-49.5 0-74.2 0Zm42.8 34.2h-34.3c-2.1 0-4.1-2-4-4.2c.1-2 1.9-3.8 4-3.9c11.4 0 22.9 0 34.3 0c2.1 .1 3.9 1.8 4 3.9c.1 2.1-1.7 4.1-3.9 4.2c-0.1 0-0.1 0-0.1 0Zm22.8 0h-11.4c-2.2 0-4.1-2-4.1-4.2c.1-2 1.9-3.8 4-3.9c3.8 0 7.7 0 11.5 0c2.1 .1 4 1.9 4 3.9c.1 2.1-1.7 4.1-3.9 4.2c-0.1 0-0.1 0-0.1 0Zm-51.4-11.4h-5.7c-2.1 0-4.1-2-4-4.2c.1-2.1 1.9-3.9 4-3.9c2 0 3.9 0 5.8 0c2.1 0 3.9 1.8 4 3.9c.1 2.1-1.7 4.1-3.9 4.2c-0.1 0-0.1 0-0.2 0Zm51.4 0h-40c-2.1 0-4.1-2-4-4.2c.1-2.1 1.9-3.9 4-3.9c13.4 0 26.7-0.1 40 0c2.1 0 3.9 1.8 4 3.9c.1 2.1-1.7 4.1-3.9 4.2c0 0-0.1 0-0.1 0Zm-22.8-11.4h-34.3c-2 0-3.9-1.8-4-3.9c-0.1-2.1 1.7-4.1 3.9-4.2c0 0 .1 0 .1 0c11.5 0 22.9-0.1 34.3 0c2.1 0 3.9 1.8 4 3.9c.1 2.1-1.8 4.2-4 4.2Zm22.8 0h-11.4c-2.1 0-4-1.8-4.1-3.9c-0.1-2.1 1.7-4.1 3.9-4.2c.1 0 .1 0 .2 0c3.8 0 7.6 0 11.4 0c2.1 0 3.9 1.8 4 3.9c.1 2.1-1.8 4.2-4 4.2Zm90.3-22.8c.3 1.8 .6 3.6 .9 5.4c.3 2.2-0.4 4.5-2.1 6.1c-0.5 .5-1.2 .9-1.9 1.3c-2.2 1-4.9 .7-6.9-0.8l-16.1-12c-14.8 0-29.6 0-44.3 0c-5.1-0.1-10.1-3.5-11.8-8.5c-0.5-1.3-0.7-2.7-0.8-4.1c0-5.7 0-11.5 .1-17.2c0-4 2-7.9 5.2-10.2c2.1-1.5 4.7-2.3 7.3-2.3c24.7-0.1 49.5-0.1 74.3 0c5.1 0 10 3.4 11.8 8.4c.4 1.3 .7 2.7 .7 4.1c0 5.7 0 11.5 0 17.2c-0.1 5.1-3.4 10-8.2 11.8c-1.4 .5-2.9 .7-4.4 .8h-3.8Zm-70.4-34.3c-2.3 0-4.4 2-4.5 4.5c0 5.7 0 11.5 0 17.2c0 2.3 2 4.5 4.5 4.5c15.2 0 30.4 0 45.7 0c.8 0 1.7 .3 2.4 .8l14.7 11.1c-0.4-2.4-0.8-4.8-1.2-7.2c-0.3-1.9 .9-3.9 2.7-4.5c.4-0.1 .9-0.2 1.3-0.2c2.9 0 5.7 0 8.6 0c2.3 0 4.5-2 4.5-4.5c0-5.7 0-11.5 0-17.2c0-2.3-2.1-4.4-4.5-4.5c-24.7 0-49.4 0-74.2 0Zm48.5 22.8h-39.9c-2.1 0-3.9-1.7-4-3.8c-0.1-2.1 1.6-4.1 3.8-4.2c0 0 .1 0 .2 0c13.3 0 26.6-0.1 40 0c2 0 3.9 1.8 3.9 3.9c.1 2.1-1.7 4.1-4 4.1Zm17.1 0h-5.7c-2 0-3.9-1.7-4-3.8c-0.1-2.1 1.6-4.1 3.8-4.2c.1 0 .1 0 .2 0c1.9 0 3.9 0 5.8 0c2 0 3.9 1.8 4 3.8c.1 2.1-1.7 4.1-3.9 4.2c0 0-0.1 0-0.2 0Zm0-11.4h-34.2c-3 0-4.8-3.2-3.6-5.7c.6-1.4 2.1-2.3 3.6-2.3c11.4 0 22.9-0.1 34.3 0c2 0 3.9 1.8 4 3.9c0 2.1-1.8 4.1-4.1 4.1Zm-45.6 0h-11.4c-3.1 0-4.8-3.3-3.6-5.7c.6-1.4 2.1-2.3 3.6-2.3c3.8 0 7.6-0.1 11.5 0c2 0 3.9 1.8 3.9 3.8c.1 2.2-1.7 4.2-4 4.2Z" fill="#c23c35" transform="translate(1710.2,-974.5) scale(.677,.677)"/><script xlink:href="/jvg/keyshape.js"/><script><![CDATA[if(KeyshapeJS.version.indexOf('1.')!=0)throw Error('Expected KeyshapeJS v1.*.*');window.ks=document.ks=KeyshapeJS;(function(ks){
ks.animate("#_a0",[{p:'mpath',t:[0,1000],v:['0%','100%'],e:[[1,.8,0,.2,1],[0]],mp:"M150.2,121.1L213,121.1"}],
"#_a1",[{p:'mpath',t:[0,1000],v:['0%','100%'],e:[[1,.8,0,.2,1],[0]],mp:"M150.2,121.1L356.9,121.1"}],
"#_a2",[{p:'mpath',t:[0,1000],v:['0%','100%'],e:[[1,.8,0,.2,1],[0]],mp:"M150.2,121.1L498.9,121.1"}],
{autoremove:false}).range(0,1000);
if(document.location.search.substr(1).split('&').indexOf('global=paused')>=0)ks.globalPause()})(KeyshapeJS);
]]></script></svg>