<svg xmlns="http://www.w3.org/2000/svg" viewBox="0 0 573 149"><g transform="translate(-408,-2700)"><g transform="translate(-2698.8,944.8)"><path fill="#c23c35" fill-rule="evenodd" d="M3177.3 1760.2c2.9 .1 5.7 1.9 7 4.6c6.8 0 13.5-0.1 20.3 0c4.1 0 8.1 2.8 9.5 6.8c.3 1.1 .5 2.2 .5 3.2c.2 39.6 .2 79.2 0 118.7c0 2.9-1.4 5.8-3.6 7.6c-1.7 1.5-4 2.4-6.4 2.4c-28.9 .2-57.8 .1-86.8 0c-3.2 0-6.4-1.7-8.2-4.4c-1.2-1.7-1.8-3.6-1.8-5.6c-0.1-39.6-0.1-79.1 0-118.7c.1-4 2.7-7.9 6.6-9.4c1.1-0.4 2.3-0.6 3.5-0.6h20.3c1.2-2.7 4-4.5 7-4.6h.1h6.4c2.2-2.7 5.7-4.4 9.2-4.5c3.8-0.1 7.5 1.6 9.9 4.5c2.1 0 4.3 0 6.5 0Zm4.4 20.2h-41c-1.7 0-3.2-1.5-3.2-3.3v-5.8c-6.6 0-13.1-0.1-19.6 0c-1.9 0-3.5 1.5-3.6 3.4c0 0 0 .1 0 .1c-0.2 39.6-0.2 79.1 0 118.7c0 1.8 1.7 3.5 3.6 3.6c28.9 .1 57.8 .1 86.7 0c1.8-0.1 3.5-1.6 3.6-3.6c.4-39.6 0-79.1 0-118.7c-0.1-1.8-1.6-3.4-3.5-3.5c0 0-0.1 0-0.1 0c-6.6-0.1-13.1 0-19.6 0v5.8c0 .3 0 .3-0.1 .4c-0.1 1.6-1.6 2.8-3.2 2.9Zm20.6 109.4h-82.1c-2 0-3.2-1.5-3.2-3.2l-0.1-109.5c.1-1.9 1.6-3.2 3.3-3.2h11.4c1.7 0 3.2 1.6 3.2 3.3c0 1.6-1.4 3.1-3.1 3.2h-0.1h-8.2v103h75.6v-103h-8.1c-1.8 0-3.4-1.6-3.3-3.4c.1-1.6 1.6-3.1 3.3-3.1h11.4c0 0 0 0 0 0c1.8 .1 3.2 1.6 3.2 3.2v109.5c0 1.7-1.4 3.2-3.2 3.2Zm-13.7-13.7h-36.5c-1.7 0-3.2-1.4-3.2-3.1c-0.1-1.6 1.3-3.2 3.1-3.3c0 0 0 0 .1 0c12.2 0 24.3-0.1 36.5 0c2.1 0 3.6 2.2 3.1 4.1c-0.4 1.3-1.7 2.3-3.1 2.3Zm-50.1-15.5c3.7 0 7.3 3 7.7 7c.2 2.3-0.7 4.7-2.3 6.3c-2.5 2.4-6.7 3-9.7 1c-1.9-1.2-3.2-3.2-3.5-5.5c-0.6-4.1 2.7-8.5 7.2-8.8c.2 0 .4 0 .6 0Zm-0.1 6.4c-0.9 0-1.6 1.1-1.2 2c.5 .8 1.9 .9 2.4 0c.4-0.8-0.2-1.9-1.2-2c0 0 0 0 0 0Zm34.3-6.4c1.7 0 3.2 1.5 3.1 3.3c0 1.6-1.5 3.1-3.1 3.1c-6.9 .1-13.8 0-20.6 0c-0.2 0-0.3 0-0.4 0c-1.6-0.2-2.9-1.7-2.8-3.3c0-1.6 1.4-3.1 3.1-3.1c0 0 .1 0 .1 0c6.8 0 13.7-0.1 20.6 0Zm15.9-5h-36.5c-1.4 0-2.7-1-3.1-2.3c-0.4-1.5 .3-3.2 1.8-3.8c.4-0.2 .8-0.3 1.3-0.3c12.2 0 24.3-0.1 36.5 0c1.7 0 3.1 1.4 3.2 3.1c.1 1.7-1.4 3.3-3.1 3.3h-0.1Zm-50.1-15.6c2.9 .1 5.8 1.9 7 4.6c.9 2.1 .9 4.5-0.1 6.6c-0.8 1.7-2.2 3.1-4 3.8c-2.7 1.2-6.1 .6-8.4-1.5c-1.8-1.8-2.7-4.5-2.3-7c.7-3.5 3.9-6.4 7.6-6.5c.1 0 .1 0 .2 0Zm-0.1 6.5c-1 0-1.7 1.4-1 2.2c.6 .7 2.1 .5 2.3-0.6c.2-0.8-0.4-1.6-1.3-1.6c0 0 0 0 0 0Zm34.3-6.5c1.3 .1 2.6 1.1 3 2.4c.5 1.8-0.9 4-2.9 4.1c0 0-0.1 0-0.1 0c-6.9 0-13.8 0-20.6 0c-1.7 0-3.3-1.6-3.2-3.3c0-1.6 1.5-3.1 3.2-3.2c6.8 0 13.7 0 20.6 0Zm263.7 2.9c8 0 10.5-4.5 10.5-13.1c0-8.6-2.5-13.3-10.5-13.3c-8.1 0-10.6 4.7-10.6 13.3c0 8.6 2.5 13.1 10.6 13.1Zm86 0c8 0 10.6-4.5 10.6-13.1c0-8.6-2.6-13.3-10.6-13.3c-8 0-10.6 4.7-10.6 13.3c0 8.6 2.6 13.1 10.6 13.1Zm56.7-25.4c0 0-5-1-8.4-1c-5.2 0-8.7 2.2-8.7 7.5c0 4.1 2.2 6.1 7.9 7.7c3.7 1.1 4.6 1.8 4.6 3.4c0 1.9-1.2 3.3-4 3.3c-2.7 0-7.7-0.7-7.7-0.7l-0.5 4c0 0 5 1.2 8.5 1.2c5 0 8.8-2.6 8.8-8.2c0-4.2-1.7-5.8-7.2-7.5c-4.3-1.4-5.3-1.9-5.3-3.5c0-1.7 1.3-2.7 4.1-2.7c2.2 0 7.5 .6 7.5 .6l.4-4.1Zm-112 0c0 0-5-1-8.4-1c-5.2 0-8.7 2.2-8.7 7.5c0 4.1 2.1 6.1 7.9 7.7c3.7 1.1 4.6 1.8 4.6 3.4c0 1.9-1.2 3.3-4 3.3c-2.7 0-7.7-0.7-7.7-0.7l-0.5 4c0 0 5 1.2 8.5 1.2c5 0 8.8-2.6 8.8-8.2c0-4.2-1.7-5.8-7.2-7.5c-4.3-1.4-5.3-1.9-5.3-3.5c0-1.7 1.3-2.7 4.1-2.7c2.2 0 7.5 .6 7.5 .6l.4-4.1Zm-154.4 25.4c8 0 10.6-4.5 10.6-13.1c0-8.6-2.6-13.3-10.6-13.3c-8 0-10.6 4.7-10.6 13.3c0 8.6 2.6 13.1 10.6 13.1Zm239.6-5h.3v-21h5.2v25.5h-8.5l-6.4-21h-0.3v21h-5.2v-25.5h8.7l6.2 21Zm-138.1-21c6 0 9.1 2.9 9.1 8.9c0 5.9-3.1 9.2-9.1 9.2h-4.2v7.4h-5.2v-25.5h9.4Zm-28.7 21h.3v-21h5.2v25.5h-8.5l-6.4-21h-0.3v21h-5.2v-25.5h8.7l6.2 21Zm-19.2-21v4.5h-11.3v6h9.1v4.4h-9.1v6.1h11.3v4.5h-16.5v-25.5h16.5Zm-29.2 0c6 0 9.1 2.9 9.1 8.9c0 5.9-3.1 9.2-9.1 9.2h-4.2v7.4h-5.2v-25.5h9.4Zm170.3 0v25.5h-5.2v-25.5h5.2Zm-8.5 0v4.6h-6.7v20.9h-5.2v-20.9h-6.8v-4.6h18.7Zm-22 0v25.5h-5.1v-25.5h5.1Zm-164.2 21.5c-4.2 0-5.2-2.7-5.2-8.6c0-5.9 1-8.8 5.2-8.8c4.2 0 5.3 2.9 5.3 8.8c0 5.9-1.1 8.6-5.3 8.6Zm123.7 0c-4.2 0-5.3-2.7-5.3-8.6c0-5.9 1.1-8.8 5.3-8.8c4.2 0 5.2 2.9 5.2 8.8c0 5.9-1 8.6-5.2 8.6Zm86 0c-4.2 0-5.3-2.7-5.3-8.6c0-5.9 1.1-8.8 5.3-8.8c4.2 0 5.2 2.9 5.2 8.8c0 5.9-1 8.6-5.2 8.6Zm-333.8-3.3h-36.5c-1.4 0-2.7-1-3.1-2.3c-0.5-1.8 .8-4 2.9-4.1c.1-0.1 .1-0.1 .2-0.1c12.2 0 24.3-0.1 36.5 0c1.7 .1 3.1 1.5 3.2 3.2c.1 1.6-1.3 3.2-3.1 3.3h-0.1Zm-50.1-15.6c3.8 .1 7.5 3.3 7.7 7.4c.2 3.6-2.4 7.2-6.1 8c-2.5 .6-5.2-0.2-7.1-2c-1.8-1.7-2.7-4.4-2.3-7c.7-3.5 4-6.3 7.7-6.4c0 0 0 0 .1 0Zm198.6 11.1c2.6 0 3.8-1.6 3.8-4.8c0-3.2-1.3-4.5-3.8-4.5h-4.2v9.3h4.2Zm77.1 0c2.6 0 3.8-1.6 3.8-4.8c0-3.2-1.3-4.5-3.8-4.5h-4.2v9.3h4.2Zm-275.8-4.6c-0.6 0-1.2 .4-1.3 1c-0.2 1.1 1.1 2.3 2.2 1.3c.6-0.6 .5-1.8-0.3-2.2c-0.2-0.1-0.4-0.1-0.6-0.1Zm34.2 0h-20.5c-1.7 0-3.3-1.6-3.2-3.3c0-1.7 1.5-3.1 3.2-3.2c6.8 0 13.7 0 20.6 0c1.6 .1 3.1 1.5 3.1 3.2c.1 1.6-1.3 3.2-3.1 3.3h-0.1Zm16-13.7h-54.8c-1.7 0-3.2-1.6-3.2-3.4c.1-1.6 1.5-3 3.2-3.1c18.3 0 36.6-0.1 54.8 0c1.7 .1 3.1 1.5 3.2 3.1c.1 1.7-1.4 3.3-3.1 3.4h-0.1Zm-13.7-11.4h-6.8c-1.7 0-3.2-1.4-3.3-3.1c-0.1-1.6 1.3-3.3 3.1-3.4c0 0 .1 0 .2 0c2.2 0 4.5 0 6.8 0c2 .1 3.7 2.2 3.1 4.3c-0.4 1.2-1.7 2.2-3.1 2.2Zm-31.9 0h-9.2c-1.6 0-3.1-1.4-3.2-3.1c0 0 0-0.1 0-0.1v-9.2c0-1.6 1.4-3.1 3.1-3.2c.1 0 .1 0 .1 0c3.1 0 6.2 0 9.2 0c1.6 .1 3.2 1.4 3.2 3.2c0 0 0 0 0 0v9.2c0 2-1.6 3.2-3.2 3.2Zm15.9 0h-6.8c-1.7 0-3.2-1.4-3.2-3.1c-0.1-1.7 1.4-3.3 3.2-3.4c2.3 0 4.6 0 6.9 0c2 .1 3.7 2.2 3 4.3c-0.4 1.2-1.7 2.2-3.1 2.2Zm-19.2-9.1h-2.6v2.6h2.6v-2.6Zm48.9 0h-36.5c-1.3 0-2.5-0.8-3-2c-0.8-1.9 .6-4.4 2.9-4.5c0 0 0 0 .1 0c12.2 0 24.3-0.1 36.5 0c2.1 .1 3.6 2.2 3.1 4.1c-0.4 1.4-1.7 2.4-3.1 2.4Zm-27.4-29.7c-2.1 0-4 1.3-5.1 3c-0.6 1-1.6 1.6-2.7 1.6c-2.7 0-5.5 0-8.2 0c-0.7 0-1.3 .6-1.3 1.3c0 0 0 0 0 0v5.9h34.6c0-2 0-3.9 0-5.9c0 0 0 0 0-0.1c0-0.6-0.6-1.2-1.3-1.2c-2.7 0-5.4 0-8.2 0c-1.1 0-2.2-0.8-2.8-1.8c-1.1-1.6-3-2.8-4.9-2.8c-0.1 0-0.1 0-0.1 0Zm.1 2.7c1.6 0 3 1.3 3.1 2.9c.2 1.8-1.3 3.6-3.2 3.6c-1.7 0-3.2-1.6-3.2-3.4c0-1.6 1.4-3 3-3.1c.1 0 .2 0 .3 0Z"/></g></g></svg>