<svg xmlns="http://www.w3.org/2000/svg" xmlns:xlink="http://www.w3.org/1999/xlink" clip-rule="evenodd" fill-rule="evenodd" stroke-linejoin="round" stroke-miterlimit="1.4" viewBox="0 0 506 127" style="background: rgba(125,90,90,0.00);"><g transform="translate(52.2,63.6) translate(-52,-62.6)"/><rect id="_a0" width="10.2" height="10.2" fill="#c23c35" transform="translate(150.2,121.1) translate(0,0) translate(-5.1,-5.1)"/><rect id="_a1" width="10.2" height="10.2" fill="#c23c35" transform="translate(150.2,121.1) translate(0,0) translate(-5.1,-5.1)"/><rect id="_a2" width="10.2" height="10.2" fill="#c23c35" transform="translate(150.2,121.1) translate(0,0) translate(-5.1,-5.1)"/><path d="M-2511 2260.6v38.7c0 2-1.8 3.9-3.8 4c-2.1 .1-4.2-1.6-4.2-3.9c-0.1 0-0.1-0.1-0.1-0.1v-50.1h-1.6c0 0-1 0-1.7-0.4c-1.8-0.8-2.8-2.9-2.2-4.8c.5-1.6 2.1-2.8 3.8-2.9c0 0 0 0 .1 0h19.6c0 0 0-0.1-0.1-0.1c0-0.1 0-0.1 0-0.2c-0.5-1.3-0.7-2.7-0.7-4.1c-0.1-8.4-0.1-16.7 0-25.1c0-5.2 3.6-10.3 8.8-11.9c.1 0 .2-0.1 .3-0.1l4.9-1.4c-0.1 0-0.2 0-0.3 0c-1.9-0.6-3.7-1.1-5.6-1.8c-0.2-0.1-0.4-0.2-0.6-0.3c-2.9-1.4-4.5-5.1-3.5-8.3c2.4-7.1 3.9-14.6 4.5-22.1c.4-5.6 2.3-11.1 5.8-15.4c4.4-5.6 11.4-9.1 18.7-9c6.5 .2 12.8 3.2 17.1 8.1c3.8 4.5 6 10.3 6.4 16.1c.5 6.2 1.6 12.3 3.2 18.3c.4 1.4 .9 2.7 1.3 4.1c1 3.2-0.7 7.1-4 8.5c-1.9 .7-3.9 1.3-5.9 1.8c1.6 .5 3.2 1 4.9 1.4c5 1.5 8.9 6.3 9.1 11.7c0 .1 0 .2 0 .3c0 8.4 0 16.7 0 25.1c0 1.5-0.3 3-0.9 4.4c0 0 9.9 0 9.9 0c0-7.2 0-14.4 0-21.6c0-3.2 2.5-6.2 5.7-6.8c0-1.6 .1-3.2 .6-4.7c1.2-3.9 4.4-7.2 8.5-8.4c3.2-0.9 6.4-1.8 9.7-2.7c.7-0.3 1.2-0.9 1.2-1.6v-1.8c-0.1 0-0.1 0-0.2-0.1c-5.3-4.2-8.4-10.7-8.4-17.4v-4c-0.7-1.4-1.4-2.7-1.9-4.1c-0.4-1.2-0.7-2.4-0.9-3.6c-0.9-8.3 4.5-16.8 13-19.4c1.7-0.4 3.4-0.7 5.1-0.7c8.6-0.1 17.2 0 25.8 0c.1 0 .1 0 .1 0c2.1 .1 3.9 1.8 4 4c0 4.6 0 9.2 0 13.8c-0.1 2.8-0.7 5.6-1.9 8.1h-0.1l-0.9 1.9c0 2.4 .1 4.8-0.1 7.1c-0.6 5.7-3.8 11.1-8.4 14.6c0 .7-0.2 1.5 0 2.1c.2 .5 .6 .9 1.1 1.1c3.3 .9 6.5 1.8 9.7 2.7c5.1 1.5 8.9 6.3 9.1 11.7c0 .1 0 .2 0 .3c0 8.4 0 16.7 0 25.1c0 1.5-0.3 3-0.8 4.4c0 0 13.9 0 13.9 0c0 0 1 .1 1.7 .4c2 1 3 3.8 1.7 5.8c-0.7 1.2-2 1.9-3.4 1.9h-1.7v50.1c0 0 0 .8-0.2 1.4c-0.8 2-3.3 3.1-5.3 2.3c-1.5-0.5-2.5-2.1-2.5-3.7v-38.7h-94.6v38.7c0 2.1-1.9 4-4 4c-2.1 .1-4.1-1.8-4.1-4v-33h-26.2v33c0 2-1.7 3.9-3.8 4c-2.1 .1-4.2-1.7-4.2-4v-38.7h-20.5Zm30.2-39.9c-0.9 0-1.7 .8-1.7 1.7v35.9h26.2c0-12 .2-24 0-36c0-0.8-0.8-1.6-1.7-1.6c-7.6-0.1-15.2 0-22.8 0Zm-9.7 28.5h-20.5v3.4h20.5v-3.4Zm136.8 0h-94.5v3.4h94.5v-3.4Zm-26.1-11.4v3.3c3.4 0 6.8 .1 10.3 0c2.3 0 4.4-2 4.4-4.4c.1-8.4 .1-16.7 0-25c0-1.9-1.3-3.7-3.2-4.3c-3.2-1-6.5-1.9-9.7-2.8c-0.6-0.2-1.1-0.4-1.7-0.6c0 0-0.9 .9-0.9 .9c-2.9 2.8-7.1 4.2-11.1 3.5c-2.5-0.4-4.9-1.7-6.7-3.5l-1-1c-0.1 .1-0.1 .1-0.1 .1c-0.5 .3-1.1 .5-1.6 .6c-3.2 .9-6.5 1.8-9.7 2.8c-1.8 .5-3.2 2.3-3.2 4.3v.9c9.1 0 18.2 0 27.4 0c3.5 .1 6.7 3 6.8 6.7c0 0 0 .1 0 .2v10.2h3.3v-13c0-2.1 1.8-4 4-4.1c0 0 0 0 .2 0c2 .1 3.9 1.9 3.9 4c0 5.7 0 11.5 0 17.2c0 .2 0 .3 0 .4c-0.2 2-2 3.6-4 3.6h-7.4Zm-8.1-17.1h-31.8v20.4h31.8v-20.4Zm-70-8.1c4 .1 7.8 2.8 9.1 6.5c.4 1.1 .6 2.2 .6 3.3v18.6c1.8-0.5 3.3-2.3 3.3-4.3c0-8.4 0-16.7 0-25c0-2-1.4-3.8-3.3-4.3c-3.2-0.9-6.4-1.9-9.6-2.8c-2.3-0.6-4.3-2.1-5.6-4.1c-4 .3-8 .3-12 0c0 0 .1-0.1-0.2 .3c-1.3 1.8-3.2 3.2-5.3 3.8c-3.3 .9-6.5 1.8-9.7 2.8c-1.9 .5-3.3 2.3-3.3 4.3c0 8.3 0 16.6 0 25c0 1.9 1.4 3.7 3.3 4.3h.1v-18.6c0-4 2.6-7.8 6.4-9.2c1-0.4 2.1-0.6 3.2-0.6c7.7 0 15.3 0 22.9 0c.1 0 .1 0 .1 0Zm54.1 14.2c1.9 .1 3.6 1.5 3.9 3.4c.4 2.3-1.5 4.7-4 4.7c-1.9 0-3.7-1.5-4-3.5c-0.3-2.2 1.6-4.5 4-4.6c0 0 0 0 .1 0Zm9.5-29.4c0 .1-0.1 .2-0.1 .2c1.3 1.3 2.5 2.7 4.4 2.9c1.4 .1 2.7-0.4 3.7-1.3l1.6-1.6c0 0-0.1-0.1-0.1-0.1c0-0.2-0.1-0.1-0.2-0.1c-3 .7-6.2 .7-9.3-0.1c0 0 0 .1 0 .1Zm-75.1-48c-4.8 0-9.4 2.4-12.3 6.4c-2.2 2.9-3.4 6.6-3.6 10.3c-0.7 7.9-2.1 15.7-4.5 23.1c10.3 3.5 21.5 4.4 32.3 2.3c2.9-0.6 5.7-1.3 8.5-2.3c-2.2-6.8-3.6-14.2-4.3-21.4c-0.1-1.4-0.2-2.9-0.5-4.3c-1.1-6-5-11.6-11.2-13.5c-1.4-0.4-2.9-0.6-4.4-0.6Zm95.8 2.9h-21.6c-4.1 0-8.1 2.7-9.6 6.5c-0.9 2.3-1 4.9 .1 7.1c.6 1.2 1.2 2.3 1.7 3.5c.3 .5 .4 1.1 .4 1.6c0 2.5-0.2 5 .2 7.3c1 6.2 6.4 11.7 13.2 11.5c4.9-0.1 9.7-3.3 11.7-7.9c.7-1.6 1-3.3 1-5.1c0-1.9 0-3.9 0-5.8c0-0.6 .2-1.2 .4-1.7c.7-1.4 1.5-2.8 2-4.2c.3-1 .5-2.1 .5-3.1v-9.7Zm-24.4 6.1c5.5 .1 11 .5 16.2 2.3c1.8 .6 3.8 1.3 4.5 3.1c.7 1.6 .2 3.7-1.3 4.8c-1.2 .9-3 .9-4.4 .2c-2.8-1.2-5.9-1.6-9-1.9c-2-0.2-4.1-0.4-6.1-0.4c0 0-0.9 0-1.5-0.3c-2-0.8-3-3.2-2.3-5.2c.7-1.5 2.3-2.6 3.9-2.6Z" fill="#c23c35" transform="translate(1709.6,-1434) scale(.677,.677)"/><script xlink:href="/jvg/keyshape.js"/><script><![CDATA[if(KeyshapeJS.version.indexOf('1.')!=0)throw Error('Expected KeyshapeJS v1.*.*');window.ks=document.ks=KeyshapeJS;(function(ks){
ks.animate("#_a0",[{p:'mpath',t:[0,1000],v:['0%','100%'],e:[[1,.8,0,.2,1],[0]],mp:"M150.2,121.1L213,121.1"}],
"#_a1",[{p:'mpath',t:[0,1000],v:['0%','100%'],e:[[1,.8,0,.2,1],[0]],mp:"M150.2,121.1L356.9,121.1"}],
"#_a2",[{p:'mpath',t:[0,1000],v:['0%','100%'],e:[[1,.8,0,.2,1],[0]],mp:"M150.2,121.1L498.9,121.1"}],
{autoremove:false}).range(0,1000);
if(document.location.search.substr(1).split('&').indexOf('global=paused')>=0)ks.globalPause()})(KeyshapeJS);
]]></script></svg>