<svg xmlns="http://www.w3.org/2000/svg" xmlns:xlink="http://www.w3.org/1999/xlink" clip-rule="evenodd" fill-rule="evenodd" stroke-linejoin="round" stroke-miterlimit="1.4" viewBox="0 0 506 127" style="background: rgba(125,90,90,0.00);"><g transform="translate(52.2,63.6) translate(-52,-62.6)"/><rect id="_a0" width="10.2" height="10.2" fill="#c23c35" transform="translate(150.2,121.1) translate(0,0) translate(-5.1,-5.1)"/><rect id="_a1" width="10.2" height="10.2" fill="#c23c35" transform="translate(150.2,121.1) translate(0,0) translate(-5.1,-5.1)"/><rect id="_a2" width="10.2" height="10.2" fill="#c23c35" transform="translate(150.2,121.1) translate(0,0) translate(-5.1,-5.1)"/><path d="M-2485.3 156.5c2.4 0 4.6 2.1 4.6 4.6c0 3.8 0 7.7 0 11.5c0 1.3 1.1 2.5 2.5 2.5c42.2 .1 84.5 .4 126.7 0c1.3 0 2.4-1.1 2.5-2.5c.1-53.6 .5-107.2 0-160.8c-0.1-1.3-1.2-2.5-2.5-2.5c-42.3-0.4-84.5-0.4-126.7 0c-1.3 0-2.5 1.1-2.5 2.5c0 4 0 8.1 0 12.1c0 1.8-1.2 3.6-2.9 4.3c-2.7 1-6.3-1-6.3-4.3c0-4 0-8.1 0-12.1c0-4.9 3.3-9.5 7.9-11.1c1.2-0.4 2.4-0.6 3.7-0.6c42.3-0.2 84.5 0 126.8 0c3.6 0 7.2 1.8 9.4 4.7c1.4 2 2.2 4.4 2.3 6.9c.1 53.6 0 107.3 0 160.9c0 3.6-1.8 7.1-4.6 9.3c-2 1.5-4.5 2.4-7.1 2.4c-42.2 .2-84.5 0-126.7 0c-4.8 0-9.5-3.2-11.1-7.9c-0.4-1.2-0.6-2.5-0.6-3.7c0-3.9 0-7.8 0-11.6c0-2.4 2-4.6 4.5-4.6c.1 0 .1 0 .1 0Zm56.3-142.2c10.7 0 21.4 3.2 30.4 9c10.8 6.9 19.1 17.7 23.1 29.9c4.6 14 3.4 29.9-3.3 43.1c-7.9 15.4-23 26.9-40.3 30c-12.6 2.2-25.9 .1-37-6c-0.3-0.2-0.6-0.3-0.9-0.5l-0.1-0.1c-14 13.9-27.8 27.9-41.8 41.7c-2.3 2.3-5.5 3.8-8.7 4.2c-6.3 .7-12.8-2.9-15.3-9c-2.3-5.3-1.1-11.8 3.1-16.1c7.1-7.1 14.1-14.2 21.2-21.2c1.3-1.3 3.4-1.7 5-1c2.7 1.2 3.8 5.1 1.5 7.5c-7 7.1-14.1 14.1-21.1 21.2c-1.6 1.5-2.1 4-1.2 6.1c.9 2.1 3.2 3.5 5.6 3.4c1.3-0.1 2.5-0.7 3.5-1.7l40.4-40.4c-14.6-12-22.3-30.9-20.3-49.6c1.1-10.6 5.3-20.9 12-29.3c6.6-8.3 15.6-14.7 25.7-18.1c5.9-2.1 12.1-3.1 18.3-3.1c.1 0 .1 0 .2 0Zm45.8 141.6c2.4 0 4.5 2.1 4.6 4.4c.1 2.5-2 4.8-4.6 4.8c-23.6 .1-47.3 .1-70.9 0c-1.8 0-3.6-1.2-4.2-2.9c-0.9-2.2 .3-5.1 2.6-6c.5-0.2 1.1-0.3 1.6-0.3c23.6-0.1 47.3-0.1 70.9 0Zm14.6 0c2.5 0 4.8 2.5 4.5 5.1c-0.2 1.7-1.3 3.1-2.8 3.8c-2.1 .8-4.7-0.1-5.8-2c-1.2-2.2-0.3-5.4 2.1-6.5c.6-0.3 1.3-0.4 2-0.4Zm0-18.5c1.9 0 3.8 1.4 4.4 3.3c.7 2.7-1.4 5.9-4.4 5.9c-28.5 .1-57 .1-85.5 0c-1.8 0-3.6-1.2-4.2-2.9c-0.9-2.2 .3-5.1 2.6-6c.5-0.2 1.1-0.3 1.6-0.3c28.5-0.1 57-0.1 85.5 0Zm-60.6-113.9c-10.3 0-20.6 3.5-28.7 9.8c-9.1 7-15.5 17.4-17.6 28.7c-2.1 10.8-0.2 22.3 5.3 32c6.6 11.7 18.3 20.3 31.7 23c11.6 2.4 24 .2 34.1-6c12-7.5 20.5-20.4 22.2-34.8c1.5-13.2-2.8-27-11.8-37c-8.6-9.6-21.1-15.4-34.2-15.7c-0.3 0-0.7 0-1 0Zm-54.9 83.3c2.5 0 4.8 2.4 4.5 5c-0.1 1.6-1.3 3.2-2.8 3.8c-2.1 .9-4.7 0-5.8-1.9c-0.9-1.8-0.7-4.1 .7-5.5c.9-0.9 2.1-1.4 3.3-1.4c0 0 0 0 .1 0Zm55.1-75.5c8.9 0 17.9 3.2 24.9 8.9c9.7 8 15.4 20.9 14.3 33.8c-0.8 9.6-5.3 18.8-12.2 25.4c-0.6 .6-1.3 1.2-2 1.7c-6.9 5.8-15.8 9-24.9 9.1c-9.8 0-19.5-3.7-26.8-10.4c-0.1 0-0.2-0.1-0.3-0.2c-7.1-6.7-11.8-16.1-12.5-26c-0.7-10.1 2.6-20.4 9.1-28.1c7.2-8.6 18.2-14 29.5-14.2c.3 0 .6 0 .9 0Zm-0.2 53.4c-7 0-13.8 3.7-17.6 9.7c-0.1 .3-0.3 .6-0.3 .6c7.6 5.7 18 7.4 27.1 4.6c3.2-1.1 6.2-2.6 8.9-4.6c-3.5-6-10.2-10-17.2-10.3c-0.3 0-0.6 0-0.9 0Zm0-44.2c-8.9 .1-17.6 4.2-23.3 11.1c-2.8 3.4-4.9 7.5-5.9 11.8c-2.2 8.4-0.5 17.6 4.6 24.8h.1c3-4.3 7.1-7.7 11.9-9.9c0 0 .2 .1-0.2-0.3c-1.8-2.6-2.8-5.7-2.8-8.9c0-1.8-0.1-3.5 .2-5.2c1-6.6 6.6-12.3 13.4-13.2c3.3-0.4 6.6 .2 9.5 1.8c4.9 2.6 8.2 8 8.2 13.7c.1 2.4 .1 4.9-0.6 7.2c-0.5 1.7-1.3 3.3-2.3 4.8h-0.1c4.8 2.3 9 5.7 12 10c5.1-7.2 6.9-16.6 4.6-25.3c-3.3-12.2-14.7-21.8-27.9-22.4c-0.4 0-0.9 0-1.4 0Zm.1 19.3h-0.1c-3.3 .1-6.3 2.9-6.4 6.4c0 1.9-0.1 3.8 .6 5.5c1 2.1 3.2 3.7 5.6 3.8c3.4 .1 6.7-2.8 6.7-6.4c0-1.7 .2-3.4-0.3-5c-0.9-2.4-3.4-4.2-6.1-4.3Z" fill="#c23c35" fill-rule="nonzero" transform="translate(1709.7,.6) scale(.677,.677)"/><script xlink:href="/jvg/keyshape.js"/><script><![CDATA[if(KeyshapeJS.version.indexOf('1.')!=0)throw Error('Expected KeyshapeJS v1.*.*');window.ks=document.ks=KeyshapeJS;(function(ks){
ks.animate("#_a0",[{p:'mpath',t:[0,1000],v:['0%','100%'],e:[[1,.8,0,.2,1],[0]],mp:"M150.2,121.1L213,121.1"}],
"#_a1",[{p:'mpath',t:[0,1000],v:['0%','100%'],e:[[1,.8,0,.2,1],[0]],mp:"M150.2,121.1L356.9,121.1"}],
"#_a2",[{p:'mpath',t:[0,1000],v:['0%','100%'],e:[[1,.8,0,.2,1],[0]],mp:"M150.2,121.1L498.9,121.1"}],
{autoremove:false}).range(0,1000);
if(document.location.search.substr(1).split('&').indexOf('global=paused')>=0)ks.globalPause()})(KeyshapeJS);
]]></script></svg>