<?xml version="1.0" encoding="UTF-8" standalone="no"?><!DOCTYPE svg PUBLIC "-//W3C//DTD SVG 1.1//EN" "http://www.w3.org/Graphics/SVG/1.1/DTD/svg11.dtd"><svg width="100%" height="100%" viewBox="0 0 1896 1050" version="1.1" xmlns="http://www.w3.org/2000/svg" xmlns:xlink="http://www.w3.org/1999/xlink" xml:space="preserve" xmlns:serif="http://www.serif.com/" style="fill-rule:evenodd;clip-rule:evenodd;stroke-linejoin:round;stroke-miterlimit:1.41421;"><g id="Artboard2" transform="matrix(0.802544,0,0,1,0.412555,-0.0189455)"><rect x="-0.514" y="0.019" width="2361.88" height="1049.84" style="fill:none;"/><clipPath id="_clip1"><rect x="-0.514" y="0.019" width="2361.88" height="1049.84"/></clipPath><g clip-path="url(#_clip1)"><g id="Artboard1" transform="matrix(1.24604,0,0,1,-310.997,-718.981)"><rect x="0" y="719" width="2362.21" height="1046" style="fill:none;"/><g transform="matrix(1,0,0,1,0,40.7369)"><g transform="matrix(0,456.082,456.082,0,560.567,982.307)"><path d="M-0.033,-0.189L0.988,-0.651L0.988,-0.267L0.988,-0.268C0.773,-0.17 0.523,-0.072 0.257,-0.072C0.316,-0.013 0.38,0.037 0.448,0.079C0.426,0.131 0.4,0.182 0.369,0.231C0.437,0.213 0.504,0.181 0.564,0.14C0.699,0.201 0.843,0.231 0.988,0.231L0.988,0.23L0.988,0.651L-0.033,0.189L-0.033,-0.189ZM0.988,-0.116L0.988,-0.117L0.988,0.102L0.988,0.101C0.868,0.095 0.745,0.057 0.646,-0.008C0.769,-0.028 0.884,-0.071 0.988,-0.116Z" style="fill:url(#_Linear2);fill-rule:nonzero;"/></g><g transform="matrix(7.15481,0,0,7.15481,1051.43,1080.56)"><path d="M0,10.693L13.824,10.693L8.263,-9.612L5.563,-9.612L0,10.693ZM2.431,-13.446L11.557,-13.446L21.654,24.086L17.551,24.086L14.689,14.689L-0.971,14.689L-3.672,24.139L-7.83,24.139L2.431,-13.446Z" style="fill:rgb(206,23,30);fill-rule:nonzero;"/></g><g transform="matrix(7.15481,0,0,7.15481,1403.79,1221.98)"><path d="M0,-28.945C0,-28.945 -7.452,-29.809 -10.584,-29.809C-15.877,-29.809 -18.738,-28.081 -18.738,-23.869C-18.738,-18.955 -16.146,-18.145 -9.559,-16.687C-2.105,-15.013 1.188,-13.176 1.188,-6.481C1.188,1.619 -3.402,4.86 -10.908,4.86C-15.012,4.86 -22.41,3.725 -22.41,3.725L-21.979,-0.054C-21.979,-0.054 -14.797,0.864 -10.963,0.864C-5.67,0.864 -3.023,-1.134 -3.023,-6.319C-3.023,-10.531 -5.238,-11.718 -11.34,-12.907C-19.063,-14.581 -22.896,-16.417 -22.896,-23.761C-22.896,-30.781 -18.198,-33.805 -10.584,-33.805C-6.426,-33.805 0.378,-32.725 0.378,-32.725L0,-28.945Z" style="fill:rgb(206,23,30);fill-rule:nonzero;"/></g><g transform="matrix(7.15481,0,0,7.15481,1556.4,1102.97)"><path d="M0,4.429C5.454,4.429 7.723,1.027 7.723,-4.535C7.723,-10.044 5.454,-12.582 0,-12.582L-9.45,-12.582L-9.45,4.429L0,4.429ZM-9.45,8.425L-9.45,21.007L-13.608,21.007L-13.608,-16.578L0.055,-16.578C8.208,-16.578 11.988,-12.689 11.988,-4.535C11.988,3.618 8.208,8.425 0.055,8.425L-9.45,8.425Z" style="fill:rgb(206,23,30);fill-rule:nonzero;"/></g><g transform="matrix(7.15481,0,0,7.15481,1688.53,1253.27)"><path d="M0,-37.585L22.68,-37.585L22.68,-33.643L4.104,-33.643L4.104,-20.952L19.439,-20.952L19.439,-17.064L4.104,-17.064L4.104,-3.942L22.68,-3.942L22.68,0L0,0L0,-37.585Z" style="fill:rgb(206,23,30);fill-rule:nonzero;"/></g><g transform="matrix(7.15481,0,0,7.15481,1899.09,1253.27)"><path d="M0,-37.585L7.451,-37.585L22.355,-4.86L23.544,-4.86L23.544,-37.585L27.702,-37.585L27.702,0L20.412,0L5.292,-32.725L4.158,-32.725L4.158,0L0,0L0,-37.585Z" style="fill:rgb(206,23,30);fill-rule:nonzero;"/></g><g transform="matrix(7.15481,0,0,7.15481,1048.35,1417.19)"><path d="M0,-5.919C0,-5.919 -2.52,-6.255 -3.779,-6.255C-5.019,-6.255 -5.522,-5.982 -5.522,-5.185C-5.522,-4.534 -5.082,-4.366 -3.339,-4.093C-0.567,-3.651 0.356,-2.917 0.356,-0.839C0.356,1.618 -1.239,2.52 -3.822,2.52C-5.313,2.52 -7.748,2.06 -7.748,2.06L-7.664,0.022C-7.664,0.022 -5.123,0.358 -4.053,0.358C-2.583,0.358 -2.037,0.064 -2.037,-0.775C-2.037,-1.447 -2.373,-1.636 -4.053,-1.909C-6.74,-2.351 -7.916,-2.939 -7.916,-5.122C-7.916,-7.515 -6.047,-8.439 -3.947,-8.439C-2.415,-8.439 0.041,-7.956 0.041,-7.956L0,-5.919Z" style="fill:rgb(108,110,112);fill-rule:nonzero;"/></g><g transform="matrix(7.15481,0,0,7.15481,1289.06,1398.11)"><path d="M0,-3.359L0,0.924C0,2.373 0.041,2.918 1.092,2.918C1.68,2.918 2.792,2.856 2.792,2.856L2.896,4.913C2.896,4.913 1.49,5.207 0.756,5.207C-1.659,5.207 -2.395,4.284 -2.395,1.26L-2.395,-3.359L-3.717,-3.359L-3.717,-5.521L-2.395,-5.521L-2.395,-8.566L0,-8.566L0,-5.521L2.834,-5.521L2.834,-3.359L0,-3.359Z" style="fill:rgb(108,110,112);fill-rule:nonzero;"/></g><g transform="matrix(7.15481,0,0,7.15481,1548.69,1390.91)"><path d="M0,1.427C-0.903,1.511 -1.387,1.909 -1.387,2.771C-1.387,3.653 -1.008,4.136 -0.315,4.136C0.797,4.136 2.309,3.716 2.309,3.716L2.309,1.301L0,1.427ZM4.703,3.107C4.724,3.841 4.955,4.052 5.563,4.156L5.479,6.193C3.842,6.193 3.296,5.941 2.666,5.458C2.666,5.458 0.86,6.193 -0.756,6.193C-2.751,6.193 -3.801,4.912 -3.801,2.833C-3.801,0.587 -2.563,-0.19 -0.295,-0.358L2.309,-0.567L2.309,-1.198C2.309,-2.016 1.805,-2.458 1.008,-2.458C-0.547,-2.458 -3.045,-2.268 -3.045,-2.268L-3.129,-4.305C-3.129,-4.305 -0.42,-4.766 1.133,-4.766C3.443,-4.766 4.703,-3.802 4.703,-1.219L4.703,3.107Z" style="fill:rgb(108,110,112);fill-rule:nonzero;"/></g><g transform="matrix(7.15481,0,0,7.15481,1822.74,1326.01)"><path d="M0,15.033L-2.394,15.033L-2.394,6.719L-3.591,6.719L-3.591,4.556L-2.394,4.556L-2.394,3.905C-2.394,0.882 -1.638,0 0.588,0C1.28,0 2.876,0.23 2.876,0.23L2.855,2.205C2.855,2.205 1.848,2.162 1.196,2.162C0.272,2.162 0,2.582 0,3.926L0,4.556L2.708,4.556L2.708,6.719L0,6.719L0,15.033Z" style="fill:rgb(108,110,112);fill-rule:nonzero;"/></g><g transform="matrix(7.15481,0,0,7.15481,2078.17,1326.01)"><path d="M0,15.033L-2.394,15.033L-2.394,6.719L-3.59,6.719L-3.59,4.556L-2.394,4.556L-2.394,3.905C-2.394,0.882 -1.638,0 0.588,0C1.281,0 2.877,0.23 2.877,0.23L2.855,2.205C2.855,2.205 1.848,2.162 1.197,2.162C0.273,2.162 0,2.582 0,3.926L0,4.556L2.709,4.556L2.709,6.719L0,6.719L0,15.033Z" style="fill:rgb(108,110,112);fill-rule:nonzero;"/></g></g></g></g></g><defs><linearGradient id="_Linear2" x1="0" y1="0" x2="1" y2="0" gradientUnits="userSpaceOnUse" gradientTransform="matrix(1,0,0,1,0,-2.89247e-05)"><stop offset="0" style="stop-color:rgb(239,65,54);stop-opacity:1"/><stop offset="1" style="stop-color:rgb(192,19,36);stop-opacity:1"/></linearGradient></defs></svg>