<?xml version="1.0" encoding="UTF-8"?>
<svg version="1.1" viewBox="0 0 1135 1046" xmlns="http://www.w3.org/2000/svg" xmlns:xlink="http://www.w3.org/1999/xlink">
    <!--Generated by IJSVG (https://github.com/iconjar/IJSVG)-->
    <g transform="matrix(0.480147,0,0,1,0,-719)">
        <path fill="none" fill-rule="evenodd" d="M0,719h2362.21v1046h-2362.21Z"></path>
        <path fill="#000" d="M-0.033,-0.189l1.021,-0.462v0.384v-0.001c-0.215,0.098 -0.465,0.196 -0.731,0.196c0.059,0.059 0.123,0.109 0.191,0.151c-0.022,0.052 -0.048,0.103 -0.079,0.152c0.068,-0.018 0.135,-0.05 0.195,-0.091c0.135,0.061 0.279,0.091 0.424,0.091v-0.001v0.421l-1.021,-0.462v-0.378Zm1.021,0.073v-0.001v0.219v-0.001c-0.12,-0.006 -0.243,-0.044 -0.342,-0.109c0.123,-0.02 0.238,-0.063 0.342,-0.108Z" transform="matrix(0,456.082,949.879,0,1181.12,1024.25)"></path>
    </g>
</svg>