<svg xmlns="http://www.w3.org/2000/svg" clip-rule="evenodd" fill-rule="evenodd" stroke-linejoin="round" stroke-miterlimit="1.4" viewBox="0 0 1065 301"><defs><clipPath id="ClipPath-1"><rect width="487" height="301"/></clipPath></defs><g transform="translate(0,-371)"><g clip-path="url(#ClipPath-1)" transform="translate(0,371) scale(2.187,1)"><rect width="487" height="301" fill="none"/><g transform="translate(88,0)"><g transform="translate(274.6,5.2) scale(.961,2.101)"><path d="M0 138.3h.1c.5 0 1 .2 1.5 .4c.3 .1 .6 .3 .9 .3c.2 0 .5-0.2 .8-0.3c.5-0.2 1-0.4 1.5-0.4h.1c.5 0 1 .2 1.4 .3c.4 .1 .7 .2 .9 .2c.3 0 .6-0.1 .9-0.3c.4-0.2 .9-0.4 1.4-0.5c.6 0 1.1 .1 1.6 .2c.3 .1 .6 .2 .9 .1c.2 0 .5-0.2 .8-0.3c.4-0.3 .9-0.5 1.4-0.6c.5-0.1 1.1 0 1.5 .1c.4 0 .7 .1 1 0c.2 0 .5-0.2 .8-0.4c.4-0.3 .8-0.6 1.3-0.7c.5-0.1 1.1-0.1 1.6 0c.3 0 .7 .1 .9 0c.2-0.1 .5-0.3 .8-0.5c.3-0.3 .8-0.6 1.3-0.8c.4-0.1 .8-0.1 1.1-0.1c.1 0 .3 0 .4 0c.1 0 .3 0 .4 0c.2 0 .4 0 .5 0c.3-0.1 .5-0.3 .8-0.6c.3-0.3 .7-0.6 1.2-0.8c.6-0.2 1.1-0.3 1.6-0.3c.3 0 .7 0 .9-0.1c.2-0.1 .4-0.3 .7-0.6c.3-0.3 .7-0.7 1.2-0.9c.5-0.3 1-0.3 1.5-0.4c.3 0 .7 0 .9-0.1c.2-0.1 .4-0.4 .6-0.7c.3-0.3 .7-0.7 1.2-1c.5-0.3 1-0.4 1.4-0.4c.4-0.1 .7-0.2 .9-0.3c.2-0.1 .4-0.4 .6-0.7c.3-0.3 .6-0.8 1.1-1.1c.5-0.3 1-0.4 1.4-0.5c.4-0.1 .7-0.2 .9-0.3c.2-0.1 .4-0.4 .6-0.7c.2-0.4 .5-0.9 1-1.2c.4-0.3 .9-0.5 1.4-0.6c.3-0.1 .6-0.2 .8-0.4c.2-0.1 .4-0.4 .5-0.7c.3-0.4 .5-0.9 .9-1.3c.4-0.3 .9-0.5 1.4-0.7c.3-0.1 .6-0.3 .8-0.4c.2-0.2 .3-0.5 .5-0.8c.2-0.4 .4-0.9 .8-1.3c.4-0.4 .9-0.6 1.3-0.8c.3-0.2 .6-0.3 .8-0.5c.1-0.2 .3-0.5 .4-0.8c.2-0.4 .3-0.9 .7-1.4c.4-0.4 .8-0.6 1.2-0.9c.4-0.1 .7-0.3 .8-0.5c.1-0.2 .3-0.5 .4-0.8c.1-0.5 .3-1 .6-1.4c.3-0.5 .8-0.7 1.2-1c.3-0.2 .6-0.4 .7-0.6c.1-0.2 .2-0.5 .3-0.8c.1-0.5 .2-1 .5-1.5c.3-0.4 .7-0.8 1.1-1c.3-0.3 .6-0.5 .7-0.7c.1-0.2 .2-0.5 .2-0.8c.1-0.5 .2-1 .5-1.5c.3-0.5 .7-0.8 1-1.1c.3-0.3 .5-0.5 .6-0.7c.2-0.2 .2-0.6 .2-0.9c.1-0.5 .1-1 .4-1.5c.2-0.5 .6-0.9 .9-1.2c.3-0.3 .5-0.5 .6-0.7c.1-0.2 .1-0.6 .1-0.9c0-0.5 0-1 .2-1.5c.2-0.6 .6-0.9 .9-1.3c.2-0.3 .5-0.5 .5-0.7c.1-0.3 .1-0.6 .1-1c0-0.4 0-1 .1-1.5c.2-0.5 .5-0.9 .8-1.3c.2-0.3 .4-0.6 .5-0.8c0-0.2 0-0.6 0-0.9c-0.1-0.5-0.1-1 0-1.5c.1-0.6 .4-1 .7-1.4c.2-0.3 .4-0.6 .4-0.8c.1-0.3 0-0.6-0.1-0.9c0-0.5-0.1-1 0-1.6c0-0.5 .3-1 .5-1.4c.2-0.3 .4-0.6 .4-0.8c0-0.3 0-0.6-0.1-0.9c-0.1-0.5-0.3-1-0.2-1.6c0-0.5 .3-1 .5-1.4c.1-0.3 .3-0.6 .3-0.9c0-0.2-0.1-0.5-0.2-0.9c-0.1-0.4-0.3-0.9-0.3-1.5c0-0.5 .2-1 .4-1.4c.1-0.4 .3-0.7 .3-0.9c0-0.3-0.2-0.6-0.3-0.9c-0.2-0.5-0.4-1-0.4-1.5c0-0.6 .2-1.1 .3-1.5c.1-0.3 .2-0.7 .2-0.9c0-0.2-0.2-0.5-0.3-0.9c-0.2-0.4-0.5-0.9-0.5-1.4c-0.1-0.6 .1-1.1 .2-1.5c.1-0.4 .1-0.7 .1-0.9c0-0.3-0.2-0.6-0.4-0.9c-0.2-0.4-0.5-0.9-0.5-1.4c-0.1-0.5 0-1.1 0-1.5c.1-0.4 .2-0.7 .1-0.9c0-0.3-0.2-0.6-0.4-0.9c-0.3-0.4-0.6-0.8-0.7-1.3c-0.1-0.6-0.1-1.1 0-1.6c0-0.3 0-0.7 0-0.9c-0.1-0.2-0.3-0.5-0.5-0.8c-0.3-0.3-0.6-0.8-0.8-1.3c-0.1-0.5-0.1-1-0.1-1.5c0-0.4 0-0.7-0.1-0.9c0-0.2-0.3-0.5-0.5-0.8c-0.3-0.3-0.7-0.7-0.9-1.2c-0.2-0.5-0.2-1.1-0.2-1.5c0-0.4 0-0.7-0.1-1c-0.1-0.2-0.3-0.4-0.6-0.7c-0.3-0.3-0.7-0.7-0.9-1.2c-0.3-0.5-0.3-1-0.4-1.5c0-0.3 0-0.6-0.2-0.9c-0.1-0.2-0.3-0.4-0.6-0.6c-0.3-0.3-0.7-0.7-1-1.2c-0.3-0.4-0.4-1-0.5-1.4c0-0.4-0.1-0.7-0.2-0.9c-0.1-0.2-0.4-0.4-0.7-0.6c-0.4-0.3-0.8-0.6-1.1-1.1c-0.3-0.5-0.4-1-0.5-1.4c-0.1-0.4-0.2-0.7-0.3-0.9c-0.1-0.2-0.4-0.4-0.7-0.6c-0.4-0.2-0.9-0.5-1.2-1c-0.3-0.4-0.5-0.9-0.6-1.3c-0.1-0.4-0.3-0.7-0.4-0.9c-0.1-0.2-0.4-0.3-0.8-0.5c-0.4-0.2-0.8-0.5-1.2-0.9c-0.3-0.4-0.5-0.9-0.7-1.4c-0.1-0.3-0.3-0.6-0.4-0.8c-0.2-0.2-0.5-0.3-0.8-0.5c-0.4-0.2-0.9-0.4-1.3-0.8c-0.4-0.4-0.6-0.8-0.8-1.3c-0.2-0.3-0.3-0.6-0.5-0.8c-0.2-0.1-0.5-0.2-0.8-0.4c-0.5-0.1-1-0.3-1.4-0.7c-0.4-0.4-0.6-0.8-0.9-1.2c-0.1-0.3-0.3-0.6-0.5-0.8c-0.2-0.1-0.5-0.2-0.8-0.3c-0.5-0.2-1-0.3-1.4-0.7c-0.5-0.3-0.8-0.8-1-1.1c-0.2-0.4-0.4-0.6-0.6-0.8c-0.2-0.1-0.5-0.2-0.9-0.3c-0.4-0.1-0.9-0.2-1.4-0.5c-0.5-0.3-0.8-0.7-1-1.1c-0.3-0.3-0.5-0.6-0.7-0.7c-0.2-0.1-0.5-0.2-0.9-0.2c-0.4-0.1-0.9-0.2-1.4-0.5c-0.5-0.2-0.9-0.6-1.2-1c-0.2-0.3-0.4-0.5-0.6-0.6c-0.2-0.1-0.6-0.2-0.9-0.2c-0.5-0.1-1-0.1-1.5-0.3c-0.5-0.3-0.9-0.7-1.2-1c-0.3-0.2-0.5-0.5-0.7-0.6c-0.2-0.1-0.6-0.1-0.9-0.1c-0.5 0-1 0-1.6-0.2c-0.5-0.2-0.9-0.6-1.2-0.9c-0.3-0.2-0.5-0.5-0.8-0.5c-0.1-0.1-0.3-0.1-0.5-0.1c-0.1 0-0.3 0-0.4 0c-0.1 0-0.3 0-0.4 0c-0.3 0-0.7 0-1.1-0.1c-0.5-0.2-1-0.5-1.3-0.8c-0.3-0.2-0.6-0.4-0.8-0.5c-0.2 0-0.6 0-0.9 0c-0.5 .1-1.1 .1-1.6 0c-0.5-0.1-0.9-0.4-1.3-0.7c-0.3-0.2-0.6-0.3-0.8-0.4c-0.3 0-0.6 0-1 .1c-0.4 .1-1 .1-1.5 .1c-0.5-0.1-1-0.4-1.4-0.6c-0.3-0.2-0.6-0.4-0.8-0.4c-0.3 0-0.6 0-0.9 .1c-0.5 .1-1 .3-1.6 .2c-0.5 0-1-0.3-1.4-0.5c-0.3-0.1-0.6-0.3-0.9-0.3c-0.2 0-0.5 .1-0.9 .2c-0.4 .1-0.9 .3-1.4 .3h-0.1c-0.5 0-1-0.2-1.5-0.4c-0.3-0.1-0.6-0.2-0.8-0.2c-0.3 0-0.6 .1-0.9 .2c-0.5 .2-1 .4-1.5 .4h-0.1c-0.5 0-1-0.2-1.4-0.3c-0.4-0.1-0.7-0.2-0.9-0.2c-0.2 0-0.6 .2-0.9 .3c-0.4 .2-0.9 .5-1.4 .5c-0.6 .1-1.1-0.1-1.5-0.2c-0.4-0.1-0.7-0.1-1-0.1c-0.2 0-0.5 .2-0.8 .4c-0.4 .2-0.9 .5-1.4 .6c-0.5 0-1.1 0-1.5-0.1c-0.4-0.1-0.7-0.1-1-0.1c-0.2 .1-0.5 .2-0.8 .4c-0.4 .3-0.8 .6-1.3 .7c-0.5 .1-1.1 .1-1.6 0c-0.3 0-0.7 0-0.9 0c-0.2 .1-0.5 .3-0.8 .5c-0.3 .3-0.8 .6-1.3 .8c-0.4 .1-0.8 .1-1.1 .1c-0.1 0-0.3 0-0.4 0c-0.1 0-0.3 0-0.4 0c-0.2 0-0.4 0-0.5 .1c-0.3 0-0.5 .3-0.8 .5c-0.3 .3-0.7 .7-1.2 .9c-0.6 .2-1.1 .2-1.5 .2c-0.4 0-0.8 0-1 .1c-0.2 .1-0.4 .4-0.7 .6c-0.3 .3-0.7 .7-1.2 1c-0.5 .2-1 .2-1.5 .3c-0.3 0-0.7 .1-0.9 .2c-0.2 .1-0.4 .3-0.6 .6c-0.3 .4-0.7 .8-1.2 1c-0.4 .3-1 .4-1.4 .5c-0.4 0-0.7 .1-0.9 .2c-0.2 .1-0.4 .4-0.6 .7c-0.3 .4-0.6 .8-1.1 1.1c-0.5 .3-1 .4-1.4 .5c-0.4 .1-0.7 .2-0.9 .3c-0.2 .2-0.4 .4-0.6 .7c-0.2 .4-0.5 .9-1 1.2c-0.4 .3-0.9 .5-1.4 .7c-0.3 .1-0.6 .2-0.8 .3c-0.2 .2-0.4 .5-0.5 .8c-0.3 .4-0.5 .8-0.9 1.2c-0.4 .4-0.9 .6-1.4 .7c-0.3 .2-0.6 .3-0.8 .4c-0.2 .2-0.3 .5-0.5 .8c-0.2 .5-0.4 .9-0.8 1.3c-0.4 .4-0.8 .6-1.3 .8c-0.3 .2-0.6 .3-0.8 .5c-0.1 .2-0.3 .5-0.4 .8c-0.2 .5-0.3 1-0.7 1.4c-0.4 .4-0.8 .7-1.2 .9c-0.4 .2-0.7 .3-0.8 .5c-0.1 .2-0.3 .5-0.4 .9c-0.1 .4-0.3 .9-0.6 1.3c-0.3 .5-0.8 .8-1.2 1c-0.3 .2-0.5 .4-0.7 .6c-0.1 .2-0.2 .5-0.3 .9c-0.1 .4-0.2 .9-0.5 1.4c-0.3 .5-0.7 .8-1.1 1.1c-0.3 .2-0.6 .4-0.7 .6c-0.1 .2-0.2 .5-0.2 .9c-0.1 .4-0.2 1-0.5 1.4c-0.2 .5-0.6 .9-1 1.2c-0.3 .2-0.5 .4-0.6 .6c-0.1 .2-0.2 .6-0.2 .9c-0.1 .5-0.1 1-0.4 1.5c-0.2 .5-0.6 .9-0.9 1.2c-0.3 .3-0.5 .5-0.6 .7c-0.1 .3-0.1 .6-0.1 1c0 .4 0 1-0.2 1.5c-0.2 .5-0.6 .9-0.9 1.2c-0.2 .3-0.5 .6-0.5 .8c-0.1 .2-0.1 .5-0.1 .9c0 .5 0 1-0.1 1.5c-0.2 .5-0.5 1-0.8 1.3c-0.2 .3-0.4 .6-0.5 .8c0 .2 0 .6 0 .9c.1 .5 .1 1 0 1.6c-0.1 .5-0.4 .9-0.7 1.3c-0.2 .3-0.4 .6-0.4 .9c-0.1 .2 0 .5 .1 .9c0 .4 .1 1 0 1.5c0 .5-0.3 1-0.5 1.4c-0.2 .3-0.4 .6-0.4 .9c0 .2 0 .5 .1 .9c.1 .4 .3 .9 .2 1.5c0 .5-0.3 1-0.5 1.4c-0.1 .4-0.3 .7-0.3 .9c0 .2 .1 .6 .2 .9c.1 .4 .3 .9 .3 1.5c0 .5-0.2 1-0.4 1.5c-0.1 .3-0.3 .6-0.3 .9c0 .2 .2 .5 .3 .9c.2 .4 .4 .9 .4 1.4c0 .6-0.2 1.1-0.3 1.5c-0.1 .4-0.2 .7-0.2 .9c0 .3 .2 .6 .3 .9c.2 .4 .5 .9 .5 1.4c.1 .6-0.1 1.1-0.2 1.6c-0.1 .3-0.1 .6-0.1 .9c0 .2 .2 .5 .4 .8c.2 .4 .5 .9 .5 1.4c.1 .6 0 1.1 0 1.6c-0.1 .3-0.2 .6-0.1 .9c0 .2 .2 .5 .4 .8c.3 .4 .6 .8 .7 1.4c.1 .5 .1 1 0 1.5c0 .3 0 .7 0 .9c.1 .2 .3 .5 .5 .8c.3 .4 .6 .8 .8 1.3c.1 .5 .1 1.1 .1 1.5c0 .4 0 .7 .1 1c0 .2 .3 .4 .5 .7c.3 .4 .7 .7 .9 1.3c.2 .5 .2 1 .2 1.5c0 .3 0 .7 .1 .9c.1 .2 .3 .4 .6 .7c.3 .3 .7 .7 .9 1.2c.3 .5 .3 1 .4 1.5c0 .3 .1 .7 .2 .9c.1 .2 .3 .4 .6 .7c.4 .3 .7 .6 1 1.1c.3 .5 .4 1 .5 1.4c0 .4 .1 .7 .2 .9c.1 .2 .4 .4 .7 .7c.4 .2 .8 .6 1.1 1c.3 .5 .4 1 .5 1.5c.1 .3 .2 .6 .3 .8c.1 .2 .4 .4 .7 .6c.4 .3 .9 .5 1.2 1c.3 .4 .5 .9 .6 1.4c.1 .3 .3 .6 .4 .8c.1 .2 .4 .4 .8 .5c.4 .3 .8 .5 1.2 .9c.4 .5 .5 1 .7 1.4c.1 .3 .3 .6 .4 .8c.2 .2 .5 .3 .8 .5c.5 .2 .9 .4 1.3 .8c.4 .4 .6 .9 .8 1.3c.2 .3 .3 .6 .5 .8c.2 .1 .5 .3 .8 .4c.5 .2 1 .4 1.4 .7c.4 .4 .6 .9 .9 1.3c.1 .3 .3 .6 .5 .7c.2 .2 .5 .3 .8 .4c.5 .1 1 .3 1.4 .6c.5 .3 .8 .8 1 1.2c.2 .3 .4 .6 .6 .7c.2 .1 .5 .2 .9 .3c.4 .1 .9 .2 1.4 .5c.5 .3 .8 .8 1.1 1.1c.2 .3 .4 .6 .6 .7c.2 .1 .5 .2 .9 .3c.4 0 1 .1 1.4 .4c.5 .3 .9 .7 1.2 1c.2 .3 .4 .6 .6 .7c.2 .1 .6 .1 .9 .1c.5 .1 1 .1 1.5 .4c.5 .2 .9 .6 1.2 .9c.3 .3 .5 .5 .7 .6c.2 .1 .6 .1 1 .1c.4 0 .9 .1 1.5 .3c.5 .2 .9 .5 1.2 .8c.3 .3 .5 .5 .8 .6c.1 0 .3 0 .5 0c.1 0 .3 0 .4 0c.1 0 .3 0 .4 0c.3 0 .7 0 1.1 .1c.5 .2 1 .5 1.3 .8c.3 .2 .6 .4 .8 .5c.2 .1 .6 0 .9 0c.5-0.1 1.1-0.1 1.6 0c.5 .1 .9 .4 1.3 .7c.3 .2 .6 .4 .8 .4c.3 .1 .6 0 1 0c.4-0.1 1-0.2 1.5-0.1c.5 .1 1 .3 1.4 .6c.3 .1 .6 .3 .8 .3c.3 .1 .6 0 1-0.1c.4-0.1 .9-0.2 1.5-0.2c.5 .1 1 .3 1.4 .5c.3 .2 .7 .3 .9 .3c.2 0 .5-0.1 .9-0.2c.4-0.1 .9-0.3 1.4-0.3m2.5 2.5c-0.6 0-1.2-0.2-1.6-0.4c-0.3-0.1-0.6-0.2-0.9-0.2c-0.2 0-0.5 .1-0.9 .2c-0.4 .1-1 .3-1.5 .2c-0.6 0-1.1-0.2-1.6-0.5c-0.3-0.1-0.6-0.2-0.8-0.3c-0.3 0-0.6 .1-0.9 .2c-0.4 .1-0.8 .2-1.2 .2c-0.2 0-0.3 0-0.4-0.1c-0.6 0-1.1-0.3-1.5-0.6c-0.3-0.1-0.6-0.3-0.8-0.3c-0.2-0.1-0.6 0-0.9 .1c-0.5 0-1.1 .1-1.6 0c-0.6-0.1-1.1-0.4-1.5-0.7c-0.3-0.2-0.5-0.4-0.8-0.4c-0.2-0.1-0.5 0-0.9 0c-0.2 0-0.5 .1-0.8 .1c-0.3 0-0.5-0.1-0.8-0.1c-0.5-0.2-1-0.5-1.4-0.8c-0.3-0.2-0.5-0.4-0.7-0.5c-0.2-0.1-0.3-0.1-0.6-0.1c-0.1 0-0.2 0-0.3 0c-0.2 0-0.3 .1-0.5 .1c-0.3 0-0.7-0.1-1.1-0.2c-0.6-0.2-1-0.6-1.4-0.9c-0.2-0.2-0.5-0.5-0.7-0.5c-0.2-0.1-0.6-0.1-0.9-0.1c-0.5-0.1-1.1-0.1-1.6-0.3c-0.5-0.2-0.9-0.6-1.3-1c-0.2-0.2-0.5-0.5-0.7-0.6c-0.2-0.1-0.5-0.1-0.9-0.1c-0.4-0.1-1-0.1-1.5-0.4c-0.5-0.3-0.9-0.7-1.2-1.1c-0.2-0.2-0.5-0.5-0.7-0.6c-0.2-0.1-0.5-0.2-0.8-0.2c-0.5-0.1-1.1-0.2-1.6-0.5c-0.5-0.3-0.8-0.8-1.1-1.2c-0.2-0.2-0.4-0.5-0.6-0.6c-0.2-0.2-0.5-0.2-0.9-0.3c-0.4-0.1-1-0.3-1.5-0.6c-0.4-0.3-0.7-0.8-1-1.2c-0.2-0.3-0.4-0.6-0.6-0.7c-0.2-0.2-0.5-0.3-0.8-0.4c-0.5-0.1-1-0.3-1.5-0.7c-0.4-0.3-0.7-0.8-0.9-1.3c-0.2-0.3-0.4-0.5-0.5-0.7c-0.2-0.1-0.5-0.3-0.8-0.4c-0.5-0.2-1-0.4-1.4-0.8c-0.5-0.4-0.7-0.9-0.9-1.3c-0.2-0.3-0.3-0.6-0.5-0.8c-0.1-0.2-0.4-0.3-0.8-0.5c-0.4-0.2-0.9-0.4-1.3-0.8c-0.4-0.5-0.6-1-0.8-1.4c-0.1-0.4-0.2-0.7-0.4-0.9c-0.1-0.1-0.4-0.3-0.7-0.5c-0.5-0.2-0.9-0.5-1.3-0.9c-0.4-0.5-0.6-1-0.7-1.5c-0.1-0.3-0.2-0.6-0.3-0.8c-0.2-0.2-0.5-0.4-0.8-0.6c-0.4-0.2-0.8-0.5-1.2-1c-0.3-0.5-0.4-1-0.6-1.5c0-0.4-0.1-0.7-0.2-0.9c-0.2-0.2-0.4-0.4-0.7-0.6c-0.4-0.3-0.9-0.6-1.2-1.1c-0.3-0.5-0.4-1.1-0.4-1.5c-0.1-0.4-0.2-0.7-0.3-0.9c-0.1-0.2-0.3-0.4-0.6-0.7c-0.4-0.3-0.8-0.7-1.1-1.2c-0.2-0.5-0.3-1-0.3-1.5c-0.1-0.4-0.1-0.7-0.2-0.9c-0.1-0.2-0.3-0.5-0.6-0.7c-0.3-0.4-0.7-0.7-1-1.3c-0.2-0.5-0.2-1.1-0.2-1.6c0-0.3-0.1-0.6-0.1-0.9c-0.1-0.2-0.3-0.4-0.6-0.7c-0.3-0.4-0.7-0.8-0.9-1.3c-0.2-0.6-0.1-1.1-0.1-1.6c0-0.4 0-0.7-0.1-0.9c0-0.3-0.2-0.5-0.4-0.8c-0.3-0.4-0.7-0.8-0.8-1.4c-0.2-0.6-0.1-1.1-0.1-1.6c0-0.4 .1-0.7 0-0.9c0-0.2-0.2-0.5-0.4-0.8c-0.3-0.4-0.6-0.9-0.7-1.5c-0.1-0.5 0-1.1 .1-1.6c0-0.3 .1-0.6 0-0.9c0-0.2-0.2-0.5-0.3-0.8c-0.3-0.4-0.5-0.9-0.6-1.5c-0.1-0.6 0-1.1 .1-1.6c.1-0.3 .2-0.6 .2-0.9c0-0.2-0.2-0.5-0.3-0.8c-0.2-0.5-0.5-1-0.5-1.5c-0.1-0.6 .1-1.2 .3-1.6c.1-0.4 .2-0.7 .2-0.9c0-0.2-0.2-0.5-0.3-0.9c-0.2-0.4-0.4-1-0.4-1.5c0-0.6 .2-1.1 .4-1.6c.1-0.3 .3-0.6 .3-0.9c0-0.2-0.1-0.5-0.2-0.8c-0.2-0.5-0.4-1-0.3-1.6c0-0.6 .3-1.1 .5-1.6c.1-0.3 .3-0.6 .3-0.8c0-0.2-0.1-0.6-0.2-0.9c-0.1-0.5-0.2-1-0.1-1.6c.1-0.6 .3-1.1 .6-1.5c.1-0.3 .3-0.6 .3-0.8c.1-0.2 0-0.6 0-0.9c-0.1-0.5-0.2-1-0.1-1.6c.1-0.6 .4-1.1 .7-1.5c.2-0.3 .4-0.5 .4-0.8c.1-0.2 0-0.5 0-0.9c0-0.5-0.1-1 .1-1.6c.1-0.5 .5-1 .8-1.4c.2-0.2 .4-0.5 .4-0.7c.1-0.3 .1-0.6 .1-0.9c0-0.5-0.1-1.1 .1-1.6c.2-0.6 .6-1 .9-1.4c.3-0.2 .5-0.5 .6-0.7c0-0.2 .1-0.6 .1-0.9c0-0.5 0-1.1 .2-1.6c.3-0.5 .7-0.9 1-1.3c.3-0.2 .5-0.4 .6-0.7c.1-0.2 .1-0.5 .2-0.8c0-0.5 .1-1.1 .3-1.6c.3-0.5 .7-0.9 1.1-1.2c.3-0.2 .5-0.5 .6-0.7c.1-0.2 .2-0.5 .3-0.8c0-0.5 .1-1.1 .4-1.6c.3-0.5 .8-0.8 1.2-1.1c.3-0.2 .5-0.4 .7-0.6c.1-0.2 .2-0.5 .2-0.9c.2-0.4 .3-1 .6-1.5c.4-0.4 .8-0.7 1.2-1c.3-0.2 .6-0.4 .8-0.6c.1-0.1 .2-0.5 .3-0.8c.1-0.5 .3-1 .7-1.4c.4-0.5 .8-0.8 1.3-1c.3-0.2 .6-0.3 .7-0.5c.2-0.2 .3-0.5 .4-0.8c.2-0.5 .4-1 .8-1.4c.4-0.5 .9-0.7 1.3-0.9c.4-0.2 .7-0.3 .8-0.5c.2-0.1 .3-0.4 .5-0.7c.2-0.5 .4-1 .9-1.4c.4-0.4 .9-0.6 1.4-0.8c.3-0.1 .6-0.2 .8-0.4c.1-0.1 .3-0.4 .5-0.7c.2-0.5 .5-0.9 .9-1.3c.5-0.4 1-0.5 1.5-0.7c.3-0.1 .6-0.2 .8-0.3c.2-0.2 .4-0.5 .6-0.7c.3-0.5 .6-0.9 1-1.3c.5-0.3 1.1-0.4 1.5-0.6c.4 0 .7-0.1 .9-0.2c.2-0.2 .4-0.4 .6-0.7c.3-0.4 .6-0.8 1.1-1.2c.5-0.3 1.1-0.4 1.6-0.4c.3-0.1 .6-0.2 .8-0.3c.2-0.1 .5-0.3 .7-0.6c.3-0.4 .7-0.8 1.2-1.1c.5-0.2 1.1-0.3 1.6-0.3c.3-0.1 .6-0.1 .8-0.2c.2-0.1 .5-0.3 .7-0.6c.4-0.3 .8-0.7 1.3-1c.5-0.2 1.1-0.2 1.6-0.2c.3 0 .7 0 .9-0.1c.2-0.1 .5-0.3 .7-0.6c.4-0.3 .8-0.7 1.4-0.9c.4-0.1 .8-0.1 1.1-0.1c.2 0 .3 0 .5 0c.1 0 .2 0 .3 0c.3 0 .4 0 .6-0.1c.2 0 .4-0.2 .7-0.4c.4-0.3 .9-0.7 1.4-0.8c.3-0.1 .5-0.1 .8-0.1c.3 0 .6 0 .8 0c.4 .1 .7 .1 .9 0c.3 0 .5-0.2 .8-0.4c.4-0.3 .9-0.6 1.5-0.7c.5-0.1 1.1 0 1.6 .1c.3 0 .7 .1 .9 .1c.2-0.1 .5-0.2 .8-0.4c.4-0.3 .9-0.5 1.5-0.6c.1 0 .2 0 .4 0c.4 0 .8 .1 1.2 .2c.3 0 .6 .1 .9 .1c.2 0 .5-0.2 .8-0.3c.5-0.2 1-0.5 1.6-0.5c.5 0 1.1 .1 1.5 .3c.4 .1 .7 .2 .9 .2c.3 0 .6-0.2 .9-0.3c.4-0.2 1-0.4 1.6-0.4c.5 0 1.1 .2 1.5 .4c.3 .1 .6 .3 .9 .3c.2 0 .5-0.1 .9-0.2c.4-0.2 1-0.3 1.5-0.3c.6 0 1.1 .3 1.6 .5c.3 .1 .6 .3 .8 .3c.3 0 .6-0.1 .9-0.1c.4-0.1 .8-0.2 1.3-0.2c.1 0 .2 0 .3 0c.6 .1 1.1 .3 1.5 .6c.3 .2 .6 .3 .8 .4c.2 0 .6-0.1 .9-0.1c.5-0.1 1.1-0.2 1.6-0.1c.6 .1 1.1 .4 1.5 .7c.3 .2 .5 .4 .8 .4c.2 .1 .5 .1 .9 0c.2 0 .5 0 .8 0c.3 0 .5 0 .8 .1c.5 .1 1 .5 1.4 .8c.3 .2 .5 .4 .7 .4c.2 .1 .3 .1 .6 .1c.1 0 .2 0 .3 0c.2 0 .4 0 .5 0c.3 0 .7 0 1.1 .1c.6 .2 1 .6 1.4 .9c.3 .3 .5 .5 .7 .6c.2 .1 .6 .1 .9 .1c.5 0 1.1 0 1.6 .2c.5 .3 .9 .7 1.3 1c.2 .3 .5 .5 .7 .6c.2 .1 .5 .1 .9 .2c.4 0 1 .1 1.5 .3c.5 .3 .9 .7 1.2 1.1c.3 .3 .5 .5 .7 .6c.2 .1 .5 .2 .8 .3c.5 0 1.1 .1 1.6 .4c.5 .4 .8 .8 1.1 1.2c.2 .3 .4 .5 .6 .7c.2 .1 .5 .2 .9 .2c.4 .2 1 .3 1.5 .6c.4 .4 .7 .8 1 1.3c.2 .2 .4 .5 .6 .7c.2 .1 .5 .2 .8 .3c.5 .2 1 .3 1.5 .7c.4 .4 .7 .8 .9 1.3c.2 .3 .4 .6 .5 .7c.2 .2 .5 .3 .8 .4c.5 .2 1 .4 1.4 .8c.5 .4 .7 .9 .9 1.4c.2 .3 .3 .6 .5 .7c.1 .2 .4 .3 .8 .5c.4 .2 .9 .4 1.3 .9c.4 .4 .6 .9 .8 1.4c.1 .3 .2 .6 .4 .8c.1 .2 .4 .3 .7 .5c.5 .2 1 .5 1.3 1c.4 .4 .6 .9 .7 1.4c.1 .3 .2 .7 .4 .8c.1 .2 .4 .4 .7 .6c.4 .3 .8 .6 1.2 1c.3 .5 .4 1.1 .6 1.5c0 .4 .1 .7 .3 .9c.1 .2 .3 .4 .6 .6c.4 .3 .9 .6 1.2 1.1c.3 .5 .4 1.1 .4 1.6c.1 .3 .2 .6 .3 .8c.1 .2 .3 .5 .6 .7c.4 .3 .8 .7 1.1 1.2c.2 .5 .3 1.1 .3 1.6c.1 .3 .1 .6 .2 .8c.1 .3 .3 .5 .6 .7c.3 .4 .7 .8 1 1.3c.2 .6 .2 1.1 .2 1.6c0 .3 .1 .7 .2 .9c0 .2 .3 .5 .5 .7c.3 .4 .7 .8 .9 1.4c.2 .5 .1 1.1 .1 1.6c0 .3 0 .6 .1 .9c0 .2 .2 .5 .5 .7c.3 .4 .6 .9 .7 1.4c.2 .6 .1 1.1 .1 1.6c0 .4-0.1 .7 0 .9c0 .3 .2 .5 .4 .8c.3 .4 .6 .9 .7 1.5c.1 .6 0 1.1-0.1 1.6c0 .3-0.1 .7 0 .9c0 .2 .2 .5 .3 .8c.3 .4 .5 .9 .6 1.5c.1 .6 0 1.1-0.1 1.6c-0.1 .3-0.2 .7-0.2 .9c0 .2 .2 .5 .3 .8c.2 .5 .5 1 .5 1.6c.1 .6-0.1 1.1-0.3 1.6c-0.1 .3-0.2 .6-0.2 .8c0 .3 .2 .6 .3 .9c.2 .5 .4 1 .4 1.6c0 .5-0.2 1.1-0.4 1.5c-0.1 .4-0.3 .7-0.3 .9c0 .2 .1 .5 .2 .9c.2 .4 .4 1 .3 1.6c0 .5-0.3 1-0.5 1.5c-0.1 .3-0.3 .6-0.3 .8c0 .3 .1 .6 .2 .9c.1 .5 .2 1 .1 1.6c-0.1 .6-0.3 1.1-0.6 1.5c-0.1 .3-0.3 .6-0.3 .8c-0.1 .3 0 .6 0 .9c.1 .5 .2 1.1 .1 1.6c-0.1 .6-0.4 1.1-0.7 1.5c-0.2 .3-0.4 .6-0.4 .8c-0.1 .2 0 .5 0 .9c0 .5 .1 1-0.1 1.6c-0.1 .6-0.4 1-0.7 1.4c-0.3 .3-0.5 .5-0.5 .8c-0.1 .2-0.1 .5-0.1 .9c0 .5 .1 1-0.1 1.6c-0.2 .5-0.6 .9-0.9 1.3c-0.2 .3-0.5 .5-0.5 .7c-0.1 .3-0.2 .6-0.2 .9c0 .5 0 1.1-0.2 1.6c-0.3 .6-0.7 .9-1 1.3c-0.3 .2-0.5 .5-0.6 .7c-0.1 .2-0.1 .5-0.2 .9c0 .5-0.1 1-0.3 1.5c-0.3 .6-0.7 .9-1.1 1.2c-0.3 .3-0.5 .5-0.6 .7c-0.1 .2-0.2 .5-0.3 .9c0 .4-0.1 1-0.4 1.5c-0.3 .5-0.8 .8-1.2 1.1c-0.3 .2-0.5 .4-0.6 .6c-0.2 .2-0.3 .5-0.3 .9c-0.2 .5-0.3 1-0.6 1.5c-0.4 .5-0.8 .8-1.2 1c-0.3 .2-0.6 .4-0.7 .6c-0.2 .2-0.3 .5-0.4 .8c-0.1 .5-0.3 1-0.7 1.5c-0.3 .4-0.8 .7-1.3 .9c-0.3 .2-0.6 .4-0.7 .6c-0.2 .1-0.3 .4-0.4 .8c-0.2 .4-0.4 .9-0.8 1.4c-0.4 .4-0.9 .6-1.3 .8c-0.4 .2-0.7 .3-0.8 .5c-0.2 .2-0.3 .5-0.5 .8c-0.2 .4-0.4 .9-0.9 1.3c-0.4 .4-0.9 .6-1.4 .8c-0.3 .1-0.6 .3-0.8 .4c-0.1 .2-0.3 .4-0.5 .8c-0.2 .4-0.5 .9-0.9 1.2c-0.5 .4-1 .6-1.5 .7c-0.3 .1-0.6 .2-0.8 .4c-0.2 .1-0.4 .4-0.6 .7c-0.3 .4-0.6 .9-1 1.2c-0.5 .3-1.1 .5-1.5 .6c-0.4 .1-0.7 .1-0.9 .3c-0.2 .1-0.4 .4-0.6 .6c-0.3 .4-0.6 .9-1.1 1.2c-0.5 .3-1.1 .4-1.6 .5c-0.3 0-0.6 .1-0.8 .2c-0.2 .1-0.4 .4-0.7 .6c-0.3 .4-0.7 .8-1.2 1.1c-0.5 .3-1.1 .3-1.5 .4c-0.4 0-0.7 0-0.9 .1c-0.2 .1-0.5 .4-0.7 .6c-0.4 .4-0.8 .8-1.3 1c-0.5 .2-1.1 .2-1.6 .3c-0.3 0-0.7 0-0.9 .1c-0.2 0-0.4 .3-0.7 .5c-0.4 .3-0.8 .7-1.4 .9c-0.4 .1-0.8 .2-1.1 .2c-0.1 0-0.3-0.1-0.5-0.1c-0.1 0-0.2 0-0.3 0c-0.3 0-0.4 0-0.6 .1c-0.2 .1-0.4 .3-0.7 .5c-0.4 .3-0.9 .6-1.4 .8c-0.3 0-0.5 .1-0.8 .1c-0.3 0-0.6-0.1-0.8-0.1c-0.4 0-0.7-0.1-0.9 0c-0.3 0-0.5 .2-0.8 .4c-0.4 .3-0.9 .6-1.5 .7c-0.5 .1-1.1 0-1.6 0c-0.3-0.1-0.7-0.2-0.9-0.1c-0.2 0-0.5 .2-0.8 .3c-0.4 .3-0.9 .6-1.5 .6c-0.1 .1-0.2 .1-0.3 .1c-0.5 0-0.9-0.1-1.3-0.2c-0.3-0.1-0.6-0.2-0.9-0.2c-0.2 .1-0.5 .2-0.8 .3c-0.5 .3-1 .5-1.6 .5c-0.5 .1-1.1-0.1-1.5-0.2c-0.4-0.1-0.7-0.2-0.9-0.2c-0.3 0-0.6 .1-0.9 .2c-0.4 .2-1 .4-1.5 .4" fill="#f58220" fill-rule="nonzero"/></g><g transform="translate(236.1,234.9) rotate(-111.4) skewX(40.5) scale(-1.714,1.178)"><rect x="-3.7" y="-8.1" width="1.4" height="9.1" fill="#f58220"/></g><g transform="translate(235.4,246.3) scale(.961,2.101)"><path d="M0-4.2v-0.1l-4.7 4.7l-0.9-0.9l6.5-6.4l1.2 1.2l-2.8 4.9l3.9-3.8l.9 .9l-6.5 6.4l-1.1-1l3.5-5.9Z" fill="#f58220" fill-rule="nonzero"/></g><g transform="translate(241.8,262.3) scale(.961,2.101)"><path d="M0-9l3.5 2.7l-0.8 1l-1.2-0.9l-4.7 6.2l-1.2-0.9l4.8-6.2l-1.2-0.9l.8-1Z" fill="#f58220" fill-rule="nonzero"/></g><g transform="translate(242.4,253.6) scale(.961,2.101)"><path d="M0 6.8l-1.2-0.7l4.8-7.7l1.2 .7l-2 3.3l1.3 .9l2.1-3.3l1.2 .8l-4.8 7.7l-1.2-0.8l2.1-3.3l-1.4-0.9l-2.1 3.3Z" fill="#f58220" fill-rule="nonzero"/></g><g transform="translate(250.1,268.6) scale(.961,2.101)"><path d="M0-1.8l1.8 .9l-0.6 1.2l-1.8-0.9l-1.2 2.4l2.2 1.1l-0.6 1.2l-3.5-1.8l4.2-8.1l3.4 1.7l-0.5 1.2l-2.3-1.1l-1.1 2.2Z" fill="#f58220" fill-rule="nonzero"/></g><g transform="translate(259,282.7) scale(.961,2.101)"><path d="M0-8.8c1.3 .4 1.7 1.5 1.2 2.8v.3l-1.3-0.4l.1-0.4c.2-0.6 0-0.9-0.4-1.1c-0.4-0.1-0.7 0-1 .7c-0.2 .6-0.1 1.1 .6 2.2c.7 1.4 .9 2.2 .5 3.2c-0.5 1.4-1.4 2-2.7 1.5c-1.4-0.5-1.8-1.5-1.3-2.9l.2-0.5l1.2 .4l-0.2 .7c-0.2 .6 0 .9 .4 1c.5 .2 .8 .1 1-0.6c.2-0.6 .1-1.1-0.5-2.2c-0.8-1.4-0.9-2.2-0.5-3.2c.4-1.4 1.4-2 2.7-1.5" fill="#f58220" fill-rule="nonzero"/></g><g transform="translate(261.9,287) scale(.961,2.101)"><path d="M0-9.8l1.4 .4l-1.9 7.6l2.3 .5l-0.4 1.3l-3.6-0.9l2.2-8.9Z" fill="#f58220" fill-rule="nonzero"/></g><g transform="translate(266.5,274.1) scale(.961,2.101)"><path d="M0 4.6c-0.1 .7 .1 1 .6 1c.4 .1 .8-0.1 .9-0.7l.7-4.9c.1-0.6-0.1-0.9-0.6-1c-0.4-0.1-0.7 .1-0.8 .8l-0.8 4.8Zm-0.7-5c.3-1.4 1.2-2.1 2.5-1.9c1.4 .2 2.1 1.2 1.8 2.6l-0.7 4.7c-0.2 1.4-1.1 2.1-2.5 1.9c-1.4-0.2-2-1.1-1.8-2.6l.7-4.7Z" fill="#f58220" fill-rule="nonzero"/></g><g transform="translate(273,274) scale(.961,2.101)"><path d="M0 5.8l1.6-7.3l1.3 .1l-2 9l-2.1-0.2l-0.9-9.1l1.5 .1l.6 7.4Z" fill="#f58220" fill-rule="nonzero"/></g><g transform="translate(277.8,277) scale(.961,2.101)"><path d="M0 3.3h1.4l-0.8-4.6l-0.6 4.6Zm3.3 2.8l-1.4 .1l-0.3-1.7l-1.8 .1l-0.2 1.6l-1.3 .1l1.3-9.2h2.1l1.6 9Z" fill="#f58220" fill-rule="nonzero"/></g><g transform="translate(284.1,277.5) scale(.961,2.101)"><path d="M0 2l-0.3 .8l.3 2.8l-1.4 .2l-1.1-9.1l1.4-0.1l.5 3.9l1.4-4.2l1.4-0.1l-1.5 4.2l2.6 4.8l-1.5 .2l-1.8-3.4Z" fill="#f58220" fill-rule="nonzero"/></g><g transform="translate(291.1,282.6) scale(.961,2.101)"><path d="M0-6.1l.7 2.7l.6-0.1c.5-0.2 .7-0.5 .5-1.2l-0.2-0.8c-0.2-0.7-0.4-0.9-0.9-0.8l-0.7 .2Zm3.5 7.2c-0.1-0.3-0.2-0.4-0.4-1.1l-0.3-1.4c-0.3-0.8-0.6-1-1.3-0.8l-0.4 .1l.9 3.6l-1.3 .3l-2.4-8.8l2.1-0.5c1.4-0.4 2.2 .1 2.6 1.4l.1 .7c.3 .9 .2 1.6-0.4 2.1c.8 .1 1.2 .7 1.4 1.6l.4 1.3c.1 .5 .2 .8 .5 1.1l-1.5 .4Z" fill="#f58220" fill-rule="nonzero"/></g><g transform="translate(297.1,273.4) scale(.961,2.101)"><path d="M0-1l1.8-0.7l.5 1.3l-1.8 .6l.9 2.5l2.3-0.8l.5 1.2l-3.7 1.4l-3.2-8.6l3.7-1.3l.4 1.2l-2.3 .8l.9 2.4Z" fill="#f58220" fill-rule="nonzero"/></g><g transform="translate(300.7,273.9) scale(.961,2.101)"><path d="M0-5.6l1.3 2.8l.6-0.3c.4-0.2 .6-0.5 .3-1.1l-0.6-1.2c-0.3-0.6-0.6-0.7-1-0.5l-0.6 .3Zm2.9-0.3l.6 1c.6 1.4 .3 2.4-1 3l-0.6 .3l1.5 3.1l-1.3 .6l-4-8.2l2-0.9c1.2-0.7 2.2-0.2 2.8 1.1" fill="#f58220" fill-rule="nonzero"/></g><g transform="translate(304.6,269.1) scale(.961,2.101)"><path d="M0-6.8l3.6 6c.3 .6 .7 .6 1.1 .4c.4-0.3 .5-0.6 .2-1.2l-3.6-6l1.1-0.7l3.6 6c.7 1.2 .5 2.3-0.7 3c-1.2 .8-2.2 .4-3-0.8l-3.5-6l1.2-0.7Z" fill="#f58220" fill-rule="nonzero"/></g><g transform="translate(311.8,254.6) scale(.961,2.101)"><path d="M0 1.2l1.7 2.3l.6-0.5c.4-0.3 .5-0.7 .1-1.2l-0.5-0.6c-0.5-0.7-0.9-0.8-1.4-0.4l-0.5 .4Zm-2.2-3l1.4 1.9l.5-0.3c.4-0.3 .5-0.7 .1-1.3l-0.3-0.4c-0.4-0.5-0.7-0.6-1.1-0.3l-0.6 .4Zm2.8-1l.2 .2c.5 .8 .6 1.4 .3 2v.1c.8-0.3 1.5 .1 2 .9l.5 .6c.8 1.1 .6 2.2-0.5 3l-1.8 1.3l-5.4-7.3l1.7-1.3c1.2-0.9 2.1-0.7 3 .5" fill="#f58220" fill-rule="nonzero"/></g><g transform="translate(312,255.8) scale(.961,2.101)"><path d="M0-5.9l1.1-0.9l5.1 5.8l1.8-1.5l.9 .9l-2.9 2.5l-6-6.8Z" fill="#f58220" fill-rule="nonzero"/></g><g transform="translate(314.7,243.8) rotate(114.5) skewX(-40.9) scale(-1.635,1.235)"><rect x="3" y="-7.3" width="1.4" height="9.1" fill="#f58220"/></g><g transform="translate(324.1,237.4) scale(.961,2.101)"><path d="M0-1.7l.9 .8c1.1 .9 1.3 2 .3 3.1c-0.9 1.1-2 1.1-3.1 .1l-3.6-3.1c-1.1-0.9-1.2-2-0.3-3.1c.9-1.1 2-1.1 3.1-0.1l.7 .6l-0.9 1l-0.7-0.7c-0.5-0.4-0.9-0.3-1.2 0c-0.3 .4-0.3 .7 .2 1.2l3.7 3.2c.5 .4 .9 .4 1.2 0c.3-0.3 .3-0.7-0.2-1.1l-1-0.9l.9-1Z" fill="#f58220" fill-rule="nonzero"/></g><g transform="translate(277,257.9) scale(.961,2.101)"><path d="M0-102.3c-28.2 0-51.1 23-51.1 51.2c0 28.2 22.9 51.1 51.1 51.1c28.2 0 51.1-22.9 51.1-51.1c0-28.2-22.9-51.2-51.1-51.2m0 102.9c-28.5 0-51.7-23.2-51.7-51.7c0-28.6 23.2-51.8 51.7-51.8c28.5 0 51.7 23.2 51.7 51.8c0 28.5-23.2 51.7-51.7 51.7" fill="#f58220" fill-rule="nonzero"/></g><g transform="translate(215.4,154.1) scale(.961,2.101)"><path d="M0 4.5l-0.3-4.4l1.3-0.1l.1 1.5l7.8-0.5l.1 1.4l-7.8 .5l.1 1.5l-1.3 .1Z" fill="#f79432" fill-rule="nonzero"/></g><g transform="translate(223.9,143.7) scale(.961,2.101)"><path d="M0 2l-0.1 1.4l-9.1-0.3l.1-1.4l3.9 .1l.1-1.6l-3.9-0.2v-1.4l9.1 .3v1.5l-3.9-0.2l-0.1 1.6l3.9 .2Z" fill="#f79432" fill-rule="nonzero"/></g><g transform="translate(219.3,132.5) scale(.961,2.101)"><path d="M0 .8l.3-1.9l1.3 .2l-0.3 1.9l2.6 .4l.4-2.5l1.3 .2l-0.6 3.9l-9-1.3l.5-3.8l1.3 .1l-0.3 2.5l2.5 .3Z" fill="#f79432" fill-rule="nonzero"/></g><g transform="translate(219.7,114.6) scale(.961,2.101)"><path d="M0 .7l6.3 1.9l-0.3 1.2l-8.8-2.5l.5-1.8l5.7 .2v-0.1l-5.3-1.5l.4-1.2l8.7 2.5l-0.4 1.5l-6.8-0.2Z" fill="#f79432" fill-rule="nonzero"/></g><g transform="translate(222.9,103.1) scale(.961,2.101)"><path d="M0 .4l.7-1.8l1.2 .5l-0.7 1.8l2.5 1l.9-2.3l1.2 .5l-1.4 3.6l-8.5-3.4l1.5-3.6l1.2 .5l-1 2.3l2.4 .9Z" fill="#f79432" fill-rule="nonzero"/></g><g transform="translate(221.1,90.4) scale(.961,2.101)"><path d="M0 1.1l2-4l1.2 .6l-0.7 1.4l6.9 3.6l-0.6 1.2l-7-3.6l-0.6 1.4l-1.2-0.6Z" fill="#f79432" fill-rule="nonzero"/></g><g transform="translate(232.1,75.4) scale(.961,2.101)"><path d="M0 6.4l-0.8 1.2l-7.6-5l.8-1.2l3.2 2.1l.9-1.3l-3.2-2.2l.8-1.2l7.6 5l-0.8 1.2l-3.3-2.1l-0.9 1.3l3.3 2.2Z" fill="#f79432" fill-rule="nonzero"/></g><g transform="translate(231.3,72) scale(.961,2.101)"><path d="M0-0.1l1.2-1.5l1 .8l-1.2 1.5l2.1 1.7l1.5-1.9l1.1 .8l-2.5 3l-7.1-5.7l2.4-3l1.1 .8l-1.6 1.9l2 1.6Z" fill="#f79432" fill-rule="nonzero"/></g><g transform="translate(233.1,67.7) scale(.961,2.101)"><path d="M0-4l2 2l.4-0.4c.4-0.4 .4-0.8-0.1-1.3l-0.6-0.6c-0.5-0.5-0.9-0.5-1.2-0.2l-0.5 .5Zm6.7 4.3c-0.2-0.1-0.4-0.1-0.9-0.6l-1-1c-0.6-0.6-1.1-0.6-1.5-0.2l-0.4 .4l2.7 2.6l-1 1l-6.5-6.4l1.5-1.5c1-1.1 1.9-1 3-0.1l.5 .5c.6 .7 .9 1.3 .6 2h.1c.7-0.3 1.3 0 2 .7l1 .9c.3 .3 .6 .6 .9 .7l-1 1Z" fill="#f79432" fill-rule="nonzero"/></g><g transform="translate(235.6,62.6) scale(.961,2.101)"><path d="M0-6l1.1-0.9l5.1 5.9l1.8-1.5l.8 1l-2.9 2.4l-5.9-6.9Z" fill="#f79432" fill-rule="nonzero"/></g><g transform="translate(244.5,45.4) scale(.961,2.101)"><path d="M0 2.8l1.1-0.8l-3.2-3.4l2.1 4.2Zm4.3 .5l-1.2 .8l-1.1-1.2l-1.4 1l.7 1.5l-1.1 .7l-4-8.3l1.7-1.2l6.4 6.7Z" fill="#f79432" fill-rule="nonzero"/></g><g transform="translate(247.6,43.2) scale(.961,2.101)"><path d="M0-2.7v.1l3.2 5.7l-1.2 .7l-4.4-8l1.6-0.9l3.9 4.1l-2.6-4.8l1.1-0.6l4.4 8l-1.3 .7l-4.7-5Z" fill="#f79432" fill-rule="nonzero"/></g><g transform="translate(252.8,41) scale(.961,2.101)"><path d="M0-5.7l2.5 6l.8-0.3c.4-0.2 .6-0.5 .3-1.1l-1.8-4.4c-0.3-0.5-0.6-0.7-1.1-0.5l-0.7 .3Zm-1.8-0.6l2.1-0.9c1.3-0.5 2.2-0.1 2.8 1.3l1.8 4.2c.6 1.3 .2 2.3-1.1 2.9l-2.1 .9l-3.5-8.4Z" fill="#f79432" fill-rule="nonzero"/></g><g transform="translate(258.7,39.9) scale(.961,2.101)"><path d="M0-8.9c1.3-0.4 2.3 .2 2.7 1.6l.1 .2l-1.3 .4l-0.1-0.3c-0.2-0.7-0.5-0.8-1-0.7c-0.4 .2-0.6 .5-0.4 1.1c.2 .6 .6 1 1.8 1.5c1.4 .7 2 1.3 2.3 2.3c.4 1.4 0 2.4-1.4 2.8c-1.3 .4-2.2-0.2-2.7-1.6l-0.1-0.5l1.3-0.4l.1 .6c.2 .6 .6 .8 1 .7c.4-0.2 .7-0.5 .5-1.1c-0.2-0.6-0.7-1-1.8-1.5c-1.4-0.7-2-1.3-2.3-2.3c-0.5-1.4 0-2.4 1.3-2.8" fill="#f79432" fill-rule="nonzero"/></g><g transform="translate(270.3,24.8) scale(.961,2.101)"><path d="M0 1.6l.2 1.2c.2 1.5-0.4 2.4-1.8 2.6c-1.4 .2-2.2-0.5-2.4-1.9l-0.8-4.7c-0.2-1.4 .4-2.4 1.8-2.6c1.4-0.2 2.2 .5 2.5 1.9l.1 .9l-1.3 .2l-0.2-0.9c-0.1-0.7-0.4-0.9-0.9-0.8c-0.4 .1-0.7 .3-0.6 1l.8 4.9c.1 .6 .4 .8 .9 .7c.4-0.1 .7-0.3 .6-1l-0.2-1.3l1.3-0.2Z" fill="#f79432" fill-rule="nonzero"/></g><g transform="translate(273.2,15.5) scale(.961,2.101)"><path d="M0 9.2l-1.4 .1l-0.5-9.1l1.4-0.1l.2 3.9l1.6-0.1l-0.2-3.9l1.5-0.1l.5 9.1l-1.5 .1l-0.2-3.9l-1.6 .1l.2 3.9Z" fill="#f79432" fill-rule="nonzero"/></g><g transform="translate(279,21.9) scale(.961,2.101)"><path d="M0 3.2h1.4l-0.5-4.6l-0.9 4.6Zm3.1 3h-1.4l-0.2-1.7l-1.7-0.1l-0.4 1.6h-1.3l1.9-9l2.1 .1l1 9.1Z" fill="#f79432" fill-rule="nonzero"/></g><g transform="translate(286.3,22.8) scale(.961,2.101)"><path d="M0 3.8l2-6.2l2 .3l-1.5 9l-1.3-0.2l1-6.5l-2 6.3l-1.3-0.2v-6.6l-1.1 6.4l-1.2-0.2l1.5-9l2 .3l-0.1 6.6Z" fill="#f79432" fill-rule="nonzero"/></g><g transform="translate(293.3,36.6) scale(.961,2.101)"><path d="M0-6.5l-0.7 2.3l.6 .2c.5 .1 .9 0 1.1-0.7l.1-0.5c.2-0.6 .1-0.9-0.4-1.1l-0.7-0.2Zm-1 3.6l-0.8 2.7l.8 .2c.4 .1 .7 0 .9-0.7l.3-0.7c.2-0.8 0-1.2-0.6-1.3l-0.6-0.2Zm3.5-2l-0.1 .3c-0.2 .9-0.7 1.4-1.4 1.5c.7 .5 .8 1.2 .5 2.2l-0.2 .7c-0.4 1.3-1.3 1.9-2.7 1.4l-2.2-0.6l2.6-8.7l2.1 .6c1.4 .4 1.8 1.2 1.4 2.6" fill="#f79432" fill-rule="nonzero"/></g><g transform="translate(298.2,35.8) scale(.961,2.101)"><path d="M0-1.7l1.8 .7l-0.5 1.2l-1.8-0.7l-1 2.5l2.3 .9l-0.5 1.2l-3.6-1.5l3.4-8.4l3.6 1.4l-0.5 1.3l-2.3-1l-0.9 2.4Z" fill="#f79432" fill-rule="nonzero"/></g><g transform="translate(304.2,45.9) scale(.961,2.101)"><path d="M0-6.5l-1.3 2.5l.5 .2c.5 .3 .9 .2 1.2-0.4l.4-0.8c.3-0.6 .3-1-0.2-1.2l-0.6-0.3Zm-2.2 7.6c0-0.2 .1-0.4 .4-1l.7-1.3c.3-0.7 .2-1.1-0.3-1.4l-0.5-0.3l-1.7 3.3l-1.3-0.6l4.2-8.1l1.9 1c1.4 .7 1.6 1.6 1 2.8l-0.4 .6c-0.4 .9-0.9 1.3-1.6 1.2l-0.1 .1c.5 .6 .4 1.3 0 2.1l-0.6 1.3c-0.2 .4-0.4 .6-0.4 1l-1.3-0.7Z" fill="#f79432" fill-rule="nonzero"/></g><g transform="translate(308.6,45.4) scale(.961,2.101)"><path d="M0 3.1c-0.4 .5-0.3 .9 .1 1.2c.3 .2 .7 .2 1.1-0.3l2.9-4c.4-0.5 .3-0.9-0.1-1.2c-0.4-0.2-0.7-0.2-1.1 .3l-2.9 4Zm1.7-4.7c.8-1.2 1.9-1.4 3.1-0.6c1.1 .8 1.2 1.9 .4 3.1l-2.8 3.9c-0.8 1.1-1.9 1.4-3.1 .5c-1.1-0.8-1.3-1.9-0.4-3.1l2.8-3.8Z" fill="#f79432" fill-rule="nonzero"/></g><g transform="translate(314.8,54.4) scale(.961,2.101)"><path d="M0 .2l1.4 1.2l-0.9 1l-1.4-1.2l-2.4 2.8l-1.1-1l6-6.8l2.8 2.5l-0.8 1l-1.8-1.6l-1.8 2.1Z" fill="#f79432" fill-rule="nonzero"/></g><g transform="translate(320.9,63.5) scale(.961,2.101)"><path d="M0 4.7l-0.9 .8c-1.1 1-2.2 1-3.1-0.1c-1-1-0.8-2.1 .3-3.1l3.6-3.1c1.1-0.9 2.2-0.9 3.1 .1c.9 1.1 .8 2.2-0.3 3.1l-0.7 .6l-0.9-1l.8-0.6c.4-0.5 .4-0.9 .1-1.2c-0.2-0.3-0.6-0.4-1.1 0l-3.7 3.2c-0.5 .5-0.5 .8-0.2 1.2c.3 .3 .6 .4 1.1 0l1-0.9l.9 1Z" fill="#f79432" fill-rule="nonzero"/></g><g transform="translate(321.5,76.5) scale(.961,2.101)"><path d="M0 1.6c-0.5 .4-0.6 .8-0.3 1.2c.3 .3 .6 .4 1.2 0l4-2.8c.5-0.4 .5-0.7 .3-1.1c-0.3-0.4-0.6-0.5-1.2-0.1l-4 2.8Zm3.1-3.9c1.2-0.9 2.3-0.7 3.1 .4c.9 1.2 .6 2.3-0.6 3.1l-3.8 2.8c-1.2 .8-2.4 .7-3.2-0.5c-0.8-1.1-0.5-2.3 .6-3.1l3.9-2.7Z" fill="#f79432" fill-rule="nonzero"/></g><g transform="translate(325.8,88.5) scale(.961,2.101)"><path d="M0 1.9l6.2-2.3l.9 1.8l-8 4.4l-0.6-1.2l5.7-3.2l-6.2 2.3l-0.7-1.2l5.2-4l-5.7 3.1l-0.6-1.1l8-4.4l1 1.8l-5.2 4Z" fill="#f79432" fill-rule="nonzero"/></g><g transform="translate(328.8,103.9) scale(.961,2.101)"><path d="M0 1.4l6.4-1.4l.7 1.9l-8.5 3.3l-0.5-1.3l6.1-2.4l-6.4 1.5l-0.5-1.3l5.6-3.3l-6 2.3l-0.5-1.2l8.5-3.2l.8 1.8l-5.7 3.3Z" fill="#f79432" fill-rule="nonzero"/></g><g transform="translate(333,120.3) scale(.961,2.101)"><path d="M0-1.4l.5 1.9l-1.3 .4l-0.5-1.9l-2.5 .6l.6 2.4l-1.3 .4l-1-3.8l8.9-2.3l.9 3.8l-1.2 .3l-0.6-2.4l-2.5 .6Z" fill="#f79432" fill-rule="nonzero"/></g><g transform="translate(336.6,133.5) scale(.961,2.101)"><path d="M0-2.6l-2.8 .4l.1 .6c.1 .5 .4 .8 1.1 .7l.9-0.1c.6-0.2 .9-0.4 .8-0.9l-0.1-0.7Zm-7.5 2.8c.3-0.1 .4-0.2 1.1-0.3l1.4-0.3c.9-0.1 1.1-0.4 1-1.1v-0.5l-3.7 .6l-0.2-1.4l9-1.4l.3 2.1c.2 1.5-0.3 2.2-1.7 2.4l-0.7 .2c-1 .1-1.6-0.1-2-0.7c-0.2 .8-0.8 1.1-1.8 1.3l-1.4 .2c-0.4 .1-0.7 .1-1 .3l-0.3-1.4Z" fill="#f79432" fill-rule="nonzero"/></g><g transform="translate(333.3,138.2) scale(.961,2.101)"><path d="M0 4.4l-1.2 .1c-1.5 .1-2.3-0.6-2.4-2c-0.1-1.4 .7-2.2 2.1-2.3l4.8-0.3c1.4-0.1 2.3 .6 2.4 2c.1 1.4-0.7 2.2-2.2 2.3h-0.9v-1.3l.9-0.1c.7 0 .9-0.3 .9-0.8c0-0.4-0.3-0.7-1-0.6l-4.9 .3c-0.6 0-0.8 .3-0.8 .7c0 .5 .3 .8 .9 .7h1.3l.1 1.3Z" fill="#f79432" fill-rule="nonzero"/></g><g transform="translate(335,155.8) scale(.961,2.101)"><path d="M0-1l-0.1 2l-1.3-0.1l.1-1.9l-2.7-0.1l-0.1 2.5l-1.3-0.1l.2-3.9l9.1 .3l-0.1 3.9h-1.3v-2.5l-2.5-0.1Z" fill="#f79432" fill-rule="nonzero"/></g><g transform="translate(260.9,244.2) scale(.961,2.101)"><path d="M0-6.3c.8 .3 1.2 0 1.5-0.4l.7 .3l-2.7 6.8l-1.1-0.5l2.1-5.1l-0.8-0.3l.3-0.8Z" fill="#f58220" fill-rule="nonzero"/></g><g transform="translate(265.4,241) scale(.961,2.101)"><path d="M0-0.9l.4-1.3c.1-0.5 0-0.7-0.4-0.8c-0.3-0.1-0.6 0-0.8 .5l-0.3 1.2c-0.2 .5 0 .8 .3 .9c.4 .1 .6 0 .8-0.5m.4 2.7c-0.4 1.2-1.1 1.6-2.2 1.3c-1.1-0.3-1.5-1.1-1.1-2.2v-0.2l1 .3v.2c-0.2 .5 0 .8 .3 .9c.4 .1 .7 0 .9-0.7l.4-1.3c-0.4 .4-0.7 .5-1.2 .4c-0.8-0.3-1.1-1-0.8-2l.4-1.3c.4-1.1 1.1-1.6 2.2-1.2c1.1 .3 1.5 1.1 1.2 2.2l-1.1 3.6Z" fill="#f58220" fill-rule="nonzero"/></g><g transform="translate(269.7,243.5) scale(.961,2.101)"><path d="M0-1.1l.2-1.3c.1-0.5-0.1-0.7-0.4-0.8c-0.4 0-0.6 .1-0.7 .6l-0.3 1.3c-0.1 .5 .1 .7 .5 .8c.3 .1 .6-0.1 .7-0.6m.7 2.7c-0.3 1.2-0.9 1.7-2.1 1.5c-1.1-0.2-1.6-1-1.3-2.1v-0.2l1.1 .2l-0.1 .3c-0.1 .5 .1 .7 .5 .8c.4 .1 .6-0.1 .7-0.8l.3-1.3c-0.3 .4-0.7 .5-1.2 .5c-0.8-0.2-1.1-0.9-0.9-1.9l.2-1.3c.2-1.2 1-1.7 2.1-1.5c1.1 .2 1.6 1 1.4 2.1l-0.7 3.7Z" fill="#f58220" fill-rule="nonzero"/></g><g transform="translate(275.4,250.7) scale(.961,2.101)"><path d="M0-6.8l-0.1 1l-2.2 6.1l-1.1-0.1l2.2-6.1l-2.3-0.2l.1-1l3.4 .3Z" fill="#f58220" fill-rule="nonzero"/></g><g transform="translate(278.4,243) rotate(172.6) skewX(-5.8) scale(-0.967,2.087)"><rect y="-1" width="2.1" height="1" fill="#f58220"/></g><g transform="translate(284.9,247.7) scale(.961,2.101)"><path d="M0-5.3c-0.4 .1-0.5 .3-0.4 .8l.1 .8l-1 .2l-0.2-0.7c-0.2-1.1 .2-1.9 1.3-2.1c1.1-0.2 1.8 .3 2.1 1.4c.2 1 0 1.8-0.9 3.1c-0.5 .9-0.6 1.3-0.5 1.6c0 .1 0 .1 0 .2l2.1-0.4l.2 1l-3.2 .6l-0.2-0.8c-0.1-0.8 0-1.5 .7-2.5c.7-1.1 .8-1.7 .6-2.5c-0.1-0.6-0.3-0.8-0.7-0.7" fill="#f58220" fill-rule="nonzero"/></g><g transform="translate(289.7,235.4) scale(.961,2.101)"><path d="M0 4.1c.2 .5 .4 .6 .8 .5c.3-0.1 .5-0.3 .3-0.8l-1.1-3.8c-0.2-0.5-0.5-0.6-0.8-0.5c-0.4 .1-0.5 .4-0.4 .9l1.2 3.7Zm-2.2-3.3c-0.4-1.2 0-2 1.1-2.3c1-0.3 1.8 .1 2.2 1.2l1.1 3.6c.4 1.2 0 2-1.1 2.3c-1.1 .3-1.9-0.1-2.2-1.2l-1.1-3.6Z" fill="#f58220" fill-rule="nonzero"/></g><g transform="translate(291.7,240.3) scale(.961,2.101)"><path d="M0-3.9c.8-0.3 .8-0.8 .8-1.3l.7-0.3l2.8 6.7l-1 .4l-2.2-5.1l-0.8 .4l-0.3-0.8Z" fill="#f58220" fill-rule="nonzero"/></g><g transform="translate(297.1,240.6) scale(.961,2.101)"><path d="M0-7.8l.5 .9l1.5 6.4l-1 .5l-1.5-6.3l-2 1.1l-0.5-0.9l3-1.7Z" fill="#f58220" fill-rule="nonzero"/></g><g transform="translate(256,68.1) scale(.961,2.101)"><path d="M0 2.3l1-0.5l-2.3-2.9h-0.1l1.4 3.4Zm3.4 .7l-1 .6l-0.8-1l-1.2 .7l.5 1.2l-1 .5l-2.6-6.9l1.5-0.8l4.6 5.7Z" fill="#f79432" fill-rule="nonzero"/></g><g transform="translate(258.9,67.7) scale(.961,2.101)"><path d="M0-2.4l2.1 4.9l-1 .4l-2.9-6.7l1.4-0.6l2.7 3.6l.1-0.1l-1.8-4l1-0.4l2.9 6.7l-1.1 .5l-3.4-4.3Z" fill="#f79432" fill-rule="nonzero"/></g><g transform="translate(263.6,64.3) scale(.961,2.101)"><path d="M0-2.7l1.5 5.1l-1 .3l-2.1-7l1.4-0.4l2.4 3.8l-1.3-4.2l1-0.3l2.1 7l-1.1 .4l-2.9-4.7Z" fill="#f79432" fill-rule="nonzero"/></g><g transform="translate(266.4,53) rotate(155.5) skewX(-19.1) scale(-1.034,1.953)"><rect x=".7" y="-7.1" width="1.2" height="7.3" fill="#f79432"/></g><g transform="translate(272.1,53.2) scale(.961,2.101)"><path d="M0 4.7l.2-6l1-0.1l-0.2 7.3l-1.7 .2l-2-7.1l1.1-0.1l1.6 5.8Z" fill="#f79432" fill-rule="nonzero"/></g><g transform="translate(276,58.8) scale(.961,2.101)"><path d="M0-1.1l1.6-0.1v1.1h-1.6v2.1h2v1.1h-3.1l-0.1-7.3h3.1v1h-1.9v2.1Z" fill="#f79432" fill-rule="nonzero"/></g><g transform="translate(280.5,63.6) scale(.961,2.101)"><path d="M0-5.3l-0.2 2.2l.4 .1c.5 0 .7-0.2 .8-0.7l.1-0.8c0-0.5-0.1-0.7-0.6-0.8h-0.5Zm.7 6.3c-0.1-0.2-0.1-0.3 0-0.9l.1-1.1c0-0.7-0.2-0.9-0.7-1h-0.4l-0.3 2.9l-1.1-0.1l.7-7.2l1.7 .1c1.2 .1 1.6 .7 1.5 1.8v.6c-0.1 .8-0.4 1.2-0.9 1.4c.5 .3 .7 .9 .6 1.6l-0.1 1.1c0 .4 0 .7 0 .9l-1.1-0.1Z" fill="#f79432" fill-rule="nonzero"/></g><g transform="translate(286,67.1) scale(.961,2.101)"><path d="M0-7.3c1.1 .2 1.5 1 1.3 2.1v.2l-1.1-0.2v-0.3c.1-0.5 0-0.7-0.4-0.8c-0.3-0.1-0.6 .1-0.7 .6c-0.1 .5 .1 1 .7 1.8c.8 1 .9 1.6 .8 2.4c-0.3 1.2-1 1.7-2.1 1.5c-1.1-0.2-1.5-1-1.3-2.1l.1-0.5l1.1 .2l-0.1 .6c-0.1 .5 .1 .7 .4 .8c.4 0 .6-0.1 .7-0.6c.1-0.5 0-1-0.6-1.8c-0.8-1-1-1.6-0.8-2.4c.2-1.2 .9-1.7 2-1.5" fill="#f79432" fill-rule="nonzero"/></g><g transform="translate(288.8,60.3) scale(.961,2.101)"><path d="M0 1.8l1.1 .4l.5-3.7l-1.6 3.3Zm1.8 3l-1.1-0.3l.2-1.4l-1.3-0.4l-0.6 1.2l-1-0.3l3.3-6.6l1.6 .5l-1.1 7.3Z" fill="#f79432" fill-rule="nonzero"/></g><g transform="translate(294.7,71.2) scale(.961,2.101)"><path d="M0-5.3l-0.9 2.1l.4 .2c.4 .1 .7 .1 .9-0.5l.3-0.6c.2-0.5 .2-0.8-0.2-1l-0.5-0.2Zm-1.4 6.2c0-0.2 0-0.3 .3-0.8l.4-1.1c.3-0.6 .2-0.9-0.3-1.1l-0.3-0.2l-1.2 2.7l-1.1-0.4l3-6.7l1.6 .7c1 .5 1.3 1.2 .8 2.2l-0.2 .6c-0.3 .6-0.7 1-1.3 1c.4 .5 .4 1 .1 1.7l-0.5 1.1c-0.1 .3-0.2 .5-0.2 .8l-1.1-0.5Z" fill="#f79432" fill-rule="nonzero"/></g><g transform="translate(297.2,67) scale(.961,2.101)"><path d="M0 2.3l1.2-5l1 .6l-0.9 3.3v.1l2.4-2.5l1 .6l-3.7 3.5l-1.2 2l-1-0.5l1.2-2.1Z" fill="#f79432" fill-rule="nonzero"/></g><g transform="translate(261.6,196.8) scale(.961,2.101)"><path d="M0-43.2c-3 0-4.8 1.6-4.8 5.9v6.4h-8.9v-5.8c0-9.5 4.8-15 14-15c9.1 0 13.9 5.5 13.9 15c0 7.9-2.9 14.3-11.6 23.5c-5.5 6-7 8.8-7 11.9c0 .4 0 .9 .1 1.3h17.6v8.5h-27v-7.3c0-6.6 2.4-11.7 9.4-19c7.1-7.5 9.1-12.2 9.1-18.6c0-5.3-1.8-6.8-4.8-6.8" fill="#f58220" fill-rule="nonzero"/></g><g transform="translate(287.9,118.4) scale(.961,2.101)"><path d="M0 32.1c0 4.3 1.9 5.9 4.8 5.9c3 0 4.9-1.6 4.9-5.9v-32.1c0-4.3-1.9-5.9-4.9-5.9c-2.9 0-4.8 1.6-4.8 5.9v32.1Zm-9.3-31.5c0-9.5 5-15 14.1-15c9.2 0 14.2 5.5 14.2 15v30.9c0 9.5-5 15-14.2 15c-9.1 0-14.1-5.5-14.1-15v-30.9Z" fill="#f58220" fill-rule="nonzero"/></g><g transform="translate(218.2,207.9) scale(.961,2.101)"><path d="M0-7.8l-3.5 .1c0 0 1.1 .6 3.4 4.4c2 3.3 4.1 3.3 4.1 3.3c0 0-4.4-1.4-4-7.8" fill="#f58220" fill-rule="nonzero"/></g><g transform="translate(217.8,207.3) scale(.961,2.101)"><path d="M0-10.4c-0.2 0 0 .2 0 .2c1 1.2 1 3.6 1 3.6c.1 .4 .3 1.9 .3 1.9c1.1 4.7 4.3 4.6 4.3 4.6c3-0.3 2.2-4 2.2-4c-0.8-5.6-7.8-6.3-7.8-6.3" fill="#f58220" fill-rule="nonzero"/></g><g transform="translate(224.2,204.8) scale(.961,2.101)"><path d="M0-11.4c-0.9 1.3-2.3 2.9-2.3 2.9c2.6 1.9 3.2 3.1 3.2 3.1c1.8 2.7 .4 5.4 .4 5.4c2.6-3.2 .3-6.6 .3-6.6c-2.1-3.4-1.6-4.8-1.6-4.8" fill="#f58220" fill-rule="nonzero"/></g><g transform="translate(228,182.4) scale(.961,2.101)"><path d="M0 0c0 0 0 0 0 0" fill="#f58220" fill-rule="nonzero"/></g><g transform="translate(225.2,197.5) scale(.961,2.101)"><path d="M0-5.3l1.4 2.6c1.3 2.5 .5 4.6 .5 4.6c.8-1.7 .6-3.6 .6-3.6c-0.6-4.5 .2-5.4 .4-5.5l-2.8 1.9h-0.1Z" fill="#f58220" fill-rule="nonzero"/></g><g transform="translate(335.3,207.9) rotate(-2.6) skewX(-2.1) scale(-0.961,2.099)"><path d="M-0.6-7.8c-0.2 6.5 4.2 7.7 4.2 7.7c0 0-2.1 .1-4.2-3.2c-2.4-3.8-3.5-4.4-3.5-4.4l3.5-0.1Z" fill="#f58220" fill-rule="nonzero"/></g><g transform="translate(334.9,195.2) scale(.961,2.101)"><path d="M0 1.1c0 0 .2-1.5 .3-2c0 0 0-2.4 1-3.6c0 0 .3-0.2 0-0.1c0 0-7 .7-7.8 6.2c0 0-0.8 3.7 2.2 4.1c0 0 3.2 .1 4.3-4.6" fill="#f58220" fill-rule="nonzero"/></g><g transform="translate(328.9,192.3) scale(.961,2.101)"><path d="M0 .6c0 0 .5-1.3 3.1-3.1c0 0-1.3-1.6-2.2-2.9c0 0 .4 1.4-1.6 4.7c0 0-2.4 3.5 .2 6.7c0 0-1.3-2.8 .5-5.4" fill="#f58220" fill-rule="nonzero"/></g><g transform="translate(327.3,192.1) scale(.961,2.101)"><path d="M0-0.2l1.4-2.5v-0.1l-2.8-1.8c.1 .1 .9 .9 .3 5.5c0 0-0.2 1.9 .7 3.5c0 0-0.9-2.1 .4-4.6" fill="#f58220" fill-rule="nonzero"/></g><g transform="translate(325.9,182.4) scale(.961,2.101)"><path d="M0 0c0 0 0 0 0 0Z" fill="#f58220" fill-rule="nonzero"/></g></g><g transform="translate(46.5,-16.8) scale(1.148,1.148)"><g transform="translate(59.6,42.5) scale(2.318,5.069)"><path d="M0 24.8c0 0-9.9-6.9-3.9-22.8l-8.8-2.5c0 0 2.3 2.4 5.1 13.7c2.4 10 8.1 12.1 7.6 11.6" fill="#c52026" fill-rule="nonzero"/></g><g transform="translate(53.4,171.6) scale(2.318,5.069)"><path d="M0-30.9c0 0 17 7.4 14.6 21.9c0 0-1.1 9.3-8.8 8.3c0 0-8-2.1-7.1-14.7c0 0 .7-4.1 .9-5.2c0 0 1.9-6 .2-9.9c0 0-0.4-0.7 .2-0.4" fill="#c52026" fill-rule="nonzero"/></g><g transform="translate(77.8,136.7) scale(2.318,5.069)"><path d="M0-18.6c0 0 4.7-2.9 8-5.4c0 0-2.2 3 .2 13.1c0 0 3.1 10.4-5.9 16.3c0 0 5.5-5.7 3.1-13.8c0 0-0.3-3.5-5.4-10.2" fill="#c52026" fill-rule="nonzero"/></g><g transform="translate(98,137.9) scale(2.318,5.069)"><path d="M0-17.1l8.5-2.4c0 0-3 .5-5.3 13.5c0 0-1 4.9-4.4 8.3c0 0 3.9-4.5 2.6-11.8l-1.6-7.5l.2-0.1" fill="#c52026" fill-rule="nonzero"/></g><g transform="translate(.1,201.9) scale(2.318,5.069)"><path d="M0-0.5c.4 0 .8 0 .9-0.1c.2 0 .3-0.1 .4-0.3c.1-0.1 .2-0.3 .2-0.5c0-0.1 .1-0.1 .1-0.1h.3c0 0 0 0 0 .1c0 .2 0 .6 0 .9c0 .4 0 .9 .1 1.1c0 0-0.1 0-0.1 0l-0.2 .1c-0.1 0-0.1 0-0.1-0.1c0-0.1-0.1-0.3-0.2-0.4c-0.1-0.2-0.3-0.3-0.5-0.4c-0.2 0-0.5 0-0.9 0v.5c0 .5 0 1.4 0 1.5c0 .5 .1 .7 .3 .7c.1 .1 .3 .1 .7 .1c.2 0 .6 0 .7 0c.2 0 .5-0.1 .7-0.3c.3-0.2 .8-0.8 .9-1c.1 0 .1 0 .1 0l.2 .1c0 0 0 0 0 .1l-0.4 1.3c0 .1-0.1 .2-0.2 .2c0 0-0.2-0.1-0.8-0.1c-0.6 0-1.5 0-3.1 0c-0.3 0-0.6 0-0.8 0c-0.2 0-0.3 .1-0.4 .1c0 0 0-0.1 0-0.1v-0.2c0-0.1 0-0.1 .1-0.1h.2c.4 0 .5-0.1 .5-0.4v-3c0-0.8 0-1.9-0.1-2c0-0.2-0.1-0.3-0.3-0.3h-0.4c0 0 0 0 0-0.1v-0.2c0 0 0-0.1 0-0.1c.2 0 .6 0 1.4 0h3.1c.2 0 .4 0 .4 0c0 0 .1 0 .1 .1c0 .1 .3 1.3 .3 1.4c.1 .1 .1 .1 0 .1l-0.1 .1c-0.1 0-0.1 0-0.1-0.1c-0.1 0-0.9-0.8-1.1-1c-0.2-0.1-0.4-0.2-0.7-0.2h-1.2v2.6" fill="#2b3990" fill-rule="nonzero"/></g><g transform="translate(26.8,198.1) scale(2.318,5.069)"><path d="M0 1.1c0-0.8 0-1.3 0-1.7c0-0.4-0.1-1.3-0.1-1.4c-0.1-0.2-0.3-0.4-0.5-0.4h-0.3c0 0 0 0 0 0v-0.3c0 0 0 0 .1 0c.1 0 .3 0 1 0c.5 0 .8 0 .9 0c0 0 .1 0 .1 0v.3c0 0-0.1 0-0.1 0h-0.2c-0.2 0-0.3 .2-0.3 .5c-0.1 .6-0.2 2.7-0.2 3.8v1.6c0 .1 0 .3-0.2 .3c-0.1 0-0.2-0.1-0.3-0.2c-0.2-0.1-0.6-0.6-1.1-1.2c-0.7-0.8-1.4-1.7-1.6-1.9c-0.1-0.1-1.4-1.7-1.6-2h-0.1v1.8c0 .8 .1 1.9 .1 2.2c0 .6 .2 .8 .6 .8h.2c.1 0 .1 .1 .1 .1v.2c0 .1 0 .1-0.1 .1c-0.1 0-0.6 0-1 0c-0.3 0-0.9 0-1 0c-0.1 0-0.1 0-0.1-0.1v-0.2c0 0 0-0.1 .1-0.1h.3c.2 0 .3-0.3 .4-0.9c0-0.1 .1-1.6 .1-2.9v-0.8c0-0.5-0.4-1.1-0.8-1.1h-0.2c-0.1 0-0.1 0-0.1 0v-0.3c0 0 0 0 .1 0c0 0 .1 0 .2 0c.2 0 .5 0 1 0c.3 0 .6 0 .7 0c.1 0 .2 0 .2 .1c.1 0 1.9 2.2 2.1 2.6c.1 .1 1.5 1.8 1.6 1.9v-0.8" fill="#2b3990" fill-rule="nonzero"/></g><g transform="translate(35.7,201.9) scale(2.318,5.069)"><path d="M0-0.5c.4 0 .8 0 .9-0.1c.2 0 .3-0.1 .4-0.3c.1-0.1 .2-0.3 .2-0.5c0-0.1 .1-0.1 .1-0.1h.3c0 0 0 0 0 .1c0 .2 0 .6 0 .9c0 .4 0 .9 .1 1.1c0 0-0.1 0-0.1 0l-0.2 .1c-0.1 0-0.1 0-0.1-0.1c0-0.1-0.1-0.3-0.2-0.4c-0.1-0.2-0.3-0.3-0.5-0.4c-0.2 0-0.5 0-0.9 0v.5c0 .5 0 1.4 0 1.5c0 .5 .1 .7 .3 .7c.1 .1 .3 .1 .7 .1c.2 0 .6 0 .7 0c.2 0 .5-0.1 .7-0.3c.3-0.2 .8-0.8 .9-1c.1 0 .1 0 .1 0l.2 .1c0 0 0 0 0 .1l-0.4 1.3c0 .1-0.1 .2-0.2 .2c0 0-0.2-0.1-0.8-0.1c-0.6 0-1.5 0-3.1 0c-0.3 0-0.6 0-0.8 0c-0.2 0-0.3 .1-0.4 .1c0 0 0-0.1 0-0.1v-0.2c0-0.1 0-0.1 .1-0.1h.2c.4 0 .5-0.1 .5-0.4v-3c0-0.8 0-1.9-0.1-2c0-0.2-0.1-0.3-0.3-0.3h-0.4c0 0 0 0 0-0.1v-0.2c0 0 0-0.1 0-0.1c.2 0 .6 0 1.4 0h3.1c.2 0 .4 0 .4 0c0 0 .1 0 .1 .1c0 .1 .3 1.3 .3 1.4c.1 .1 .1 .1 0 .1l-0.1 .1c-0.1 0-0.1 0-0.1-0.1c-0.1 0-0.9-0.8-1.1-1c-0.2-0.1-0.4-0.2-0.7-0.2h-1.2v2.6" fill="#2b3990" fill-rule="nonzero"/></g><g transform="translate(50.6,212.7) scale(2.318,5.069)"><path d="M0-5.2h-0.3c-0.3 0-0.8 0-1.2 .2c-0.2 .1-0.6 .7-0.8 1c-0.1 0-0.1 .1-0.1 .1l-0.2-0.1c-0.1 0-0.1-0.1-0.1-0.1c.1-0.4 .4-1.6 .5-1.7c0-0.2 0-0.2 .1-0.2c.1 0 .1 0 .2 .1c.1 .2 .2 .2 .6 .3c.4 0 .8 0 1.8 0h.5c1 0 1.4 0 1.7 0c.2 0 .6-0.2 .7-0.3c.1 0 .1-0.1 .2-0.1c.1 0 .1 0 .1 .1c0 .2 .2 1.4 .3 1.8c0 .1 0 .1-0.1 .1l-0.1 .1c-0.1 0-0.1 0-0.1-0.1c-0.2-0.3-0.6-0.8-0.8-1c-0.2-0.1-1-0.2-1.2-0.2h-0.3v2.5c0 .1 0 2.7 0 2.8c0 .2 .1 .4 .3 .4h.4c.1 0 .1 0 .1 .1v.2c0 0 0 0-0.1 0c-0.1 0-0.4 0-1.4 0c-1 0-1.3 0-1.5 0c0 0 0 0 0-0.1v-0.1c0-0.1 0-0.1 0-0.1h.5c.2 0 .3-0.1 .3-0.3c0-0.2 0-3 0-3.1v-2.3" fill="#2b3990" fill-rule="nonzero"/></g><g transform="translate(62.7,202.4) scale(2.318,5.069)"><path d="M0-0.7c0-0.6 0-1.8 0-1.9c0-0.5-0.1-0.6-0.3-0.6h-0.4c-0.1 0-0.1 0-0.1-0.1v-0.2c0 0 0-0.1 .1-0.1c.1 0 .4 0 1.3 0c.9 0 1.2 0 1.4 0c.1 0 .1 0 .1 .1v.2c0 .1 0 .1-0.1 .1h-0.2c-0.3 0-0.4 .1-0.4 .5c0 .1-0.1 1.3-0.1 1.8v.1c0 .1 .1 .1 .2 .1h2.7c.1 0 .2 0 .2-0.1v-0.1c0-0.5-0.1-1.8-0.1-1.8c0-0.3-0.1-0.5-0.2-0.5h-0.4c-0.1 0-0.1 0-0.1-0.1v-0.2c0-0.1 0-0.1 .1-0.1c.2 0 .6 0 1.3 0c.8 0 1.1 0 1.3 0c.1 0 .1 0 .1 .1v.2c0 .1 0 .1-0.1 .1h-0.3c-0.3 0-0.3 .1-0.3 .5c0 .1 0 1.6 0 1.9v.3c0 .3 0 2 0 2.5c0 .4 .1 .5 .4 .5h.3c.1 0 .1 0 .1 .1v.2c0 0 0 .1-0.1 .1c-0.2 0-0.5-0.1-1.3-0.1c-0.9 0-1.2 .1-1.4 .1c-0.1 0-0.1-0.1-0.1-0.1v-0.2c0-0.1 0-0.1 .1-0.1h.4c.2 0 .2-0.2 .2-0.4c0-0.4 .1-1.9 .1-2.2v-0.1c0-0.1-0.1-0.1-0.2-0.1h-2.7c-0.1 0-0.2 0-0.2 .1v.2c0 .2 .1 1.6 .1 2.2c0 .2 .1 .3 .3 .3h.2c.1 0 .1 0 .1 .1v.2c0 0 0 .1-0.1 .1c-0.1 0-0.4-0.1-1.2-0.1c-0.9 0-1.2 .1-1.4 .1c-0.1 0-0.1-0.1-0.1-0.1v-0.2c0-0.1 0-0.1 .1-0.1h.4c.2 0 .3-0.2 .3-0.4c0-0.4 0-2.2 0-2.4v-0.4" fill="#2b3990" fill-rule="nonzero"/></g><g transform="translate(84.4,201.9) scale(2.318,5.069)"><path d="M0-0.5c.4 0 .8 0 .9-0.1c.2 0 .3-0.1 .4-0.3c.1-0.1 .2-0.3 .2-0.5c0-0.1 .1-0.1 .1-0.1h.3c0 0 0 0 0 .1c0 .2 0 .6 0 .9c0 .4 0 .9 .1 1.1c0 0-0.1 0-0.1 0l-0.2 .1c-0.1 0-0.1 0-0.1-0.1c0-0.1-0.1-0.3-0.2-0.4c-0.1-0.2-0.3-0.3-0.5-0.4c-0.2 0-0.5 0-0.9 0v.5c0 .5 0 1.4 0 1.5c0 .5 .1 .7 .3 .7c.1 .1 .3 .1 .7 .1c.2 0 .6 0 .7 0c.2 0 .5-0.1 .7-0.3c.3-0.2 .8-0.8 .9-1c.1 0 .1 0 .1 0l.2 .1c0 0 0 0 0 .1l-0.4 1.3c0 .1-0.1 .2-0.2 .2c0 0-0.2-0.1-0.8-0.1c-0.6 0-1.5 0-3.1 0c-0.3 0-0.6 0-0.8 0c-0.2 0-0.3 .1-0.4 .1c0 0 0-0.1 0-0.1v-0.2c0-0.1 0-0.1 .1-0.1h.2c.4 0 .5-0.1 .5-0.4v-3c0-0.8 0-1.9-0.1-2c0-0.2-0.1-0.3-0.3-0.3h-0.4c0 0 0 0 0-0.1v-0.2c0 0 0-0.1 0-0.1c.2 0 .6 0 1.4 0h3.1c.2 0 .4 0 .4 0c.1 0 .1 0 .1 .1c0 .1 .3 1.3 .3 1.4c.1 .1 .1 .1 0 .1l-0.1 .1c-0.1 0-0.1 0-0.1-0.1c-0.1 0-0.9-0.8-1.1-1c-0.2-0.1-0.4-0.2-0.7-0.2h-1.2v2.6" fill="#2b3990" fill-rule="nonzero"/></g><g transform="translate(98.4,200.2) scale(2.318,5.069)"><path d="M0 .1c.2 0 .3 0 .4 0c1.1 0 1.4-1.1 1.4-1.5c0-0.4-0.1-0.8-0.3-1c-0.3-0.3-0.7-0.4-1-0.4c-0.2 0-0.3 0-0.4 0c0 .1 0 .2-0.1 .3v2.6Zm-1.3-0.9c0-0.7 0-1.3 0-1.5c0-0.3-0.1-0.5-0.2-0.5h-0.4c0 0 0 0 0 0v-0.3c0 0 0-0.1 0-0.1c.1 0 .4 .1 1.4 .1c.5 0 1.3-0.1 1.6-0.1c.7 0 1.3 .3 1.6 .6c.3 .3 .5 .7 .5 1c0 1.2-0.8 1.7-1.6 1.8c.3 .1 .4 .3 .6 .5c.1 .1 .6 .9 .7 1c0 .1 .5 .8 .7 1c.1 .1 .4 .2 .6 .2c.1 0 .1 0 .1 .1v.2c0 .1 0 .1-0.1 .1c0 0-0.3 0-1 0c-0.2 0-0.5 0-0.8 0c-0.3-0.2-0.8-1.3-1-1.6c-0.3-0.6-0.7-1.3-1.1-1.3h-0.3v.5c0 .5 0 1.5 0 1.7c.1 .1 .1 .3 .3 .3h.3c.1 0 .1 0 .1 .1v.2c0 .1 0 .1-0.1 .1c-0.1 0-0.3 0-1.2 0c-1 0-1.2 0-1.3 0c-0.1 0-0.1 0-0.1-0.1v-0.2c0-0.1 0-0.1 .1-0.1h.3c.2 0 .3-0.1 .3-0.3c0-0.9 0-1.7 0-2.6v-0.8" fill="#2b3990" fill-rule="nonzero"/></g><g transform="translate(113.7,198.7) scale(2.318,5.069)"><path d="M0 .7c0 .2 0 2.1 0 2.5h.5c.5 0 .9 0 1.4 0c.4-0.1 1.1-1.2 1.2-1.5c0-0.1 0-0.1 .1-0.1l.2 .1c0 0 0 0 0 .1c0 .1-0.4 1.5-0.4 1.8c-0.3 0-2.9 0-3.7 0c-0.9 0-1.2 0-1.3 0c-0.1 0-0.1 0-0.1-0.1v-0.2c0-0.1 0-0.1 .1-0.1h.2c.4 0 .4-0.1 .4-0.2c0-0.2 0-2.4 0-3v-0.5c0-0.6 0-1.5 0-1.7c0-0.2 0-0.3-0.2-0.3h-0.4c0 0 0 0 0-0.1v-0.2c0 0 0 0 0 0c.1 0 .4 0 1.3 0c1 0 1.4 0 1.5 0c0 0 .1 0 .1 0v.2c0 .1-0.1 .1-0.1 .1h-0.5c-0.2 0-0.3 .1-0.3 .4c0 .1 0 1.4 0 2.1v.7" fill="#2b3990" fill-rule="nonzero"/></g><g transform="translate(130.1,197.3) scale(2.318,5.069)"><path d="M0 1c-0.1-0.3-0.6-2.2-0.7-2.4c0-0.1 0-0.2-0.1-0.2c0 0-0.1 0-0.1 .1c0 .1-0.8 2.3-0.9 2.5h1.8Zm-1.9 .4c-0.1 .2-0.5 1.4-0.5 1.7c0 .2 .1 .4 .3 .4h.4c.1 0 .1 0 .1 .1v.2c0 0 0 .1-0.1 .1c-0.1 0-0.5-0.1-1.2-0.1c-0.7 0-0.9 .1-1 .1c-0.1 0-0.1-0.1-0.1-0.2v-0.1c0-0.1 0-0.1 .1-0.1h.2c.2 0 .4-0.1 .6-0.4c.1-0.2 .8-1.8 1.1-2.6c.1-0.1 .8-2.1 .9-2.3c0-0.1 0-0.2 0-0.3c-0.1-0.1-0.1-0.1-0.1-0.1c0-0.1 0-0.1 .1-0.1c.3-0.1 .9-0.3 1-0.5c.1 0 .1-0.1 .1-0.1c.1 0 .1 .1 .1 .2c.2 .6 .9 2.6 1.1 3.2c.2 .7 .8 2.3 .9 2.6c.1 .3 .4 .4 .5 .4h.3c.1 0 .1 0 .1 .1v.1c0 .1 0 .2-0.1 .2c-0.2 0-0.4-0.1-1.5-0.1c-0.8 0-1.1 .1-1.3 .1c0 0-0.1-0.1-0.1-0.2v-0.1c0-0.1 .1-0.1 .1-0.1h.3c.2 0 .3-0.1 .2-0.3c-0.1-0.4-0.4-1.5-0.5-1.8h-2" fill="#2b3990" fill-rule="nonzero"/></g><g transform="translate(150.5,198.1) scale(2.318,5.069)"><path d="M0 1.1c0-0.8 0-1.3 0-1.7c0-0.4-0.1-1.3-0.1-1.4c-0.1-0.2-0.3-0.4-0.5-0.4h-0.3c0 0 0 0 0 0v-0.3c0 0 0 0 .1 0c.1 0 .3 0 1 0c.5 0 .8 0 .9 0c0 0 .1 0 .1 0v.3c0 0-0.1 0-0.1 0h-0.2c-0.2 0-0.3 .2-0.3 .5c-0.1 .6-0.2 2.7-0.2 3.8v1.6c0 .1 0 .3-0.2 .3c-0.1 0-0.2-0.1-0.3-0.2c-0.2-0.1-0.6-0.6-1.1-1.2c-0.7-0.8-1.4-1.7-1.6-1.9c-0.1-0.1-1.4-1.7-1.6-2h-0.1v1.8c0 .8 .1 1.9 .1 2.2c0 .6 .2 .8 .6 .8h.2c.1 0 .1 .1 .1 .1v.2c0 .1 0 .1-0.1 .1c-0.1 0-0.6 0-1 0c-0.3 0-0.9 0-1 0c-0.1 0-0.1 0-0.1-0.1v-0.2c0 0 0-0.1 .1-0.1h.3c.2 0 .3-0.3 .4-0.9c0-0.1 .1-1.6 .1-2.9v-0.8c0-0.5-0.4-1.1-0.8-1.1h-0.2c-0.1 0-0.1 0-0.1 0v-0.3c0 0 0 0 .1 0c0 0 .1 0 .2 0c.2 0 .5 0 1 0c.3 0 .6 0 .7 0c.1 0 .2 0 .2 .1c.1 0 1.9 2.2 2.1 2.6c.1 .1 1.5 1.8 1.6 1.9v-0.8" fill="#2b3990" fill-rule="nonzero"/></g><g transform="translate(159.4,200.9) scale(2.318,5.069)"><path d="M0-0.1c0 .1 0 1.6 0 2.2c0 .1 .1 .3 .2 .5c.1 .1 .4 .2 .7 .2c.5 0 1.2-0.3 1.7-0.9c.3-0.5 .6-1.2 .6-2.1c0-0.7-0.3-1.5-0.7-1.9c-0.5-0.6-1.3-0.8-1.8-0.8c-0.3 0-0.4 0-0.5 0c-0.1 .1-0.2 .2-0.2 .4c0 .4 0 1.6 0 1.7v.7Zm-1.4-0.9c0-0.3 0-1.5 0-1.7c0-0.2-0.1-0.2-0.3-0.2h-0.4c-0.1 0-0.1 0-0.1-0.1v-0.2c0-0.1 0-0.1 0-0.1c.2 0 .6 0 1.5 0c.2 0 1.1 0 1.3 0c1.2 0 2.2 .1 3.1 .8c.6 .5 1 1.3 1 2.3c0 1.1-0.3 1.7-0.9 2.4c-0.9 .9-2.4 .9-3 .9c-0.2 0-1.2 0-1.7 0c-0.8 0-1.2 0-1.3 0c0 0 0 0 0 0v-0.3c0 0 0 0 0 0h.5c.2 0 .3-0.1 .3-0.2c0-0.2 0-2.3 0-2.9v-0.7" fill="#2b3990" fill-rule="nonzero"/></g><g transform="translate(173.5,194.3) scale(2.318,5.069)"><path d="M0 2.4c0 0 .1 0 .1 .1c0 .3 .1 .7 .3 1c.3 .4 .7 .6 1.2 .6c.4 0 1.1-0.3 1.1-1c0-0.7-0.2-0.9-1.3-1.4c-0.3-0.1-0.9-0.4-1.3-0.8c-0.4-0.2-0.5-0.7-0.5-1.2c0-0.6 .1-1 .7-1.4c.4-0.3 .7-0.4 1.3-0.4c.6 0 1 .1 1.2 .2c.1 0 .1 0 .2-0.1l.1-0.1c0 0 .1 0 .1 0c.1 0 .1 .1 .1 .1l.2 1.6c0 0 0 0-0.1 0l-0.2 .1c0 0-0.1 0-0.1-0.1c-0.1-0.2-0.2-0.6-0.5-0.9c-0.3-0.3-0.5-0.4-0.9-0.4c-0.7 0-1 .6-1 .8c0 .4 0 .6 .2 .9c.3 .2 .8 .4 1.2 .5c.5 .2 .8 .4 1.2 .7c.3 .3 .5 .7 .5 1.4c0 1.1-0.8 2-2 2c-0.8 0-1.2-0.2-1.6-0.4c-0.1-0.1-0.2-0.1-0.2-0.1c-0.1 0-0.1 0-0.2 .1c0 .1-0.1 .1-0.1 .1c-0.1 0-0.2 0-0.2-0.1l.2-1.7c0-0.1 0-0.1 .1-0.1h.2" fill="#2b3990" fill-rule="nonzero"/></g><g transform="translate(0,234.2) scale(2.318,5.069)"><path d="M0 1.8c0 0 0 .1 0 .1c-0.3 .4-0.7 .8-1.4 .8c-0.6 0-1-0.2-1.3-0.5c-0.3-0.3-0.5-0.8-0.5-1.3c0-0.4 .2-0.9 .5-1.2c.3-0.3 .7-0.6 1.2-0.6c.5 0 .8 .2 1 .3c.1 0 .1 0 .1 0v-0.1c.1-0.1 .1-0.1 .1-0.1c.1 0 .1 0 .1 .1c0 .1 .1 .9 .1 1c0 0 0 0 0 0l-0.1 .1c0 0 0 0-0.1-0.1c0-0.1-0.1-0.4-0.3-0.6c-0.2-0.2-0.5-0.4-0.9-0.4c-0.7 0-1 .7-1 1.4c0 .3 0 .9 .4 1.3c.3 .3 .6 .3 .8 .3c.5 0 1-0.2 1.2-0.5c0 0 0-0.1 0 0h.1" fill="#c52026" fill-rule="nonzero"/></g><g transform="translate(3.5,238.7) scale(2.318,5.069)"><path d="M0 .1c-0.1 0-0.1 0-0.1 0v.2c0 .2 0 .8 .1 1.1c0 .1 0 .1 .1 .1h.2c0 0 0 .1 0 .1v.1c0 0 0 0 0 0c-0.1 0-0.3 0-0.7 0c-0.4 0-0.6 0-0.7 0c0 0 0 0 0 0v-0.1c0 0 0-0.1 0-0.1h.3c.1 0 .1-0.1 .1-0.2c0-0.2 0-0.8 0-1.1v-0.6c0-0.1 0-0.7 0-0.8c0-0.2 0-0.3-0.2-0.3h-0.2c0 0 0 0 0 0v-0.1c0-0.1 0-0.1 0-0.1c.1 0 .3 0 .7 0c.5 0 .6 0 .7 0c.1 0 .1 0 .1 .1v.1c0 0 0 0-0.1 0h-0.1c-0.2 0-0.2 .1-0.2 .3c0 0-0.1 .7-0.1 .8v.2c0 0 0 .1 .1 .1h1.6c0 0 .1-0.1 .1-0.1v-0.2c0-0.1-0.1-0.8-0.1-0.8c0-0.2 0-0.3-0.1-0.3h-0.2c0 0 0 0 0 0v-0.1c0-0.1 0-0.1 0-0.1c.1 0 .3 0 .7 0c.3 0 .5 0 .6 0c0 0 .1 0 .1 .1v.1c0 0-0.1 0-0.1 0h-0.2c-0.1 0-0.1 .1-0.1 .3c0 0 0 .7 0 .8v.5c0 .3 0 .9 0 1.2c0 .2 0 .2 .2 .2h.2c0 0 0 .1 0 .1v.1c0 0 0 0-0.1 0c0 0-0.2 0-0.6 0c-0.5 0-0.6 0-0.7 0c-0.1 0-0.1 0-0.1 0v-0.1c0 0 0-0.1 .1-0.1h.2c.1 0 .1 0 .1-0.2c.1-0.2 .1-1 .1-1.1v-0.1c0 0-0.1 0-0.1 0h-1.6" fill="#c52026" fill-rule="nonzero"/></g><g transform="translate(15.2,237.1) scale(2.318,5.069)"><path d="M0 .5c0-0.1-0.4-1.2-0.4-1.3c0-0.1 0-0.1 0-0.1c-0.1 0-0.1 0-0.1 .1c0 0-0.5 1.2-0.5 1.3h1Zm-1.1 .2c0 .1-0.2 .8-0.3 .9c0 .1 0 .1 0 .1c0 .1 .1 .1 .2 .1h.2c0 0 .1 .1 .1 .1v.1c0 0-0.1 0-0.1 0c-0.1 0-0.3 0-0.6 0c-0.3 0-0.4 0-0.5 0c0 0 0 0 0 0v-0.1c0 0 0-0.1 0-0.1h.1c.2 0 .3 0 .3-0.2c.1-0.1 .4-0.9 .6-1.3c0-0.1 .4-1.1 .4-1.3c.1 0 .1-0.1 .1-0.1c-0.1 0-0.1-0.1-0.1-0.1c0 0 0 0 .1 0c.1-0.1 .4-0.2 .4-0.3c.1 0 .1 0 .1 0c0 0 .1 0 .1 .1c.1 .3 .4 1.3 .5 1.6c.1 .4 .4 1.3 .5 1.4c.1 .2 .2 .2 .3 .2h.2c0 0 0 .1 0 .1v.1c0 0 0 0 0 0c-0.1 0-0.2 0-0.8 0c-0.4 0-0.5 0-0.6 0c-0.1 0-0.1 0-0.1 0v-0.1c0 0 0-0.1 .1-0.1h.1c.1 0 .2 0 .1-0.1c0-0.2-0.2-0.8-0.3-1h-1.1" fill="#c52026" fill-rule="nonzero"/></g><g transform="translate(27.2,239) scale(2.318,5.069)"><path d="M0-0.1c0-0.1 0-1.3 0-1.3c-0.1 0-0.7 1.4-0.7 1.6c-0.1 .1-0.6 1.2-0.6 1.3c0 0-0.1 .1-0.1 .1c0 0-0.1 0-0.1-0.1c0 0-0.6-1.5-0.7-1.6c0-0.2-0.5-1.3-0.5-1.3c-0.1 0-0.1 1.2-0.1 1.3c0 .1 0 .9 .1 1.2c0 .2 0 .4 .2 .4h.2c0 0 0 0 0 0v.1c0 0 0 .1 0 .1c-0.1 0-0.2 0-0.6 0c-0.4 0-0.5 0-0.6 0c0 0 0 0 0-0.1v-0.1c0 0 0 0 0 0h.2c.2 0 .2-0.2 .3-0.4c0-0.3 0-1.5 0-1.6v-0.8c0-0.1 0-0.3-0.2-0.3h-0.2c0 0 0 0 0 0v-0.1c0 0 0 0 0 0c0 0 .2 0 .7 0c.2 0 .3 0 .4 0c.1 0 .1 0 .1 0c.2 .5 .9 2.1 1 2.5c0-0.1 .4-0.9 .5-1.2c.1-0.2 .5-1.2 .5-1.3c.1 0 .1 0 .2 0c.7 0 .9 0 .9 0c.1 0 .1 0 .1 0v.1c0 0 0 0-0.1 0h-0.2c-0.1 0-0.1 .1-0.1 .2c0 .1 0 1.1 0 1.2v.4c0 .2 0 .9 0 1c0 .2 0 .3 .1 .3h.3c0 0 0 0 0 0v.1c0 0 0 .1 0 .1c-0.1 0-0.3 0-0.7 0c-0.5 0-0.7 0-0.7 0c-0.1 0-0.1-0.1-0.1-0.1v-0.1c0 0 0 0 .1 0h.2c.1 0 .2-0.1 .2-0.2c0 0 0-0.7 0-1.1v-0.3" fill="#c52026" fill-rule="nonzero"/></g><g transform="translate(33,234.2) scale(2.318,5.069)"><path d="M0 1.8c0 .5 .1 .7 .4 .7c.4 0 .7-0.2 .7-0.8c0-0.4-0.2-0.6-0.4-0.7c-0.2-0.1-0.4-0.1-0.6-0.1h-0.1v.9Zm0-1.1c.1 0 .1 0 .2 0c.2 0 .4 0 .5-0.1c.2-0.2 .3-0.4 .3-0.6c0-0.2-0.1-0.3-0.2-0.5c-0.2-0.1-0.4-0.1-0.6-0.1c0 0-0.1 0-0.1 0c-0.1 0-0.1 0-0.1 .1c0 0 0 .5 0 .9v.3Zm-0.6-0.2c0-0.1 0-0.7 0-0.8c0-0.3-0.1-0.3-0.3-0.3h-0.1c-0.1 0-0.1 0-0.1 0v-0.1c0-0.1 0-0.1 .1-0.1c0 0 .3 0 .7 0c.1 0 .4 0 .7 0c.3 0 .6 0 .8 .1c.3 .2 .4 .4 .4 .7c0 .4-0.2 .6-0.7 .8c.6 .1 .9 .4 .9 .9c0 .3-0.2 .6-0.4 .8c-0.2 .1-0.5 .1-1 .1c-0.2 0-0.5 0-0.7 0c-0.4 0-0.6 0-0.7 0c0 0 0 0 0 0v-0.1c0-0.1 0-0.1 0-0.1h.2c.1 0 .2 0 .2-0.2c0-0.1 0-0.7 0-1.1v-0.6" fill="#c52026" fill-rule="nonzero"/></g><g transform="translate(40.9,237.3) scale(2.318,5.069)"><path d="M0 .6c0 .3 0 .7 0 .8c0 .3 .1 .4 .2 .4c.1 0 .2 0 .4 0c.1 0 .3 0 .4 0c.1 0 .2 0 .4-0.1c.1-0.1 .3-0.4 .4-0.6c0 0 .1 0 .1 0v.1c.1 0 .1 0 .1 0l-0.3 .7c0 .1 0 .1-0.1 .1c0 0-0.1 0-0.4 0c-0.3 0-0.8 0-1.6 0c-0.2 0-0.3 0-0.4 0c-0.1 0-0.2 0-0.2 0c0 0 0 0 0 0v-0.1c0-0.1 0-0.1 0-0.1h.2c.2 0 .2 0 .2-0.2v-1.6c0-0.4 0-1 0-1c0-0.2-0.1-0.2-0.2-0.2h-0.2c0 0 0 0 0 0v-0.2c0 0 0 0 0 0c.1 0 .3 0 .7 0h.1c.2 0 1.3 0 1.5 0c.1 0 .2 0 .2 0c0 0 0 0 0 0c.1 .1 .2 .7 .3 .8c0 0 0 0-0.1 0v.1c-0.1 0-0.1 0-0.1 0c0-0.1-0.4-0.5-0.5-0.6c-0.1 0-0.2-0.1-0.4-0.1h-0.7v1.4c.1 0 .5-0.1 .5-0.1c.1 0 .2 0 .3-0.1c0-0.1 0-0.2 0-0.3c0 0 .1 0 .1 0h.1c0 0 0 0 0 0c0 .1 0 .4 0 .5c0 .2 0 .4 0 .5c0 .1 0 .1 0 .1h-0.1c0 0 0 0 0 0c-0.1-0.1-0.1-0.2-0.1-0.3c-0.1-0.1-0.1-0.1-0.2-0.1c-0.2-0.1-0.5-0.1-0.6-0.1v.3" fill="#c52026" fill-rule="nonzero"/></g><g transform="translate(48.5,238.8) scale(2.318,5.069)"><path d="M0 0c.1 0 .1 0 .2 0c.7 0 .9-0.6 .9-0.8c0-0.2-0.1-0.4-0.2-0.5c-0.2-0.2-0.4-0.2-0.7-0.2c0 0-0.1 0-0.1 0c-0.1 0-0.1 .1-0.1 .1v1.4Zm0 .5c0 .2 0 .8 0 .8c0 .1 .1 .2 .1 .2h.3c0 0 0 0 0 .1v.1c0 0 0 0 0 0c-0.1 0-0.2 0-0.7 0c-0.5 0-0.6 0-0.6 0c-0.1 0-0.1 0-0.1 0v-0.1c0-0.1 0-0.1 .1-0.1h.1c.1 0 .2 0 .2-0.1c0-0.5 0-1 0-1.4v-1.3c0-0.1 0-0.2-0.1-0.2h-0.2c0 0-0.1 0-0.1 0v-0.2c0 0 .1 0 .1 0c0 0 .2 0 .6 0c.3 0 .7 0 .9 0c.4 0 .7 .1 .9 .3c.1 .2 .2 .4 .2 .5c0 .6-0.4 .9-0.9 1c.2 0 .2 .1 .3 .2c.1 .1 .4 .5 .4 .6c0 0 .3 .5 .4 .5c.1 .1 .2 .1 .3 .1c.1 0 .1 0 .1 .1v.1c0 0 0 0-0.1 0c0 0-0.1 0-0.4 0c-0.2 0-0.3 0-0.4 0c-0.1 0-0.2-0.2-0.3-0.3c0-0.1-0.2-0.4-0.3-0.5c0-0.1-0.1-0.3-0.2-0.4c-0.1-0.2-0.3-0.3-0.5-0.3c0 0-0.1 0-0.1 0v.2" fill="#c52026" fill-rule="nonzero"/></g><g transform="translate(59.6,245.3) scale(2.318,5.069)"><path d="M0-2.6c-0.3 .3-0.4 .8-0.4 1.2c0 1.2 .7 1.7 1.1 1.7c1 0 1.2-1.1 1.2-1.5c0-1-0.8-1.6-1.2-1.6c-0.1 0-0.4-0.1-0.7 .2m1.8-0.1c.4 .3 .7 .8 .7 1.4c0 .4-0.1 .8-0.4 1.1c-0.3 .4-0.7 .7-1.4 .7c-0.3 0-0.7-0.1-1.1-0.3c-0.3-0.2-0.7-0.8-0.7-1.5c0-0.2 .1-0.7 .5-1.1c.4-0.6 .9-0.6 1.3-0.6c.4 0 .7 0 1.1 .3" fill="#c52026" fill-rule="nonzero"/></g><g transform="translate(69.1,238.7) scale(2.318,5.069)"><path d="M0 0c.1 0 .4 0 .5 0c.1 0 .2-0.1 .3-0.2c0 0 0-0.1 .1-0.2c0 0 0-0.1 0-0.1h.1c0 0 0 .1 0 .1c0 .1 0 .4 0 .5c0 .2 0 .4 0 .5c0 0 0 .1 0 .1h-0.1c0 0 0 0 0-0.1c0 0-0.1-0.1-0.1-0.2c-0.1-0.1-0.2-0.2-0.3-0.2c-0.1 0-0.4 0-0.5 0v1.2c0 .1 0 .1 .2 .1h.2c0 0 0 0 0 .1v.1c0 0 0 0 0 0c0 0-0.2 0-0.7 0c-0.4 0-0.6 0-0.7 0c0 0 0 0 0 0v-0.1c0-0.1 0-0.1 0-0.1h.2c.1 0 .2 0 .2-0.1c0-0.1 0-0.7 0-1.5v-0.3c0-0.2 0-0.9 0-1c0 0-0.1-0.1-0.2-0.1h-0.3c0 0 0 0 0 0v-0.2c0 0 0 0 0 0c.1 0 .3 0 .8 0c.1 0 1.4 0 1.7 0c0 0 .1 0 .1 0c.1 0 .1 0 .1 .1c0 0 .1 .7 .2 .8c0 0 0 0-0.1 0c-0.1 0-0.1 0-0.1 0c-0.1-0.1-0.2-0.2-0.3-0.4c-0.1-0.1-0.2-0.2-0.4-0.3c-0.1 0-0.7 0-0.9 0v1.5" fill="#c52026" fill-rule="nonzero"/></g><g transform="translate(84,234.2) scale(2.318,5.069)"><path d="M0 1.8c0 0 0 .1 0 .1c-0.3 .4-0.7 .8-1.4 .8c-0.6 0-1-0.2-1.3-0.5c-0.3-0.3-0.5-0.8-0.5-1.3c0-0.4 .2-0.9 .5-1.2c.3-0.3 .7-0.6 1.2-0.6c.5 0 .8 .2 1 .3c.1 0 .1 0 .1 0v-0.1c.1-0.1 .1-0.1 .1-0.1c.1 0 .1 0 .1 .1c0 .1 .1 .9 .1 1c0 0 0 0 0 0l-0.1 .1c0 0 0 0-0.1-0.1c0-0.1-0.1-0.4-0.3-0.6c-0.2-0.2-0.5-0.4-0.9-0.4c-0.7 0-1 .7-1 1.4c0 .3 0 .9 .4 1.3c.3 .3 .6 .3 .8 .3c.5 0 1-0.2 1.2-0.5c0 0 0-0.1 0 0h.1" fill="#c52026" fill-rule="nonzero"/></g><g transform="translate(87.5,245.3) scale(2.318,5.069)"><path d="M0-2.6c-0.3 .3-0.4 .8-0.4 1.2c0 1.2 .7 1.7 1.1 1.7c1 0 1.2-1.1 1.2-1.5c0-1-0.8-1.6-1.2-1.6c-0.1 0-0.4-0.1-0.7 .2m1.8-0.1c.4 .3 .7 .8 .7 1.4c0 .4-0.1 .8-0.4 1.1c-0.3 .4-0.7 .7-1.4 .7c-0.3 0-0.7-0.1-1.1-0.3c-0.3-0.2-0.7-0.8-0.7-1.5c0-0.2 .1-0.7 .5-1.1c.4-0.6 .9-0.6 1.3-0.6c.4 0 .7 0 1.1 .3" fill="#c52026" fill-rule="nonzero"/></g><g transform="translate(102.4,239) scale(2.318,5.069)"><path d="M0-0.1c0-0.1 0-1.3 0-1.3c-0.1 0-0.7 1.4-0.7 1.6c-0.1 .1-0.6 1.2-0.6 1.3c0 0-0.1 .1-0.1 .1c0 0-0.1 0-0.1-0.1c0 0-0.6-1.5-0.7-1.6c0-0.2-0.5-1.3-0.5-1.3c-0.1 0-0.1 1.2-0.1 1.3c0 .1 0 .9 .1 1.2c0 .2 0 .4 .2 .4h.2c0 0 0 0 0 0v.1c0 0 0 .1 0 .1c-0.1 0-0.2 0-0.6 0c-0.4 0-0.5 0-0.6 0c0 0 0 0 0-0.1v-0.1c0 0 0 0 0 0h.2c.2 0 .2-0.2 .3-0.4c0-0.3 0-1.5 0-1.6v-0.8c0-0.1 0-0.3-0.2-0.3h-0.2c0 0 0 0 0 0v-0.1c0 0 0 0 0 0c0 0 .2 0 .7 0c.2 0 .3 0 .4 0c.1 0 .1 0 .1 0c.2 .5 .9 2.1 1 2.5c0-0.1 .4-0.9 .5-1.2c.1-0.2 .5-1.2 .5-1.3c.1 0 .1 0 .2 0c.7 0 .9 0 .9 0c.1 0 .1 0 .1 0v.1c0 0 0 0-0.1 0h-0.2c-0.1 0-0.1 .1-0.1 .2c0 .1 0 1.1 0 1.2v.4c0 .2 0 .9 0 1c0 .2 0 .3 .1 .3h.3c0 0 0 0 0 0v.1c0 0 0 .1 0 .1c-0.1 0-0.3 0-0.7 0c-0.5 0-0.7 0-0.7 0c-0.1 0-0.1-0.1-0.1-0.1v-0.1c0 0 0 0 .1 0h.2c.1 0 .2-0.1 .2-0.2c0 0 0-0.7 0-1.1v-0.3" fill="#c52026" fill-rule="nonzero"/></g><g transform="translate(113.7,239) scale(2.318,5.069)"><path d="M0-0.1c0-0.1 0-1.3 0-1.3c-0.1 0-0.7 1.4-0.7 1.6c-0.1 .1-0.6 1.2-0.6 1.3c0 0-0.1 .1-0.1 .1c0 0-0.1 0-0.1-0.1c0 0-0.6-1.5-0.7-1.6c0-0.2-0.5-1.3-0.5-1.3c-0.1 0-0.1 1.2-0.1 1.3c0 .1 0 .9 .1 1.2c0 .2 0 .4 .2 .4h.2c0 0 0 0 0 0v.1c0 0 0 .1 0 .1c-0.1 0-0.2 0-0.6 0c-0.4 0-0.5 0-0.6 0c0 0 0 0 0-0.1v-0.1c0 0 0 0 0 0h.2c.2 0 .2-0.2 .3-0.4c0-0.3 0-1.5 0-1.6v-0.8c0-0.1 0-0.3-0.2-0.3h-0.2c0 0 0 0 0 0v-0.1c0 0 0 0 0 0c0 0 .2 0 .7 0c.2 0 .3 0 .4 0c.1 0 .1 0 .1 0c.2 .5 .9 2.1 1 2.5c0-0.1 .4-0.9 .5-1.2c.1-0.2 .5-1.2 .5-1.3c.1 0 .1 0 .2 0c.7 0 .9 0 .9 0c.1 0 .1 0 .1 0v.1c0 0 0 0-0.1 0h-0.2c-0.1 0-0.1 .1-0.1 .2c0 .1 0 1.1 0 1.2v.4c0 .2 0 .9 0 1c0 .2 0 .3 .1 .3h.3c0 0 0 0 0 0v.1c0 0 0 .1 0 .1c-0.1 0-0.3 0-0.7 0c-0.5 0-0.7 0-0.7 0c-0.1 0-0.1-0.1-0.1-0.1v-0.1c0 0 0 0 .1 0h.2c.1 0 .2-0.1 .2-0.2c0 0 0-0.7 0-1.1v-0.3" fill="#c52026" fill-rule="nonzero"/></g><g transform="translate(119.6,237.3) scale(2.318,5.069)"><path d="M0 .6c0 .3 0 .7 0 .8c0 .3 .1 .4 .2 .4c.1 0 .2 0 .4 0c.1 0 .3 0 .4 0c.1 0 .2 0 .4-0.1c.1-0.1 .3-0.4 .4-0.6c0 0 .1 0 .1 0v.1c.1 0 .1 0 .1 0l-0.3 .7c0 .1 0 .1-0.1 .1c0 0-0.1 0-0.4 0c-0.3 0-0.8 0-1.6 0c-0.2 0-0.3 0-0.4 0c-0.1 0-0.2 0-0.2 0c0 0 0 0 0 0v-0.1c0-0.1 0-0.1 0-0.1h.2c.2 0 .2 0 .2-0.2v-1.6c0-0.4 0-1 0-1c0-0.2-0.1-0.2-0.2-0.2h-0.2c0 0 0 0 0 0v-0.2c0 0 0 0 0 0c.1 0 .3 0 .7 0h.1c.2 0 1.3 0 1.5 0c.1 0 .2 0 .2 0c0 0 0 0 0 0c.1 .1 .2 .7 .3 .8c0 0 0 0-0.1 0v.1c-0.1 0-0.1 0-0.1 0c0-0.1-0.4-0.5-0.5-0.6c-0.1 0-0.2-0.1-0.4-0.1h-0.7v1.4c.1 0 .5-0.1 .5-0.1c.1 0 .2 0 .3-0.1c0-0.1 0-0.2 0-0.3c0 0 .1 0 .1 0h.1c0 0 0 0 0 0c0 .1 0 .4 0 .5c0 .2 0 .4 0 .5c0 .1 0 .1 0 .1h-0.1c0 0 0 0 0 0c-0.1-0.1-0.1-0.2-0.1-0.3c-0.1-0.1-0.1-0.1-0.3-0.1c-0.1-0.1-0.4-0.1-0.5-0.1v.3" fill="#c52026" fill-rule="nonzero"/></g><g transform="translate(127.2,238.8) scale(2.318,5.069)"><path d="M0 0c.1 0 .1 0 .2 0c.7 0 .9-0.6 .9-0.8c0-0.2-0.1-0.4-0.2-0.5c-0.2-0.2-0.4-0.2-0.7-0.2c0 0-0.1 0-0.1 0c-0.1 0-0.1 .1-0.1 .1v1.4Zm0 .5c0 .2 0 .8 0 .8c0 .1 .1 .2 .1 .2h.3c0 0 0 0 0 .1v.1c0 0 0 0 0 0c-0.1 0-0.2 0-0.7 0c-0.5 0-0.6 0-0.6 0c-0.1 0-0.1 0-0.1 0v-0.1c0-0.1 0-0.1 .1-0.1h.1c.1 0 .2 0 .2-0.1c0-0.5 0-1 0-1.4v-1.3c0-0.1-0.1-0.2-0.1-0.2h-0.2c0 0-0.1 0-0.1 0v-0.2c0 0 .1 0 .1 0c0 0 .2 0 .6 0c.3 0 .7 0 .9 0c.4 0 .7 .1 .9 .3c.1 .2 .2 .4 .2 .5c0 .6-0.4 .9-0.9 1c.2 0 .2 .1 .3 .2c.1 .1 .4 .5 .4 .6c0 0 .3 .5 .4 .5c.1 .1 .2 .1 .3 .1c.1 0 .1 0 .1 .1v.1c0 0 0 0-0.1 0c0 0-0.1 0-0.4 0c-0.2 0-0.3 0-0.4 0c-0.1 0-0.2-0.2-0.3-0.3c0-0.1-0.2-0.4-0.3-0.5c0-0.1-0.1-0.3-0.2-0.4c-0.1-0.2-0.3-0.3-0.5-0.3c0 0-0.1 0-0.1 0v.2" fill="#c52026" fill-rule="nonzero"/></g><g transform="translate(140.4,234.2) scale(2.318,5.069)"><path d="M0 1.8c0 0 0 .1 0 .1c-0.3 .4-0.7 .8-1.4 .8c-0.6 0-1-0.2-1.3-0.5c-0.3-0.3-0.5-0.8-0.5-1.3c0-0.4 .2-0.9 .5-1.2c.3-0.3 .7-0.6 1.2-0.6c.5 0 .8 .2 1 .3c.1 0 .1 0 .1 0v-0.1c.1-0.1 .1-0.1 .1-0.1c.1 0 .1 0 .1 .1c0 .1 .1 .9 .1 1c0 0 0 0 0 0l-0.1 .1c0 0 0 0-0.1-0.1c0-0.1-0.1-0.4-0.3-0.6c-0.2-0.2-0.5-0.4-0.9-0.4c-0.7 0-1 .7-1 1.4c0 .3 0 .9 .4 1.3c.3 .3 .6 .3 .8 .3c.5 0 1-0.2 1.2-0.5c0 0 0-0.1 0 0h.1" fill="#c52026" fill-rule="nonzero"/></g><g transform="translate(143.9,237.3) scale(2.318,5.069)"><path d="M0 .6c0 .3 0 .7 0 .8c0 .3 .1 .4 .2 .4c.1 0 .2 0 .4 0c.1 0 .3 0 .4 0c.1 0 .2 0 .4-0.1c.1-0.1 .3-0.4 .4-0.6c0 0 .1 0 .1 0v.1c.1 0 .1 0 .1 0l-0.3 .7c0 .1 0 .1-0.1 .1c0 0-0.1 0-0.4 0c-0.3 0-0.8 0-1.6 0c-0.2 0-0.3 0-0.4 0c-0.1 0-0.2 0-0.2 0c0 0 0 0 0 0v-0.1c0-0.1 0-0.1 0-0.1h.2c.2 0 .2 0 .2-0.2v-1.6c0-0.4 0-1 0-1c0-0.2-0.1-0.2-0.2-0.2h-0.2c0 0 0 0 0 0v-0.2c0 0 0 0 0 0c.1 0 .3 0 .7 0h.1c.2 0 1.3 0 1.5 0c.1 0 .2 0 .2 0c0 0 0 0 0 0c.1 .1 .2 .7 .3 .8c0 0 0 0-0.1 0v.1c-0.1 0-0.1 0-0.1 0c0-0.1-0.4-0.5-0.5-0.6c-0.1 0-0.2-0.1-0.4-0.1h-0.7v1.4c.1 0 .5-0.1 .5-0.1c.1 0 .2 0 .3-0.1c0-0.1 0-0.2 0-0.3c0 0 .1 0 .1 0h.1c0 0 0 0 0 0c0 .1 0 .4 0 .5c0 .2 0 .4 0 .5c0 .1 0 .1 0 .1h-0.1c0 0 0 0 0 0c-0.1-0.1-0.1-0.2-0.1-0.3c-0.1-0.1-0.1-0.1-0.3-0.1c-0.1-0.1-0.4-0.1-0.5-0.1v.3" fill="#c52026" fill-rule="nonzero"/></g><g transform="translate(1.3,270.5) scale(2.318,5.069)"><path d="M0-1c0 .8 0 1.5 0 1.6c.1 .3 .1 .4 .3 .4h.1c0 0 0 0 0 0v.2c0 0 0 0 0 0c0 0-0.3 0-0.5 0c-0.1 0-0.5 0-0.5 0c0 0 0 0 0 0v-0.2c0 0 0 0 0 0h.2c.1 0 .2-0.1 .2-0.4c0-0.1 0-0.7 0-1.5v-0.6c0-0.3-0.2-0.5-0.4-0.5h-0.1c0 0 0 0 0-0.1v-0.1c0 0 0 0 0 0c0 0 0 0 .1 0c.1 0 .2 0 .5 0c0 0 .1 0 .2 0c0 0 .1 0 .1 0c.1 0 .1 0 .1 0c.1 .1 1 1.2 1.1 1.4c.1 .1 .8 1 .9 1.1v-0.5c0-0.4 0-0.7 0-0.9c0-0.2 0-0.7-0.1-0.7c0-0.2-0.1-0.2-0.2-0.2h-0.2c0 0 0 0 0-0.1v-0.1c0 0 0 0 0 0c.1 0 .3 0 .6 0c.3 0 .4 0 .4 0c.1 0 .1 0 .1 0v.1c0 .1 0 .1 0 .1h-0.2c-0.1 0-0.1 .1-0.1 .2c-0.1 .4-0.1 1.2-0.1 1.6v1.3c0 .1 0 .1-0.1 .1c0 0-0.1 0-0.1 0c-0.1-0.1-0.3-0.4-0.6-0.7c-0.4-0.4-0.7-0.9-0.8-1c0 0-0.8-1-0.9-1.1v.6" fill="#c52026" fill-rule="nonzero"/></g><g transform="translate(13.9,274.5) scale(2.318,5.069)"><path d="M0-2.8h-0.1c-0.2 0-0.5 0-0.7 .1c-0.2 0-0.4 .4-0.5 .5c0 0 0 .1 0 0h-0.1c0 0 0 0 0 0c0-0.2 .2-0.8 .2-0.9c0-0.1 0-0.1 .1-0.1c0 0 0 0 0 0c.1 .1 .2 .2 .4 .2c.2 0 .4 0 .9 0h.2c.6 0 .8 0 1 0c.1 0 .3-0.1 .3-0.2c.1 0 .1 0 .1 0c.1 0 .1 0 .1 .1c0 .1 .1 .7 .1 .9c0 0 0 0 0 0l-0.1 .1c0 0 0 0 0-0.1c-0.1-0.1-0.3-0.4-0.4-0.5c-0.2-0.1-0.6-0.1-0.8-0.1h-0.1v2.5c0 .4 .1 .5 .2 .5h.3c0 0 0 0 0 .1v.1c0 0 0 0-0.1 0c0 0-0.2 0-0.7 0c-0.5 0-0.7 0-0.7 0c-0.1 0-0.1 0-0.1 0v-0.2c0 0 0 0 .1 0h.2c.1 0 .2 0 .2-0.1c0-0.1 0-1.6 0-1.7v-1.2" fill="#c52026" fill-rule="nonzero"/></g><g transform="translate(22,267.7) scale(2.318,5.069)"><path d="M0 .1c-0.1 0-0.1 0-0.1 0v.2c0 .2 0 .8 .1 1.1c0 .1 0 .1 .1 .1h.2c0 0 0 .1 0 .1v.1c0 0 0 0 0 0c-0.1 0-0.3 0-0.7 0c-0.4 0-0.6 0-0.7 0c0 0 0 0 0 0v-0.1c0 0 0-0.1 0-0.1h.3c.1 0 .1-0.1 .1-0.2c0-0.2 0-0.8 0-1.1v-0.6c0-0.1 0-0.7 0-0.8c0-0.2 0-0.3-0.2-0.3h-0.2c0 0 0 0 0 0v-0.1c0 0 0-0.1 0-0.1c.1 0 .3 0 .7 0c.5 0 .6 0 .7 0c.1 0 .1 0 .1 .1v.1c0 0 0 0-0.1 0h-0.1c-0.2 0-0.2 .1-0.2 .3c0 0-0.1 .7-0.1 .8v.2c0 0 0 .1 .1 .1h1.6c0 0 .1-0.1 .1-0.1v-0.2c0-0.1-0.1-0.8-0.1-0.8c0-0.2 0-0.3-0.1-0.3h-0.2c0 0 0 0 0 0v-0.1c0-0.1 0-0.1 0-0.1c.1 0 .3 0 .7 0c.3 0 .5 0 .6 0c0 0 .1 0 .1 .1v.1c0 0-0.1 0-0.1 0h-0.2c-0.1 0-0.1 .1-0.1 .3c0 0 0 .7 0 .8v.5c0 .3 0 .9 0 1.2c0 .2 0 .2 .2 .2h.2c0 0 0 .1 0 .1v.1c0 0 0 0-0.1 0c0 0-0.2 0-0.6 0c-0.5 0-0.6 0-0.7 0c-0.1 0-0.1 0-0.1 0v-0.1c0 0 0-0.1 .1-0.1h.2c.1 0 .1 0 .1-0.2c.1-0.2 .1-1 .1-1.1v-0.1c0 0-0.1 0-0.1 0h-1.6" fill="#c52026" fill-rule="nonzero"/></g><g transform="translate(31.8,266.3) scale(2.318,5.069)"><path d="M0 .6c0 .3 0 .7 0 .8c0 .3 .1 .4 .2 .4c.1 0 .2 0 .4 0c.1 0 .3 0 .4 0c.1 0 .2 0 .4-0.1c.1-0.1 .3-0.4 .4-0.6c0 0 .1 0 .1 0v.1c.1 0 .1 0 .1 0l-0.3 .7c0 .1 0 .1-0.1 .1c0 0-0.1 0-0.4 0c-0.3 0-0.8 0-1.6 0c-0.2 0-0.3 0-0.4 0c-0.1 0-0.2 0-0.2 0c0 0 0 0 0 0v-0.1c0-0.1 0-0.1 0-0.1h.2c.2 0 .2 0 .2-0.2v-1.6c0-0.4 0-1 0-1c0-0.2-0.1-0.2-0.2-0.2h-0.2c0 0 0 0 0 0v-0.2c0 0 0 0 0 0c.1 0 .3 0 .7 0h.1c.2 0 1.3 0 1.5 0c.1 0 .2 0 .2 0c0 0 0 0 0 0c.1 .1 .2 .7 .3 .8c0 0 0 0-0.1 0v.1c-0.1 0-0.1 0-0.1 0c0-0.1-0.4-0.5-0.5-0.6c-0.1 0-0.2-0.1-0.4-0.1h-0.7v1.4c.1 0 .5-0.1 .5-0.1c.1 0 .2 0 .3-0.1c0-0.1 0-0.2 0-0.3c0 0 .1 0 .1 0h.1c0 0 0 0 0 0c0 .1 0 .4 0 .5c0 .2 0 .4 0 .5c0 .1 0 .1 0 .1h-0.1c0 0 0 0 0 0c-0.1-0.1-0.1-0.2-0.1-0.3c-0.1-0.1-0.1-0.1-0.2-0.1c-0.2-0.1-0.5-0.1-0.6-0.1v.3" fill="#c52026" fill-rule="nonzero"/></g><g transform="translate(40.5,264.7) scale(2.318,5.069)"><path d="M0 1.3c0 0 0 0 0 0c0 .1 .1 .3 .2 .5c.2 .3 .4 .4 .6 .4c.3 0 .7-0.2 .7-0.6c0-0.4-0.2-0.6-0.7-0.8c-0.2 0-0.5-0.1-0.7-0.4c-0.2-0.1-0.3-0.3-0.3-0.6c0-0.3 .1-0.5 .4-0.7c.1-0.2 .4-0.2 .6-0.2c.3 0 .5 0 .6 .1c.1 0 .1 0 .1 0l.1-0.1c0 0 0 0 .1 0c0 0 0 0 0 0c0 .1 .1 .8 .1 .8c0 .1 0 .1-0.1 .1c0 0-0.1 0-0.1 0c0-0.2-0.1-0.4-0.3-0.5c-0.1-0.2-0.2-0.2-0.5-0.2c-0.4 0-0.5 .3-0.5 .4c0 .2 0 .4 .1 .5c.2 .1 .4 .2 .6 .3c.3 .1 .5 .2 .7 .3c.2 .2 .2 .4 .2 .7c0 .6-0.3 1.1-1 1.1c-0.4 0-0.6-0.1-0.8-0.2c0-0.1-0.1-0.1-0.1-0.1c0 0 0 0-0.1 .1c0 0 0 0-0.1 0c0 0 0 0 0 0c0-0.1 .1-0.9 .1-0.9c0 0 0-0.1 0-0.1l.1 .1" fill="#c52026" fill-rule="nonzero"/></g><g transform="translate(53,264.3) scale(2.318,5.069)"><path d="M0 1.4c0 0 0 0 0 .1c0 0-0.2 .8-0.2 .9c-0.2 0-1.5 0-2 0c-0.4 0-0.6 0-0.7 0c0 0 0 0 0 0v-0.1c0-0.1 0-0.1 0-0.1h.2c.2 0 .2 0 .2-0.1c0-0.1 0-1.3 0-1.6v-0.2c0-0.3 0-0.9 0-0.9c0-0.2 0-0.2-0.1-0.2h-0.2c-0.1 0-0.1 0-0.1-0.1v-0.1c0 0 0 0 .1 0c0 0 .2 0 .6 0c.5 0 .7 0 .8 0c0 0 0 0 0 0v.2c0 0 0 0 0 0h-0.3c-0.1 0-0.2 0-0.2 .2c0 0 0 .8 0 1.1v.4c0 .1 0 1.1 0 1.3h.3c.3 0 .6 0 .8 0c.3 0 .6-0.6 .7-0.8c0 0 0 0 0 0h.1" fill="#c52026" fill-rule="nonzero"/></g><g transform="translate(56.5,274.4) scale(2.318,5.069)"><path d="M0-2.6c-0.3 .3-0.4 .8-0.4 1.2c0 1.2 .7 1.7 1.1 1.7c1 0 1.2-1.1 1.2-1.5c0-1-0.8-1.6-1.2-1.6c-0.1 0-0.4-0.1-0.7 .2m1.8-0.1c.4 .3 .7 .8 .7 1.4c0 .4-0.1 .8-0.4 1.1c-0.3 .4-0.7 .7-1.4 .7c-0.3 0-0.7-0.1-1.1-0.3c-0.3-0.2-0.7-0.8-0.7-1.5c0-0.2 .1-0.7 .5-1.1c.4-0.6 .9-0.6 1.3-0.6c.4 0 .7 0 1.1 .3" fill="#c52026" fill-rule="nonzero"/></g><g transform="translate(68.1,276.7) scale(2.318,5.069)"><path d="M0-3.4c0 0 0-0.1 0-0.1c.1 0 .3 .1 .6 .1c.4 0 .5-0.1 .6-0.1c0 0 0 .1 0 .1v.1c0 0 0 0 0 0h-0.1c-0.2 0-0.3 .1-0.4 .3c-0.2 .2-0.4 1-0.6 1.3c-0.1 .2-0.6 1.6-0.7 1.7c0 0 0 0-0.1 0c0 0-0.1 0-0.1-0.1c-0.2-0.4-0.6-1.5-0.7-1.9c-0.1-0.4-0.4-1-0.4-1.1c0-0.1-0.1-0.2-0.2-0.2h-0.1c0 0-0.1 0-0.1 0v-0.1c0 0 .1-0.1 .1-0.1c0 0 .2 .1 .7 .1c.4 0 .6-0.1 .7-0.1c0 0 0 .1 0 .1v.1c0 0 0 0 0 0h-0.2c-0.2 0-0.2 .1-0.2 .2c0 0 0 .1 0 .1c0 .2 .2 .8 .3 1c.1 .2 .3 1 .4 1.2c.1-0.3 .4-1 .5-1.2c0-0.2 .3-0.9 .3-1.1c0-0.1 0-0.2-0.1-0.2h-0.2c0 0 0 0 0 0v-0.1" fill="#c52026" fill-rule="nonzero"/></g><g transform="translate(74.4,266.2) scale(2.318,5.069)"><path d="M0 .5c0-0.1-0.4-1.2-0.4-1.3c0-0.1 0-0.1 0-0.1c-0.1 0-0.1 0-0.1 .1c0 0-0.5 1.2-0.5 1.3h1Zm-1.1 .2c0 .1-0.2 .8-0.3 .9c0 .1 0 .1 0 .1c0 .1 .1 .1 .2 .1h.2c0 0 .1 .1 .1 .1v.1c0 0-0.1 0-0.1 0c-0.1 0-0.3 0-0.6 0c-0.3 0-0.4 0-0.5 0c0 0 0 0 0 0v-0.1c0 0 0-0.1 0-0.1h.1c.2 0 .3 0 .3-0.2c.1-0.1 .4-0.9 .6-1.3c0-0.1 .4-1.1 .4-1.3c.1 0 .1-0.1 .1-0.1c-0.1 0-0.1-0.1-0.1-0.1c0 0 0 0 .1 0c.1-0.1 .4-0.2 .4-0.3c.1 0 .1 0 .1 0c0 0 .1 0 .1 .1c.1 .3 .4 1.3 .5 1.6c.1 .4 .4 1.3 .5 1.4c.1 .2 .2 .2 .3 .2h.2c0 0 0 .1 0 .1v.1c0 0 0 0 0 0c-0.1 0-0.2 0-0.8 0c-0.4 0-0.5 0-0.6 0c-0.1 0-0.1 0-0.1 0v-0.1c0 0 0-0.1 .1-0.1h.1c.1 0 .2 0 .1-0.1c0-0.2-0.2-0.8-0.3-1h-1.1" fill="#c52026" fill-rule="nonzero"/></g><g transform="translate(80.9,265.8) scale(2.318,5.069)"><path d="M0 .8c0 .2 0 .9 0 1c0 .1 .1 .1 .1 .1h.2c0 0 0 0 0 0v.2c0 0 0 0 0 0c0 0-0.2 0-0.6 0c-0.4 0-0.6 0-0.6 0c0 0 0 0 0 0v-0.2c0 0 0 0 0 0h.2c0 0 .1 0 .1-0.1c0 0 0-0.9 0-1.5v-0.3c0 0 0-1 0-1c0-0.1 0-0.1-0.1-0.1h-0.2c0 0 0 0 0 0v-0.2c0 0 0 0 0 0c.1 0 .2 0 .6 0c.4 0 .5 0 .6 0c0 0 .1 0 .1 0v.1c0 .1-0.1 .1-0.1 .1h-0.1c-0.1 0-0.2 0-0.2 .1c0 .1 0 .8 0 1.1v.2h.1c0 0 .1 0 .1-0.1c.1-0.1 1-1.1 1-1.2c.1-0.1 0-0.1-0.1-0.1c0 0 0 0 0-0.1v-0.1c0 0 0 0 0 0c0 0 .2 0 .5 0c.2 0 .4 0 .5 0c0 0 0 0 0 0v.1c0 .1 0 .1 0 .1h-0.1c-0.1 0-0.2 0-0.3 .1c-0.2 .1-0.9 .9-1.1 1.1c.2 .3 1.2 1.5 1.3 1.7c.1 .1 .2 .1 .3 .1h.1c0 0 .1 0 .1 0v.2c0 0-0.1 0-0.1 0c0 0-0.2 0-0.6 0c-0.4 0-0.6 0-0.7 0c0 0 0 0 0 0v-0.2c0 0 0 0 0 0h.1c.1 0 .1-0.1 0-0.1c0-0.1-0.8-1.2-0.9-1.3c0 0-0.1-0.1-0.1-0.1h-0.1v.4" fill="#c52026" fill-rule="nonzero"/></g><g transform="translate(91.8,267.8) scale(2.318,5.069)"><path d="M0 0c.1 0 .1 0 .2 0c.7 0 .9-0.6 .9-0.8c0-0.2-0.1-0.4-0.2-0.5c-0.2-0.2-0.4-0.2-0.7-0.2c0 0-0.1 0-0.1 0c-0.1 0-0.1 .1-0.1 .1v1.4Zm0 .5c0 .2 0 .8 0 .8c0 .1 .1 .2 .1 .2h.3c0 0 0 0 0 .1v.1c0 0 0 0 0 0c-0.1 0-0.2 0-0.7 0c-0.5 0-0.6 0-0.6 0c-0.1 0-0.1 0-0.1 0v-0.1c0-0.1 0-0.1 .1-0.1h.1c.1 0 .2 0 .2-0.1c0-0.5 0-1 0-1.4v-1.3c0-0.1 0-0.2-0.1-0.2h-0.2c0 0-0.1 0-0.1 0v-0.2c0 0 .1 0 .1 0c0 0 .2 0 .6 0c.3 0 .7 0 .9 0c.4 0 .7 .1 .9 .3c.1 .2 .2 .4 .2 .5c0 .6-0.4 .9-0.9 1c.2 0 .2 .1 .3 .2c.1 .1 .4 .5 .4 .6c0 0 .3 .5 .4 .5c.1 .1 .2 .1 .3 .1c.1 0 .1 0 .1 .1v.1c0 0 0 0-0.1 0c0 0-0.1 0-0.4 0c-0.2 0-0.3 0-0.4 0c-0.1 0-0.2-0.2-0.3-0.3c0-0.1-0.2-0.4-0.3-0.5c0-0.1-0.1-0.3-0.2-0.4c-0.1-0.2-0.3-0.3-0.5-0.3c0 0-0.1 0-0.1 0v.2" fill="#c52026" fill-rule="nonzero"/></g><g transform="translate(100,266.3) scale(2.318,5.069)"><path d="M0 .6c0 .3 0 .7 0 .8c0 .3 .1 .4 .2 .4c.1 0 .2 0 .4 0c.1 0 .3 0 .4 0c.1 0 .2 0 .4-0.1c.1-0.1 .3-0.4 .4-0.6c0 0 .1 0 .1 0v.1c.1 0 .1 0 .1 0l-0.3 .7c0 .1 0 .1-0.1 .1c0 0-0.1 0-0.4 0c-0.3 0-0.8 0-1.6 0c-0.2 0-0.3 0-0.4 0c-0.1 0-0.2 0-0.2 0c0 0 0 0 0 0v-0.1c0-0.1 0-0.1 0-0.1h.2c.2 0 .2 0 .2-0.2v-1.6c0-0.4 0-1 0-1c0-0.2-0.1-0.2-0.2-0.2h-0.2c0 0 0 0 0 0v-0.2c0 0 0 0 0 0c.1 0 .3 0 .7 0h.1c.2 0 1.3 0 1.5 0c.1 0 .2 0 .2 0c0 0 0 0 0 0c.1 .1 .2 .7 .3 .8c0 0 0 0-0.1 0v.1c-0.1 0-0.1 0-0.1 0c0-0.1-0.4-0.5-0.5-0.6c-0.1 0-0.2-0.1-0.4-0.1h-0.7v1.4c.1 0 .5-0.1 .5-0.1c.1 0 .2 0 .3-0.1c0-0.1 0-0.2 0-0.3c0 0 .1 0 .1 0h.1c0 0 0 0 0 0c0 .1 0 .4 0 .5c0 .2 0 .4 0 .5c0 .1 0 .1 0 .1h-0.1c0 0 0 0 0 0c-0.1-0.1-0.1-0.2-0.1-0.3c-0.1-0.1-0.1-0.1-0.3-0.1c-0.1-0.1-0.4-0.1-0.5-0.1v.3" fill="#c52026" fill-rule="nonzero"/></g><g transform="translate(107.6,267.7) scale(2.318,5.069)"><path d="M0 .1c.1 0 .2 0 .3 0c.3 0 .5-0.1 .6-0.3c.1-0.2 .1-0.3 .1-0.5c0-0.7-0.5-0.8-0.7-0.8c-0.1 0-0.2 0-0.3 0v1.6Zm-0.6-0.6c0-0.3 0-0.8 0-0.9c0-0.1-0.1-0.1-0.2-0.1h-0.2c0 0-0.1 0-0.1 0v-0.1c0-0.1 .1-0.1 .1-0.1c0 0 .2 0 .7 0c.1 0 .3 0 .5 0c.6 0 .9 .1 1.1 .3c.3 .1 .4 .4 .4 .7c0 .6-0.5 1-1.3 1c-0.1 0-0.3 0-0.4-0.1v.3c0 .2 0 .8 0 .9c0 .1 .1 .2 .2 .2h.2c.1 0 .1 0 .1 0v.1c0 0 0 0-0.1 0c0 0-0.2 0-0.7 0c-0.4 0-0.6 0-0.7 0c0 0 0 0 0 0v-0.1c0 0 0 0 0 0h.2c.1 0 .2-0.1 .2-0.2c0 0 0-0.8 0-1.3v-0.6" fill="#c52026" fill-rule="nonzero"/></g><g transform="translate(113,274.6) scale(2.318,5.069)"><path d="M0-2.6c0-0.2 0-0.2-0.2-0.2h-0.2c0 0 0-0.1 0-0.1v-0.1c0 0 0 0 0 0c.1 0 .3 0 .8 0c.4 0 .6 0 .7 0c0 0 0 0 0 0v.1c0 0 0 .1 0 .1h-0.2c-0.2 0-0.3 0-0.3 .1c0 .1 0 .4 0 .7v.6c0 .2 0 .5 0 .7c0 .2 .1 .4 .2 .6c.1 .2 .4 .3 .6 .3c.3 0 .5-0.1 .7-0.3c.2-0.1 .2-0.4 .2-0.8v-0.8c0-0.4 0-0.8 0-0.9c0-0.2-0.1-0.2-0.2-0.2h-0.2c0 0 0-0.1 0-0.1v-0.1c0 0 0 0 0 0c.1 0 .3 0 .6 0c.3 0 .5 0 .5 0c0 0 0 0 0 0v.1c0 0 0 .1 0 .1h-0.2c-0.1 0-0.1 .1-0.2 .1c0 .1 0 .8 0 .8c0 .1 0 .9 0 1.1c0 .4-0.1 .7-0.4 .9c-0.2 .2-0.5 .3-0.9 .3c-0.2 0-0.5 0-0.7-0.1c-0.2-0.1-0.4-0.3-0.5-0.6c-0.1-0.2-0.1-0.6-0.1-1.2v-1.1" fill="#c52026" fill-rule="nonzero"/></g><g transform="translate(123.2,263.2) scale(2.318,5.069)"><path d="M0 1.8c0 .5 .1 .7 .4 .7c.4 0 .7-0.2 .7-0.8c0-0.4-0.2-0.6-0.4-0.7c-0.2-0.1-0.4-0.1-0.6-0.1h-0.1v.9Zm0-1.1c.1 0 .1 0 .2 0c.2 0 .4 0 .5-0.1c.2-0.2 .3-0.4 .3-0.6c0-0.2-0.1-0.3-0.2-0.5c-0.2-0.1-0.4-0.1-0.6-0.1c0 0-0.1 0-0.1 0c-0.1 0-0.1 0-0.1 .1c0 0 0 .5 0 .9v.3Zm-0.6-0.2c0-0.1 0-0.7 0-0.8c0-0.3-0.1-0.3-0.3-0.3h-0.1c-0.1 0-0.1 0-0.1 0v-0.1c0-0.1 0-0.1 .1-0.1c0 0 .3 0 .7 0c.1 0 .4 0 .7 0c.3 0 .6 0 .8 .1c.3 .2 .4 .4 .4 .7c0 .4-0.2 .6-0.7 .8c.6 .1 .9 .4 .9 .9c0 .3-0.2 .6-0.4 .8c-0.2 .1-0.5 .1-1 .1c-0.2 0-0.5 0-0.7 0c-0.4 0-0.6 0-0.7 0c0 0 0 0 0 0v-0.1c0-0.1 0-0.1 0-0.1h.2c.1 0 .2 0 .2-0.2c0-0.1 0-0.7 0-1.1v-0.6" fill="#c52026" fill-rule="nonzero"/></g><g transform="translate(135.4,264.3) scale(2.318,5.069)"><path d="M0 1.4c0 0 0 0 0 .1c0 0-0.2 .8-0.2 .9c-0.2 0-1.5 0-2 0c-0.4 0-0.6 0-0.7 0c0 0 0 0 0 0v-0.1c0-0.1 0-0.1 0-0.1h.2c.2 0 .2 0 .2-0.1c0-0.1 0-1.3 0-1.6v-0.2c0-0.3 0-0.9 0-0.9c0-0.2 0-0.2-0.1-0.2h-0.2c-0.1 0-0.1 0-0.1-0.1v-0.1c0 0 0 0 .1 0c0 0 .2 0 .6 0c.5 0 .7 0 .8 0c0 0 0 0 0 0v.2c0 0 0 0 0 0h-0.3c-0.1 0-0.2 0-0.2 .2c0 0 0 .8 0 1.1v.4c0 .1 0 1.1 0 1.3h.3c.3 0 .6 0 .8 0c.3 0 .6-0.6 .7-0.8c0 0 0 0 0 0h.1" fill="#c52026" fill-rule="nonzero"/></g><g transform="translate(138.4,267.1) scale(2.318,5.069)"><path d="M0 .3c0 0 0 1.1 0 1.2c0 .1 .1 .2 .2 .2h.2c0 0 0 0 0 0v.1c0 0 0 .1 0 .1c-0.1-0.1-0.3-0.1-0.7-0.1c-0.5 0-0.7 .1-0.7 .1c-0.1-0.1-0.1-0.1-0.1-0.1v-0.1c0 0 0 0 .1 0h.1c.1 0 .3-0.1 .3-0.2c0 0 0-1.1 0-1.3v-0.4c0-0.1 0-0.9 0-1c0-0.1-0.1-0.2-0.2-0.2h-0.3c0 0 0 0 0 0v-0.1c0-0.1 0-0.1 0-0.1c.1 0 .3 .1 .8 .1c.5 0 .6-0.1 .7-0.1c0 0 0 .1 0 .1v.1c0 0 0 0 0 0h-0.2c-0.1 0-0.2 .1-0.2 .2c0 0 0 1.1 0 1.1v.4" fill="#c52026" fill-rule="nonzero"/></g><g transform="translate(148.2,263.2) scale(2.318,5.069)"><path d="M0 1.8c0 0 0 .1 0 .1c-0.3 .4-0.7 .8-1.4 .8c-0.6 0-1-0.2-1.3-0.5c-0.3-0.3-0.5-0.8-0.5-1.3c0-0.4 .2-0.9 .5-1.2c.3-0.3 .7-0.6 1.2-0.6c.5 0 .8 .2 1 .3c.1 0 .1 0 .1 0v-0.1c.1-0.1 .1-0.1 .1-0.1c.1 0 .1 0 .1 .1c0 .1 .1 .9 .1 1c0 0 0 0 0 0l-0.1 .1c0 0 0 0-0.1-0.1c0-0.1-0.1-0.4-0.3-0.6c-0.2-0.2-0.5-0.3-0.9-0.3c-0.7 0-1 .6-1 1.3c0 .3 0 .9 .4 1.3c.3 .3 .6 .3 .8 .3c.5 0 1-0.2 1.2-0.5c0 0 0-0.1 0 0h.1" fill="#c52026" fill-rule="nonzero"/></g><g transform="translate(-33.6,212.7) scale(2.318,5.069)"><path d="M0-5.2h-0.3c-0.3 0-0.8 0-1.2 .2c-0.2 .1-0.6 .7-0.8 1c-0.1 0-0.1 .1-0.1 .1l-0.2-0.1c-0.1 0-0.1-0.1-0.1-0.1c.1-0.4 .4-1.6 .5-1.7c0-0.2 0-0.2 .1-0.2c.1 0 .1 0 .2 .1c.1 .2 .2 .2 .6 .3c.4 0 .8 0 1.8 0h.5c1 0 1.4 0 1.7 0c.2 0 .6-0.2 .7-0.3c.1 0 .1-0.1 .2-0.1c.1 0 .1 0 .1 .1c0 .2 .2 1.4 .3 1.8c0 .1 0 .1-0.1 .1l-0.1 .1c-0.1 0-0.1 0-0.1-0.1c-0.2-0.3-0.6-0.8-0.8-1c-0.2-0.1-1-0.2-1.3-0.2h-0.2v2.5c0 .1 0 2.7 0 2.8c0 .2 .1 .4 .3 .4h.4c.1 0 .1 0 .1 .1v.2c0 0 0 0-0.1 0c-0.1 0-0.4 0-1.4 0c-1 0-1.3 0-1.5 0c0 0 0 0 0-0.1v-0.1c0-0.1 0-0.1 0-0.1h.5c.2 0 .3-0.1 .3-0.3c0-0.2 0-3 0-3.1v-2.3" fill="#2b3990" fill-rule="nonzero"/></g><g transform="translate(-21.5,202.4) scale(2.318,5.069)"><path d="M0-0.7c0-0.6 0-1.8 0-1.9c0-0.5-0.1-0.6-0.3-0.6h-0.4c-0.1 0-0.1 0-0.1-0.1v-0.2c0 0 0-0.1 .1-0.1c.1 0 .4 0 1.3 0c.9 0 1.2 0 1.4 0c.1 0 .1 0 .1 .1v.2c0 .1 0 .1-0.1 .1h-0.2c-0.3 0-0.4 .1-0.4 .5c0 .1-0.1 1.3-0.1 1.8v.1c0 .1 .1 .1 .2 .1h2.7c.1 0 .2 0 .2-0.1v-0.1c0-0.5-0.1-1.8-0.1-1.8c0-0.3-0.1-0.5-0.2-0.5h-0.4c-0.1 0-0.1 0-0.1-0.1v-0.2c0-0.1 0-0.1 .1-0.1c.2 0 .6 0 1.3 0c.8 0 1.1 0 1.3 0c.1 0 .1 0 .1 .1v.2c0 .1 0 .1-0.1 .1h-0.3c-0.3 0-0.3 .1-0.3 .5c0 .1 0 1.6 0 1.9v.3c0 .3 0 2 0 2.5c0 .4 .1 .5 .4 .5h.3c.1 0 .1 0 .1 .1v.2c0 0 0 .1-0.1 .1c-0.2 0-0.5-0.1-1.3-0.1c-0.9 0-1.2 .1-1.4 .1c-0.1 0-0.1-0.1-0.1-0.1v-0.2c0-0.1 0-0.1 .1-0.1h.4c.2 0 .2-0.2 .2-0.4c0-0.4 .1-1.9 .1-2.2v-0.1c0-0.1-0.1-0.1-0.2-0.1h-2.7c-0.1 0-0.2 0-0.2 .1v.2c0 .2 .1 1.6 .1 2.2c0 .2 .1 .3 .3 .3h.2c.1 0 .1 0 .1 .1v.2c0 0 0 .1-0.1 .1c-0.1 0-0.4-0.1-1.2-0.1c-0.9 0-1.2 .1-1.4 .1c-0.1 0-0.1-0.1-0.1-0.1v-0.2c0-0.1 0-0.1 .1-0.1h.4c.2 0 .3-0.2 .3-0.4c0-0.4 0-2.2 0-2.4v-0.4" fill="#2b3990" fill-rule="nonzero"/></g><g transform="translate(-2.4,267.1) scale(2.318,5.069)"><path d="M0 .3c0 0 0 1.1 0 1.2c0 .1 .1 .2 .2 .2h.2c0 0 0 0 0 0v.1c0 0 0 .1 0 .1c-0.1-0.1-0.3-0.1-0.7-0.1c-0.5 0-0.7 .1-0.7 .1c-0.1-0.1-0.1-0.1-0.1-0.1v-0.1c0 0 0 0 .1 0h.1c.1 0 .3-0.1 .3-0.2c0 0 0-1.1 0-1.3v-0.4c0-0.1 0-0.9 0-1c0-0.1-0.1-0.2-0.2-0.2h-0.3c0 0 0 0 0 0v-0.1c0-0.1 0-0.1 0-0.1c.1 0 .3 .1 .8 .1c.5 0 .6-0.1 .7-0.1c0 0 0 .1 0 .1v.1c0 0 0 0 0 0h-0.2c-0.1 0-0.2 .1-0.2 .2c0 0 0 1.1 0 1.1v.4" fill="#c52026" fill-rule="nonzero"/></g></g></g></g></svg>