<svg xmlns="http://www.w3.org/2000/svg" xmlns:xlink="http://www.w3.org/1999/xlink" width="100%" height="100%" viewBox="0 0 897 668" clip-rule="evenodd" fill-rule="evenodd" stroke-linejoin="round" stroke-miterlimit="2"><g transform="translate(448.2,322.4) translate(-382.3,-322.4)"><g id="a" transform="translate(403.1,209.3) translate(-295.3,-157.1)"><path fill="#b58859" d="M.8-36.5h12.4v36.5h4.5v-36.5h12.4v-4.1h-29.3Zm38.6 36.5v-24.2c0 0 4.1-1.8 8.3-1.8c5.4 0 6.3 2.9 6.3 10.6v15.4h4.4v-15.5c0-10.4-1.9-14.4-9.9-14.4c-4.4 0-9.1 2.2-9.1 2.2v-14.4h-4.4v42.1Zm47.8-20.5c0-6.3-2.8-9.4-9.4-9.4c-5.1 0-11.5 1.3-11.5 1.3l.2 3.3c0 0 6.9-0.7 11-0.7c3.6 0 5.3 1.4 5.3 5.5v2.6l-9.2 .8c-6 .6-9 3.1-9 8.7c0 5.9 3 9 8.3 9c5.3 0 10.6-2.4 10.6-2.4c1.7 1.8 3.8 2.4 6.9 2.4l.2-3.5c-1.9-0.2-3.3-0.9-3.4-2.6Zm-4.4 5.9v9.7c0 0-4.9 1.8-9.2 1.8c-3 0-4.4-2-4.4-5.4c0-3.2 1.4-4.9 4.9-5.3Zm17.5 14.6v-23.8c0 0 4-2.2 8.2-2.2c5.5 0 6.4 2.9 6.4 10.6v15.4h4.3v-15.5c0-10.4-1.8-14.4-9.9-14.4c-4.3 0-9.1 2.6-9.1 2.6v-2h-4.3v29.3Zm31.4 0v-13.4l4.7-0.2l8.7 13.6h5l-10-15.8l9.6-13.5h-5l-8.4 11.8l-4.6 .3v-24.9h-4.4v42.1Zm43.3-28.8c0 0-6.2-1.1-10.6-1.1c-5.3 0-10.6 2.1-10.6 8.6c0 5.8 3.2 7.1 9.8 8.1c6.4 1 7.9 1.8 7.9 4.8c0 4-2.5 5.1-7.3 5.1c-3 0-9.7-1-9.7-1l-0.2 3.8c0 0 6.5 1.1 10.3 1.1c7 0 11.3-2.3 11.3-9.2c0-5.6-2.7-7.1-10-8.3c-6.3-1.1-7.7-1.9-7.7-4.6c0-3.5 2.8-4.5 6.4-4.5c3.8 0 10.3 1 10.3 1Zm35.7 3.3v-3.8h-9.3v-9h-4.3v9h-4.2v3.8h4.2v15.4c0 8.5 2 10.7 8.1 10.7c2 0 6-0.6 6-0.6l-0.3-3.6c0 0-3.6 .3-5.3 .3c-3.8 0-4.2-1.8-4.2-8.2v-14Zm16.7-4.4c-9.3 0-12.5 4.8-12.5 14.9c0 10.7 2.6 15.6 12.5 15.6c9.9 0 12.5-4.9 12.5-15.6c0-10.1-3.2-14.9-12.5-14.9Zm0 26.7c-6.9 0-8-3.5-8-11.8c0-8.2 1.8-11.1 8-11.1c6.3 0 8 2.9 8 11.1c0 8.3-1 11.8-8 11.8Zm53.3-17.3c0-6.3-2.8-9.4-9.5-9.4c-5 0-11.4 1.3-11.4 1.3l.1 3.3c0 0 7-0.7 11.1-0.7c3.5 0 5.3 1.4 5.3 5.5v2.6l-9.2 .8c-6.1 .6-9 3.1-9 8.7c0 5.9 2.9 9 8.3 9c5.3 0 10.5-2.4 10.5-2.4c1.8 1.8 3.9 2.4 7 2.4l.2-3.5c-1.9-0.2-3.3-0.9-3.4-2.6Zm-4.4 5.9v9.7c0 0-4.9 1.8-9.2 1.8c-3 0-4.5-2-4.5-5.4c0-3.2 1.4-4.9 5-5.3Zm37.2 28.4c8.3 0 13.1-2.7 13.1-9.3c0-7-3-8.7-11.4-8.7c-6.6 0-7-0.3-7-2.7c0-0.7 1-3.3 1-3.3c.7 .1 2.3 .2 2.9 .2c7.5 0 11.3-2.3 11.3-9.9c0-3.1-0.8-4.7-1.9-5.8l5.5 .1v-3.8l-8.6 .3c0 0-3.2-0.8-6.1-0.8c-6.5 0-11 2.8-11 10c0 5.4 2.2 7.8 4.6 8.9c0 0-2 3.5-2 4.6c0 1.8 .6 3.4 1.7 4.1c-3.1 2.2-4.7 3.8-4.7 7.2c0 6.8 3.4 8.9 12.6 8.9Zm1.4-14.1c5.3 0 7.2 .5 7.2 4.9c0 3.9-2.6 5.5-8.5 5.5c-6.6 0-8.3-1.5-8.3-5.5c0-2.3 .8-3.4 3.3-5.2c0 0 4.2 .3 6.3 .3Zm-2.6-13.2c-4.6 0-6.6-1.7-6.6-6.4c0-4.6 2-6.4 6.6-6.4c4.9 0 6.7 1.8 6.7 6.4c0 4.7-1.8 6.4-6.7 6.4Zm20.1 13.5h4.4v-21.5c0 0 5.1-2.9 10.6-4v-4.5c-5.6 1.2-10.7 4.7-10.7 4.7v-4h-4.3Zm30.5-3.3c-5.8 0-7.7-3.3-7.7-9.5h19.4l.2-3.4c0-9.6-4-13.7-11.8-13.7c-7.4 0-12.2 4.3-12.2 15.4c0 10 2.8 15.1 11.6 15.1c4.7 0 11.4-1 11.4-1l-0.1-3.4c0 0-6.4 .5-10.8 .5Zm-7.7-13.1c0-7 2.8-9.8 7.8-9.8c5.2 0 7.4 2.6 7.4 9.8Zm47.1-4.1c0-6.3-2.8-9.4-9.4-9.4c-5 0-11.5 1.3-11.5 1.3l.2 3.3c0 0 7-0.7 11.1-0.7c3.5 0 5.2 1.4 5.2 5.5v2.6l-9.2 .8c-6 .6-8.9 3.1-8.9 8.7c0 5.9 2.9 9 8.2 9c5.3 0 10.6-2.4 10.6-2.4c1.7 1.8 3.9 2.4 7 2.4l.1-3.5c-1.8-0.2-3.2-0.9-3.4-2.6Zm-4.4 5.9v9.7c0 0-4.8 1.8-9.2 1.8c-3 0-4.4-2-4.4-5.4c0-3.2 1.4-4.9 5-5.3Zm28.3-10.9v-3.8h-9.3v-9h-4.4v9h-4.1v3.8h4.1v15.4c0 8.5 2.1 10.7 8.1 10.7c2.1 0 6-0.6 6-0.6l-0.3-3.6c0 0-3.6 .3-5.2 .3c-3.8 0-4.2-1.8-4.2-8.2v-14Zm33.5 0v-3.8h-9.4v-9h-4.3v9h-4.2v3.8h4.2v15.4c0 8.5 2 10.7 8.1 10.7c2 0 6-0.6 6-0.6l-0.3-3.6c0 0-3.6 .3-5.2 .3c-3.9 0-4.3-1.8-4.3-8.2v-14Zm16.2 22.2c-5.8 0-7.7-3.3-7.7-9.5h19.4l.2-3.4c0-9.6-4-13.7-11.8-13.7c-7.4 0-12.2 4.3-12.2 15.4c0 10 2.8 15.1 11.6 15.1c4.7 0 11.4-1 11.4-1l-0.1-3.4c0 0-6.4 .5-10.8 .5Zm-7.7-13.1c0-7 2.8-9.8 7.8-9.8c5.2 0 7.4 2.6 7.4 9.8Zm47.1-4.1c0-6.3-2.8-9.4-9.4-9.4c-5 0-11.5 1.3-11.5 1.3l.2 3.3c0 0 7-0.7 11.1-0.7c3.5 0 5.2 1.4 5.2 5.5v2.6l-9.2 .8c-6 .6-8.9 3.1-8.9 8.7c0 5.9 2.9 9 8.2 9c5.3 0 10.6-2.4 10.6-2.4c1.7 1.8 3.9 2.4 7 2.4l.1-3.5c-1.8-0.2-3.2-0.9-3.4-2.6Zm-4.4 5.9v9.7c0 0-4.8 1.8-9.2 1.8c-3 0-4.4-2-4.4-5.4c0-3.2 1.4-4.9 5-5.3Zm17.5 14.6v-23.8c0 0 3.7-2.2 7.9-2.2c5.3 0 6.1 2.8 6.1 10.9v15.1h4.4v-15.2c0-3.6-0.2-7.3-0.8-8.6c0 0 4-2.2 8.3-2.2c5.3 0 6.2 2.9 6.2 10.6v15.4h4.4v-15.5c0-10.6-2-14.4-9.9-14.4c-5.3 0-10.5 3-10.5 3c-1.5-2.1-3.7-3-7.6-3c-4.2 0-8.6 2.6-8.6 2.6v-2h-4.3v29.3Zm78.2-20.5c0-6.3-2.8-9.4-9.5-9.4c-5 0-11.4 1.3-11.4 1.3l.1 3.3c0 0 7-0.7 11.1-0.7c3.5 0 5.3 1.4 5.3 5.5v2.6l-9.2 .8c-6.1 .6-9 3.1-9 8.7c0 5.9 2.9 9 8.3 9c5.3 0 10.5-2.4 10.5-2.4c1.8 1.8 3.9 2.4 7 2.4l.2-3.5c-1.9-0.2-3.3-0.9-3.4-2.6Zm-4.4 5.9v9.7c0 0-4.9 1.8-9.2 1.8c-3 0-4.5-2-4.5-5.4c0-3.2 1.4-4.9 5-5.3Zm17.4 14.6v-23.8c0 0 4.1-2.2 8.3-2.2c5.5 0 6.3 2.9 6.3 10.6v15.4h4.4v-15.5c0-10.4-1.8-14.4-9.9-14.4c-4.4 0-9.1 2.6-9.1 2.6v-2h-4.3v29.3Zm49.6-42.1h-4.3v13c-0.9-0.2-4.7-0.8-7.2-0.8c-8.9 0-12.3 5.2-12.3 15.5c0 12.6 4.8 15 10.6 15c4.4 0 8.9-2.6 8.9-2.6v2h4.3Zm-12.7 38.8c-3.4 0-6.6-1.6-6.6-11.1c0-7.6 1.9-11.7 8-11.7c2.4 0 6.1 .5 7 .7v19.9c0 0-4.2 2.2-8.4 2.2Z" transform="translate(0,1.4) scale(.766,.766) translate(0,42.1)"/><path fill="#b58859" d="M8.6 0v-23.8c0 0 3.7-2.2 7.9-2.2c5.3 0 6.1 2.8 6.1 10.9v15.1h4.4v-15.2c0-3.6-0.2-7.3-0.7-8.6c0 0 3.9-2.2 8.2-2.2c5.3 0 6.2 2.9 6.2 10.6v15.4h4.4v-15.5c0-10.6-2-14.4-9.9-14.4c-5.2 0-10.5 3-10.5 3c-1.5-2.1-3.7-3-7.6-3c-4.1 0-8.5 2.6-8.5 2.6v-2h-4.4v29.3Zm65.3-20.5c0-6.3-2.8-9.4-9.4-9.4c-5.1 0-11.5 1.3-11.5 1.3l.2 3.3c0 0 6.9-0.7 11-0.7c3.6 0 5.3 1.4 5.3 5.5v2.6l-9.2 .8c-6 .6-9 3.1-9 8.7c0 5.9 3 9 8.3 9c5.3 0 10.6-2.4 10.6-2.4c1.7 1.8 3.8 2.4 6.9 2.4l.2-3.5c-1.9-0.2-3.3-0.9-3.4-2.6Zm-4.4 5.9v9.7c0 0-4.8 1.8-9.2 1.8c-3 0-4.4-2-4.4-5.4c0-3.2 1.4-4.9 4.9-5.3Zm17.5 14.6v-23.8c0 0 4-2.2 8.2-2.2c5.5 0 6.4 2.9 6.4 10.6v15.4h4.3v-15.5c0-10.4-1.8-14.4-9.9-14.4c-4.3 0-9.1 2.6-9.1 2.6v-2h-4.3v29.3Zm23.9-29.3l8.4 29.3h4.3l-3.8 13h4.4l12.2-42.3h-4.4l-7.4 25.5h-1.9l-7.4-25.5Zm41.2 0l8.4 29.3h4.3l-3.8 13h4.4l12.2-42.3h-4.4l-7.4 25.5h-1.9l-7.4-25.5Zm41.4 26c-5.7 0-7.7-3.3-7.7-9.5h19.4l.2-3.4c0-9.6-4-13.7-11.8-13.7c-7.4 0-12.2 4.3-12.2 15.4c0 10 2.9 15.1 11.6 15.1c4.7 0 11.4-1 11.4-1l-0.1-3.4c0 0-6.4 .5-10.8 .5Zm-7.7-13.1c0-7 2.9-9.8 7.8-9.8c5.2 0 7.4 2.6 7.4 9.8Zm47.2-4.1c0-6.3-2.9-9.4-9.5-9.4c-5 0-11.5 1.3-11.5 1.3l.2 3.3c0 0 7-0.7 11.1-0.7c3.5 0 5.3 1.4 5.3 5.5v2.6l-9.2 .8c-6.1 .6-9 3.1-9 8.7c0 5.9 2.9 9 8.3 9c5.2 0 10.5-2.4 10.5-2.4c1.8 1.8 3.9 2.4 7 2.4l.2-3.5c-1.9-0.2-3.3-0.9-3.4-2.6Zm-4.4 5.9v9.7c0 0-4.9 1.8-9.2 1.8c-3 0-4.5-2-4.5-5.4c0-3.2 1.4-4.9 5-5.3Zm13 14.6h4.4v-21.5c0 0 5.2-2.9 10.7-4v-4.5c-5.6 1.2-10.7 4.7-10.7 4.7v-4h-4.4Zm39.9-28.8c0 0-6.2-1.1-10.6-1.1c-5.4 0-10.6 2.1-10.6 8.6c0 5.8 3.2 7.1 9.8 8.1c6.4 1 7.9 1.8 7.9 4.8c0 4-2.6 5.1-7.4 5.1c-2.9 0-9.6-1-9.6-1l-0.3 3.8c0 0 6.6 1.1 10.4 1.1c7 0 11.3-2.3 11.3-9.2c0-5.6-2.7-7.1-10.1-8.3c-6.2-1.1-7.6-1.9-7.6-4.6c0-3.5 2.8-4.5 6.4-4.5c3.8 0 10.3 1 10.3 1Zm31.8-1.1c-9.3 0-12.5 4.8-12.5 14.9c0 10.7 2.7 15.6 12.5 15.6c9.9 0 12.5-4.9 12.5-15.6c0-10.1-3.2-14.9-12.5-14.9Zm0 26.7c-6.9 0-8-3.5-8-11.8c0-8.2 1.8-11.1 8-11.1c6.3 0 8 2.9 8 11.1c0 8.3-1 11.8-8 11.8Zm25.3-22.3h8.5v-3.8h-8.5v-2.6c0-5.4 1.1-6.8 4.4-6.8c1.7 0 5 .1 5 .1l.1-3.7c0 0-4-0.4-6-0.4c-5.7 0-7.9 2.3-7.9 10.8v2.6h-3.7v3.8h3.7v25.5h4.4Zm37.5 22.2c-5.7 0-7.6-3.3-7.6-9.5h19.3l.2-3.4c0-9.6-3.9-13.7-11.7-13.7c-7.5 0-12.3 4.3-12.3 15.4c0 10 2.9 15.1 11.6 15.1c4.8 0 11.4-1 11.4-1l-0.1-3.4c0 0-6.4 .5-10.8 .5Zm-7.7-13.1c.1-7 2.9-9.8 7.9-9.8c5.1 0 7.3 2.6 7.3 9.8Zm23.3-12.9l9.2 14.6l-9.2 14.7h4.8l7.2-11.4l7.1 11.4h4.8l-9.3-14.8l9.3-14.5h-4.8l-7.1 11.5l-7.2-11.5Zm29.4 42.3h4.4v-13.1c.9 .2 3.8 .7 6.6 .7c9 0 12.8-4.1 12.8-15.6c0-10.4-3.2-14.9-10.6-14.9c-4.4 0-8.8 2.7-8.8 2.7v-2.1h-4.4Zm12.5-39c4.3 0 6.8 3 6.8 11c0 8.4-2.1 11.8-8.5 11.8c-2.6 0-5.6-0.6-6.4-0.7v-19.7c0 0 4.1-2.4 8.1-2.4Zm29.3 22.7c-5.8 0-7.7-3.3-7.7-9.5h19.3l.3-3.4c0-9.6-4-13.7-11.8-13.7c-7.5 0-12.3 4.3-12.3 15.4c0 10 2.9 15.1 11.6 15.1c4.8 0 11.5-1 11.5-1l-0.1-3.4c0 0-6.4 .5-10.8 .5Zm-7.8-13.1c.1-7 2.9-9.8 7.9-9.8c5.2 0 7.4 2.6 7.4 9.8Zm26.5 16.4h4.4v-21.5c0 0 5.2-2.9 10.7-4v-4.5c-5.6 1.2-10.7 4.7-10.7 4.7v-4h-4.4Zm20.3 0h4.4v-29.3h-4.4Zm0-35.9h4.4v-5.1h-4.4Zm23.7 32.6c-5.8 0-7.7-3.3-7.7-9.5h19.3l.3-3.4c0-9.6-4-13.7-11.8-13.7c-7.4 0-12.3 4.3-12.3 15.4c0 10 2.9 15.1 11.7 15.1c4.7 0 11.4-1 11.4-1l-0.1-3.4c0 0-6.4 .5-10.8 .5Zm-7.8-13.1c.1-7 2.9-9.8 7.9-9.8c5.2 0 7.4 2.6 7.4 9.8Zm30.9 16.4v-23.8c0 0 4.1-2.2 8.3-2.2c5.4 0 6.3 2.9 6.3 10.6v15.4h4.4v-15.5c0-10.4-1.9-14.4-9.9-14.4c-4.4 0-9.1 2.6-9.1 2.6v-2h-4.4v29.3Zm38.1-29.9c-8.8 0-12.2 4.1-12.2 14.7c0 11.5 2.7 15.8 12 15.8c2.7 0 8.2-0.8 8.2-0.8l-0.2-3.7c0 0-4.7 .6-6.9 .6c-7.3 0-8.6-3.2-8.6-11.9c0-7.8 1.8-10.8 8.5-10.8c2.3 0 7 .6 7 .6l.1-3.6c0 0-5.2-0.9-7.9-0.9Zm25 26.6c-5.7 0-7.6-3.3-7.6-9.5h19.3l.2-3.4c0-9.6-4-13.7-11.8-13.7c-7.4 0-12.2 4.3-12.2 15.4c0 10 2.9 15.1 11.6 15.1c4.8 0 11.4-1 11.4-1l-0.1-3.4c0 0-6.4 .5-10.8 .5Zm-7.7-13.1c.1-7 2.9-9.8 7.8-9.8c5.2 0 7.4 2.6 7.4 9.8Zm24.3 23.6h3.6l3.9-13.5h-4.9Zm25.7-36.5l7 29.3h7.3l6.2-22.9l6.3 22.9h7.3l7-29.3h-4.4l-5.9 25.5h-1l-7-24.9h-4.5l-7 24.9h-1l-5.9-25.5Zm57.6 26c-5.7 0-7.6-3.3-7.6-9.5h19.3l.2-3.4c0-9.6-3.9-13.7-11.7-13.7c-7.5 0-12.3 4.3-12.3 15.4c0 10 2.9 15.1 11.6 15.1c4.8 0 11.4-1 11.4-1l-0.1-3.4c0 0-6.4 .5-10.8 .5Zm-7.7-13.1c.1-7 2.9-9.8 7.9-9.8c5.1 0 7.3 2.6 7.3 9.8Z" transform="translate(0,1.4) scale(.766,.766) translate(0,112.4)"/><path fill="#b58859" d="M8.6 0v-24.2c0 0 4.1-1.8 8.3-1.8c5.4 0 6.3 2.9 6.3 10.6v15.4h4.4v-15.5c0-10.4-1.9-14.4-10-14.4c-4.3 0-9 2.2-9 2.2v-14.4h-4.4v42.1Zm47.8-20.5c0-6.3-2.8-9.4-9.5-9.4c-5 0-11.4 1.3-11.4 1.3l.1 3.3c0 0 7-0.7 11.1-0.7c3.5 0 5.3 1.4 5.3 5.5v2.6l-9.2 .8c-6.1 .6-9 3.1-9 8.7c0 5.9 2.9 9 8.3 9c5.3 0 10.5-2.4 10.5-2.4c1.8 1.8 3.9 2.4 7 2.4l.2-3.5c-1.9-0.2-3.3-0.9-3.4-2.6Zm-4.4 5.9v9.7c0 0-4.9 1.8-9.2 1.8c-3 0-4.5-2-4.5-5.4c0-3.2 1.4-4.9 5-5.3Zm10-14.7l8.3 29.3h8.8l8.2-29.3h-4.5l-7.1 25.5h-2.2l-6.8-25.5Zm41.3 26c-5.8 0-7.7-3.3-7.7-9.5h19.3l.3-3.4c0-9.6-4-13.7-11.8-13.7c-7.5 0-12.3 4.3-12.3 15.4c0 10 2.9 15.1 11.6 15.1c4.8 0 11.5-1 11.5-1l-0.2-3.4c0 0-6.4 .5-10.7 .5Zm-7.8-13.1c.1-7 2.9-9.8 7.9-9.8c5.1 0 7.4 2.6 7.4 9.8Zm52.3-13.5c-4.1 0-8.6 2.1-8.6 2.1v-14.3h-4.3v42c0 0 6.3 .7 9.8 .7c10.7 0 13.8-4.1 13.8-15.7c0-10.6-2.7-14.8-10.7-14.8Zm-3.2 26.6c-1.6 0-5.4-0.3-5.4-0.3v-20.7c0 0 4.1-1.7 8.2-1.7c5.1 0 6.7 3.3 6.7 10.9c0 8.2-1.4 11.8-9.5 11.8Zm32 0c-5.8 0-7.7-3.3-7.7-9.5h19.3l.3-3.4c0-9.6-4-13.7-11.8-13.7c-7.5 0-12.3 4.3-12.3 15.4c0 10 2.9 15.1 11.6 15.1c4.8 0 11.5-1 11.5-1l-0.1-3.4c0 0-6.4 .5-10.8 .5Zm-7.8-13.1c.1-7 2.9-9.8 7.9-9.8c5.1 0 7.4 2.6 7.4 9.8Zm37.4 13.1c-5.8 0-7.7-3.3-7.7-9.5h19.3l.3-3.4c0-9.6-4-13.7-11.8-13.7c-7.5 0-12.3 4.3-12.3 15.4c0 10 2.9 15.1 11.6 15.1c4.8 0 11.5-1 11.5-1l-0.2-3.4c0 0-6.3 .5-10.7 .5Zm-7.8-13.1c.1-7 2.9-9.8 7.9-9.8c5.1 0 7.4 2.6 7.4 9.8Zm30.9 16.4v-23.8c0 0 4-2.2 8.3-2.2c5.4 0 6.3 2.9 6.3 10.6v15.4h4.3v-15.5c0-10.4-1.8-14.4-9.9-14.4c-4.3 0-9.1 2.6-9.1 2.6v-2h-4.3v29.3Zm60.7-20.5c0-6.3-2.9-9.4-9.5-9.4c-5 0-11.5 1.3-11.5 1.3l.2 3.3c0 0 7-0.7 11.1-0.7c3.5 0 5.3 1.4 5.3 5.5v2.6l-9.2 .8c-6.1 .6-9 3.1-9 8.7c0 5.9 2.9 9 8.3 9c5.2 0 10.5-2.4 10.5-2.4c1.8 1.8 3.9 2.4 7 2.4l.2-3.5c-1.9-0.2-3.3-0.9-3.4-2.6Zm-4.4 5.9v9.7c0 0-4.9 1.8-9.2 1.8c-3 0-4.5-2-4.5-5.4c0-3.2 1.4-4.9 5-5.3Zm26-15.3c-4.2 0-8.6 2.1-8.6 2.1v-14.3h-4.4v42c0 0 6.3 .7 9.8 .7c10.7 0 13.9-4.1 13.9-15.7c0-10.6-2.7-14.8-10.7-14.8Zm-3.2 26.6c-1.6 0-5.4-0.3-5.4-0.3v-20.7c0 0 4.1-1.7 8.1-1.7c5.2 0 6.7 3.3 6.7 10.9c0 8.2-1.4 11.8-9.4 11.8Zm21.4 3.3h4.4v-42.1h-4.4Zm24-3.3c-5.7 0-7.6-3.3-7.6-9.5h19.3l.2-3.4c0-9.6-4-13.7-11.8-13.7c-7.4 0-12.2 4.3-12.2 15.4c0 10 2.9 15.1 11.6 15.1c4.8 0 11.4-1 11.4-1l-0.1-3.4c0 0-6.4 .5-10.8 .5Zm-7.7-13.1c.1-7 2.9-9.8 7.8-9.8c5.2 0 7.4 2.6 7.4 9.8Zm54.6-9.1v-3.8h-9.4v-9h-4.3v9h-4.2v3.8h4.2v15.4c0 8.5 2 10.7 8.1 10.7c2 0 6-0.6 6-0.6l-0.3-3.6c0 0-3.6 .3-5.2 .3c-3.9 0-4.3-1.8-4.3-8.2v-14Zm16.6-4.4c-9.3 0-12.5 4.8-12.5 14.9c0 10.7 2.7 15.6 12.5 15.6c9.9 0 12.5-4.9 12.5-15.6c0-10.1-3.2-14.9-12.5-14.9Zm0 26.7c-6.9 0-8-3.5-8-11.8c0-8.2 1.8-11.1 8-11.1c6.3 0 8 2.9 8 11.1c0 8.3-1 11.8-8 11.8Zm45.5-26.7c-4.1 0-8.6 2.1-8.6 2.1v-14.3h-4.3v42c0 0 6.3 .7 9.8 .7c10.7 0 13.8-4.1 13.8-15.7c0-10.6-2.7-14.8-10.7-14.8Zm-3.2 26.6c-1.6 0-5.4-0.3-5.4-0.3v-20.7c0 0 4.1-1.7 8.2-1.7c5.1 0 6.7 3.3 6.7 10.9c0 8.2-1.4 11.8-9.5 11.8Zm39.4-26v23.8c0 0-3.7 2.2-8 2.2c-5.5 0-6.2-2.7-6.2-10.8v-15.2h-4.4v15.3c0 10.8 1.7 14.6 9.9 14.6c4.3 0 8.7-2.7 8.7-2.7v2.1h4.4v-29.3Zm12.8 29.3h4.4v-29.3h-4.4Zm0-35.9h4.4v-5.1h-4.4Zm13.2 35.9h4.4v-42.1h-4.4Zm35.7-42.1h-4.3v13c-0.9-0.2-4.7-0.8-7.2-0.8c-8.9 0-12.3 5.2-12.3 15.5c0 12.6 4.8 15 10.6 15c4.4 0 8.9-2.6 8.9-2.6v2h4.3Zm-12.7 38.8c-3.5 0-6.6-1.6-6.6-11.1c0-7.6 1.8-11.7 8-11.7c2.4 0 6 .5 7 .7v19.9c0 0-4.2 2.2-8.4 2.2Zm54.8-17.2c0-6.3-2.8-9.4-9.4-9.4c-5.1 0-11.5 1.3-11.5 1.3l.1 3.3c0 0 7-0.7 11.1-0.7c3.5 0 5.3 1.4 5.3 5.5v2.6l-9.2 .8c-6 .6-9 3.1-9 8.7c0 5.9 3 9 8.3 9c5.3 0 10.5-2.4 10.5-2.4c1.8 1.8 3.9 2.4 7 2.4l.2-3.5c-1.9-0.2-3.3-0.9-3.4-2.6Zm-4.4 5.9v9.7c0 0-4.9 1.8-9.2 1.8c-3 0-4.5-2-4.5-5.4c0-3.2 1.4-4.9 5-5.3Zm45.5-14.2c0 0-6.2-1.1-10.6-1.1c-5.3 0-10.5 2.1-10.5 8.6c0 5.8 3.1 7.1 9.8 8.1c6.3 1 7.9 1.8 7.9 4.8c0 4-2.6 5.1-7.4 5.1c-3 0-9.7-1-9.7-1l-0.2 3.8c0 0 6.5 1.1 10.3 1.1c7 0 11.4-2.3 11.4-9.2c0-5.6-2.8-7.1-10.1-8.3c-6.2-1.1-7.6-1.9-7.6-4.6c0-3.5 2.7-4.5 6.3-4.5c3.8 0 10.3 1 10.3 1Zm22.9 3.3v-3.8h-9.3v-9h-4.4v9h-4.1v3.8h4.1v15.4c0 8.5 2.1 10.7 8.1 10.7c2.1 0 6-0.6 6-0.6l-0.3-3.6c0 0-3.6 .3-5.2 .3c-3.8 0-4.2-1.8-4.2-8.2v-14Zm26.1 5c0-6.3-2.8-9.4-9.5-9.4c-5 0-11.5 1.3-11.5 1.3l.2 3.3c0 0 7-0.7 11.1-0.7c3.5 0 5.3 1.4 5.3 5.5v2.6l-9.2 .8c-6.1 .6-9 3.1-9 8.7c0 5.9 2.9 9 8.3 9c5.2 0 10.5-2.4 10.5-2.4c1.8 1.8 3.9 2.4 7 2.4l.2-3.5c-1.9-0.2-3.3-0.9-3.4-2.6Zm-4.4 5.9v9.7c0 0-4.9 1.8-9.2 1.8c-3 0-4.5-2-4.5-5.4c0-3.2 1.4-4.9 5-5.3Zm26-15.3c-4.2 0-8.6 2.1-8.6 2.1v-14.3h-4.4v42c0 0 6.3 .7 9.8 .7c10.7 0 13.9-4.1 13.9-15.7c0-10.6-2.7-14.8-10.7-14.8Zm-3.2 26.6c-1.6 0-5.4-0.3-5.4-0.3v-20.7c0 0 4.1-1.7 8.1-1.7c5.2 0 6.7 3.3 6.7 10.9c0 8.2-1.4 11.8-9.4 11.8Zm21.4 3.3h4.4v-42.1h-4.4Zm24-3.3c-5.7 0-7.6-3.3-7.6-9.5h19.3l.2-3.4c0-9.6-3.9-13.7-11.7-13.7c-7.5 0-12.3 4.3-12.3 15.4c0 10 2.9 15.1 11.6 15.1c4.8 0 11.4-1 11.4-1l-0.1-3.4c0 0-6.4 .5-10.8 .5Zm-7.7-13.1c.1-7 2.9-9.8 7.9-9.8c5.1 0 7.3 2.6 7.3 9.8Z" transform="translate(0,1.4) scale(.766,.766) translate(0,182.8)"/><path fill="#b58859" d="M15.2-29.9c-8.8 0-12.2 4.1-12.2 14.7c0 11.5 2.7 15.8 12.1 15.8c2.7 0 8.1-0.8 8.1-0.8l-0.2-3.7c0 0-4.7 .6-6.9 .6c-7.2 0-8.6-3.2-8.6-11.9c0-7.8 1.8-10.8 8.6-10.8c2.2 0 6.9 .6 6.9 .6l.2-3.6c0 0-5.3-0.9-8-0.9Zm25.5 0c-9.3 0-12.6 4.8-12.6 14.9c0 10.7 2.7 15.6 12.6 15.6c9.9 0 12.5-4.9 12.5-15.6c0-10.1-3.2-14.9-12.5-14.9Zm0 26.7c-7 0-8.1-3.5-8.1-11.8c0-8.2 1.8-11.1 8.1-11.1c6.2 0 8 2.9 8 11.1c0 8.3-1.1 11.8-8 11.8Zm19.7 3.2h4.4v-21.5c0 0 5.1-2.9 10.6-4v-4.5c-5.6 1.2-10.7 4.7-10.7 4.7v-4h-4.3Zm20.2 13h4.4v-13.1c.9 .2 3.8 .7 6.6 .7c9 0 12.8-4.1 12.8-15.6c0-10.4-3.2-14.9-10.6-14.9c-4.4 0-8.8 2.7-8.8 2.7v-2.1h-4.4Zm12.5-39c4.3 0 6.8 3 6.8 11c0 8.4-2.1 11.8-8.5 11.8c-2.6 0-5.6-0.6-6.4-0.7v-19.7c0 0 4.1-2.4 8.1-2.4Zm29.7-3.9c-9.3 0-12.6 4.8-12.6 14.9c0 10.7 2.7 15.6 12.6 15.6c9.9 0 12.5-4.9 12.5-15.6c0-10.1-3.2-14.9-12.5-14.9Zm0 26.7c-6.9 0-8-3.5-8-11.8c0-8.2 1.8-11.1 8-11.1c6.3 0 8 2.9 8 11.1c0 8.3-1 11.8-8 11.8Zm19.7 3.2h4.4v-21.5c0 0 5.1-2.9 10.7-4v-4.5c-5.7 1.2-10.8 4.7-10.8 4.7v-4h-4.3Zm41-20.5c0-6.3-2.9-9.4-9.5-9.4c-5 0-11.5 1.3-11.5 1.3l.2 3.3c0 0 7-0.7 11.1-0.7c3.5 0 5.3 1.4 5.3 5.5v2.6l-9.2 .8c-6.1 .6-9 3.1-9 8.7c0 5.9 2.9 9 8.3 9c5.2 0 10.5-2.4 10.5-2.4c1.8 1.8 3.9 2.4 7 2.4l.2-3.5c-1.9-0.2-3.3-0.9-3.4-2.6Zm-4.4 5.9v9.7c0 0-4.9 1.8-9.2 1.8c-3 0-4.5-2-4.5-5.4c0-3.2 1.4-4.9 5-5.3Zm28.2-10.9v-3.8h-9.3v-9h-4.3v9h-4.2v3.8h4.2v15.4c0 8.5 2 10.7 8 10.7c2.1 0 6-0.6 6-0.6l-0.3-3.6c0 0-3.5 .3-5.2 .3c-3.8 0-4.2-1.8-4.2-8.2v-14Zm16.3 22.2c-5.8 0-7.7-3.3-7.7-9.5h19.3l.2-3.4c.1-9.6-3.9-13.7-11.7-13.7c-7.5 0-12.3 4.3-12.3 15.4c0 10 2.9 15.1 11.6 15.1c4.8 0 11.5-1 11.5-1l-0.2-3.4c0 0-6.4 .5-10.8 .5Zm-7.8-13.1c.1-7 2.9-9.8 7.9-9.8c5.1 0 7.4 2.6 7.4 9.8Zm39.4 29.4h4.4v-13.1c.8 .2 3.8 .7 6.6 .7c9 0 12.7-4.1 12.7-15.6c0-10.4-3.2-14.9-10.6-14.9c-4.3 0-8.8 2.7-8.8 2.7v-2.1h-4.3Zm12.5-39c4.3 0 6.8 3 6.8 11c0 8.4-2.1 11.8-8.6 11.8c-2.5 0-5.6-0.6-6.3-0.7v-19.7c0 0 4.1-2.4 8.1-2.4Zm39.1 5.5c0-6.3-2.8-9.4-9.5-9.4c-5 0-11.5 1.3-11.5 1.3l.2 3.3c0 0 7-0.7 11.1-0.7c3.5 0 5.3 1.4 5.3 5.5v2.6l-9.2 .8c-6.1 .6-9 3.1-9 8.7c0 5.9 2.9 9 8.3 9c5.2 0 10.5-2.4 10.5-2.4c1.8 1.8 3.9 2.4 7 2.4l.2-3.5c-1.9-0.2-3.3-0.9-3.4-2.6Zm-4.4 5.9v9.7c0 0-4.9 1.8-9.2 1.8c-3 0-4.5-2-4.5-5.4c0-3.2 1.4-4.9 5-5.3Zm13 14.6h4.4v-21.5c0 0 5.2-2.9 10.7-4v-4.5c-5.6 1.2-10.7 4.7-10.7 4.7v-4h-4.4Zm35.5-25.5v-3.8h-9.3v-9h-4.4v9h-4.1v3.8h4.1v15.4c0 8.5 2.1 10.7 8.1 10.7c2.1 0 6-0.6 6-0.6l-0.3-3.6c0 0-3.6 .3-5.2 .3c-3.8 0-4.2-1.8-4.2-8.2v-14Zm9.8 25.5v-23.8c0 0 4-2.2 8.3-2.2c5.4 0 6.3 2.9 6.3 10.6v15.4h4.3v-15.5c0-10.4-1.8-14.4-9.9-14.4c-4.3 0-9.1 2.6-9.1 2.6v-2h-4.3v29.3Zm37.9-3.3c-5.7 0-7.7-3.3-7.7-9.5h19.4l.2-3.4c0-9.6-4-13.7-11.8-13.7c-7.4 0-12.2 4.3-12.2 15.4c0 10 2.9 15.1 11.6 15.1c4.7 0 11.4-1 11.4-1l-0.1-3.4c0 0-6.4 .5-10.8 .5Zm-7.7-13.1c0-7 2.8-9.8 7.8-9.8c5.2 0 7.4 2.6 7.4 9.8Zm26.5 16.4h4.4v-21.5c0 0 5.1-2.9 10.6-4v-4.5c-5.6 1.2-10.7 4.7-10.7 4.7v-4h-4.3Zm38.8-25.5h8.5v-3.8h-8.5v-2.6c0-5.4 1-6.8 4.3-6.8c1.8 0 5 .1 5 .1l.1-3.7c0 0-3.9-0.4-5.9-0.4c-5.8 0-7.9 2.3-7.9 10.8v2.6h-3.7v3.8h3.7v25.5h4.4Zm24.5-4.4c-9.3 0-12.6 4.8-12.6 14.9c0 10.7 2.7 15.6 12.6 15.6c9.9 0 12.5-4.9 12.5-15.6c0-10.1-3.2-14.9-12.5-14.9Zm0 26.7c-7 0-8.1-3.5-8.1-11.8c0-8.2 1.8-11.1 8.1-11.1c6.2 0 8 2.9 8 11.1c0 8.3-1.1 11.8-8 11.8Zm19.7 3.2h4.4v-21.5c0 0 5.1-2.9 10.6-4v-4.5c-5.6 1.2-10.7 4.7-10.7 4.7v-4h-4.3Zm53.8-20.5c0-6.3-2.8-9.4-9.4-9.4c-5.1 0-11.5 1.3-11.5 1.3l.2 3.3c0 0 6.9-0.7 11.1-0.7c3.5 0 5.2 1.4 5.2 5.5v2.6l-9.2 .8c-6 .6-8.9 3.1-8.9 8.7c0 5.9 2.9 9 8.2 9c5.3 0 10.6-2.4 10.6-2.4c1.7 1.8 3.8 2.4 6.9 2.4l.2-3.5c-1.9-0.2-3.3-0.9-3.4-2.6Zm-4.4 5.9v9.7c0 0-4.8 1.8-9.2 1.8c-3 0-4.4-2-4.4-5.4c0-3.2 1.4-4.9 5-5.3Zm13.4 14.6h4.4v-42.1h-4.4Zm13.6 0h4.4v-42.1h-4.4Zm37.3-29.9c-9.3 0-12.5 4.8-12.5 14.9c0 10.7 2.7 15.6 12.5 15.6c9.9 0 12.5-4.9 12.5-15.6c0-10.1-3.2-14.9-12.5-14.9Zm0 26.7c-6.9 0-8-3.5-8-11.8c0-8.2 1.8-11.1 8-11.1c6.3 0 8 2.9 8 11.1c0 8.3-1 11.8-8 11.8Zm38-26.1v23.8c0 0-3.7 2.2-8 2.2c-5.5 0-6.2-2.7-6.2-10.8v-15.2h-4.4v15.3c0 10.8 1.7 14.6 9.9 14.6c4.3 0 8.7-2.7 8.7-2.7v2.1h4.4v-29.3Zm12.8 29.3h4.4v-21.5c0 0 5.2-2.9 10.7-4v-4.5c-5.6 1.2-10.7 4.7-10.7 4.7v-4h-4.4Z" transform="translate(0,1.4) scale(.766,.766) translate(0,253.1)"/><path fill="#b58859" d="M15.2-29.9c-8.8 0-12.2 4.1-12.2 14.7c0 11.5 2.7 15.8 12.1 15.8c2.7 0 8.1-0.8 8.1-0.8l-0.2-3.7c0 0-4.7 .6-6.9 .6c-7.2 0-8.6-3.2-8.6-11.9c0-7.8 1.8-10.8 8.6-10.8c2.2 0 6.9 .6 6.9 .6l.2-3.6c0 0-5.3-0.9-8-0.9Zm14.9 29.9h4.4v-42.1h-4.4Zm13.2 0h4.4v-29.3h-4.4Zm0-35.9h4.4v-5.1h-4.4Zm23.7 32.6c-5.8 0-7.7-3.3-7.7-9.5h19.3l.3-3.4c0-9.6-4-13.7-11.8-13.7c-7.5 0-12.3 4.3-12.3 15.4c0 10 2.9 15.1 11.6 15.1c4.8 0 11.5-1 11.5-1l-0.1-3.4c0 0-6.4 .5-10.8 .5Zm-7.8-13.1c.1-7 2.9-9.8 7.9-9.8c5.1 0 7.4 2.6 7.4 9.8Zm30.9 16.4v-23.8c0 0 4.1-2.2 8.3-2.2c5.4 0 6.3 2.9 6.3 10.6v15.4h4.4v-15.5c0-10.4-1.9-14.4-10-14.4c-4.3 0-9 2.6-9 2.6v-2h-4.4v29.3Zm42.1-25.5v-3.8h-9.3v-9h-4.4v9h-4.1v3.8h4.1v15.4c0 8.5 2.1 10.7 8.1 10.7c2.1 0 6-0.6 6-0.6l-0.3-3.6c0 0-3.6 .3-5.2 .3c-3.8 0-4.2-1.8-4.2-8.2v-14Zm25-3.3c0 0-6.2-1.1-10.6-1.1c-5.4 0-10.6 2.1-10.6 8.6c0 5.8 3.2 7.1 9.8 8.1c6.4 1 7.9 1.8 7.9 4.8c0 4-2.6 5.1-7.4 5.1c-3 0-9.6-1-9.6-1l-0.3 3.8c0 0 6.6 1.1 10.3 1.1c7.1 0 11.4-2.3 11.4-9.2c0-5.6-2.7-7.1-10.1-8.3c-6.2-1.1-7.6-1.9-7.6-4.6c0-3.5 2.8-4.5 6.4-4.5c3.8 0 10.3 1 10.3 1Zm5.4 36h3.7l3.9-13.5h-4.9Zm25.8-36.5l7 29.3h7.3l6.2-22.9l6.2 22.9h7.4l6.9-29.3h-4.4l-5.8 25.5h-1l-7-24.9h-4.6l-6.9 24.9h-1l-5.9-25.5Zm51.5 29.3v-24.2c0 0 4.1-1.8 8.2-1.8c5.4 0 6.3 2.9 6.3 10.6v15.4h4.4v-15.5c0-10.4-1.9-14.4-9.9-14.4c-4.4 0-9 2.2-9 2.2v-14.4h-4.4v42.1Zm38.3-29.9c-9.3 0-12.6 4.8-12.6 14.9c0 10.7 2.7 15.6 12.6 15.6c9.9 0 12.5-4.9 12.5-15.6c0-10.1-3.2-14.9-12.5-14.9Zm0 26.7c-6.9 0-8.1-3.5-8.1-11.8c0-8.2 1.9-11.1 8.1-11.1c6.3 0 8 2.9 8 11.1c0 8.3-1 11.8-8 11.8Zm24.1 3.2v-23.8c0 0 3.7-2.2 7.8-2.2c5.4 0 6.2 2.8 6.2 10.9v15.1h4.4v-15.2c0-3.6-0.3-7.3-0.8-8.6c0 0 3.9-2.2 8.3-2.2c5.3 0 6.1 2.9 6.1 10.6v15.4h4.4v-15.5c0-10.6-1.9-14.4-9.9-14.4c-5.2 0-10.4 3-10.4 3c-1.5-2.1-3.7-3-7.6-3c-4.2 0-8.6 2.6-8.6 2.6v-2h-4.3v29.3Zm68.7-29.9c-9.2 0-12.5 4.8-12.5 14.9c0 10.7 2.7 15.6 12.5 15.6c9.9 0 12.6-4.9 12.6-15.6c0-10.1-3.3-14.9-12.6-14.9Zm0 26.7c-6.9 0-8-3.5-8-11.8c0-8.2 1.8-11.1 8-11.1c6.3 0 8.1 2.9 8.1 11.1c0 8.3-1.1 11.8-8.1 11.8Zm38-26.1v23.8c0 0-3.7 2.2-8 2.2c-5.5 0-6.2-2.7-6.2-10.8v-15.2h-4.4v15.3c0 10.8 1.7 14.6 9.9 14.6c4.3 0 8.7-2.7 8.7-2.7v2.1h4.4v-29.3Zm12.8 29.3h4.4v-21.5c0 0 5.2-2.9 10.7-4v-4.5c-5.6 1.2-10.7 4.7-10.7 4.7v-4h-4.4Zm30.8-29.3l7 29.3h7.3l6.2-22.9l6.2 22.9h7.4l6.9-29.3h-4.3l-5.9 25.5h-1l-7-24.9h-4.6l-6.9 24.9h-1l-5.9-25.5Zm58-0.6c-9.2 0-12.5 4.8-12.5 14.9c0 10.7 2.7 15.6 12.5 15.6c9.9 0 12.6-4.9 12.6-15.6c0-10.1-3.2-14.9-12.6-14.9Zm0 26.7c-6.9 0-8-3.5-8-11.8c0-8.2 1.8-11.1 8-11.1c6.3 0 8.1 2.9 8.1 11.1c0 8.3-1.1 11.8-8.1 11.8Zm19.7 3.2h4.4v-21.5c0 0 5.2-2.9 10.7-4v-4.5c-5.6 1.2-10.7 4.7-10.7 4.7v-4h-4.4Zm24.7 0v-13.4l4.6-0.2l8.8 13.6h5l-10-15.8l9.5-13.5h-4.9l-8.4 11.8l-4.6 .3v-24.9h-4.4v42.1Zm56.2-28.8c0 0-6.3-1.1-10.7-1.1c-5.3 0-10.5 2.1-10.5 8.6c0 5.8 3.2 7.1 9.8 8.1c6.4 1 7.9 1.8 7.9 4.8c0 4-2.6 5.1-7.4 5.1c-3 0-9.7-1-9.7-1l-0.2 3.8c0 0 6.6 1.1 10.3 1.1c7.1 0 11.4-2.3 11.4-9.2c0-5.6-2.8-7.1-10.1-8.3c-6.2-1.1-7.6-1.9-7.6-4.6c0-3.5 2.7-4.5 6.4-4.5c3.7 0 10.2 1 10.2 1Zm28.3 8.3c0-6.3-2.8-9.4-9.4-9.4c-5.1 0-11.5 1.3-11.5 1.3l.2 3.3c0 0 6.9-0.7 11.1-0.7c3.5 0 5.2 1.4 5.2 5.5v2.6l-9.2 .8c-6 .6-8.9 3.1-8.9 8.7c0 5.9 2.9 9 8.2 9c5.3 0 10.6-2.4 10.6-2.4c1.7 1.8 3.8 2.4 6.9 2.4l.2-3.5c-1.9-0.2-3.3-0.9-3.4-2.6Zm-4.4 5.9v9.7c0 0-4.8 1.8-9.2 1.8c-3 0-4.4-2-4.4-5.4c0-3.2 1.4-4.9 5-5.3Zm10-14.7l8.3 29.3h8.8l8.3-29.3h-4.6l-7 25.5h-2.2l-6.9-25.5Zm41.3 26c-5.8 0-7.7-3.3-7.7-9.5h19.4l.2-3.4c0-9.6-4-13.7-11.8-13.7c-7.4 0-12.2 4.3-12.2 15.4c0 10 2.8 15.1 11.6 15.1c4.7 0 11.4-1 11.4-1l-0.1-3.4c0 0-6.4 .5-10.8 .5Zm-7.7-13.1c0-7 2.8-9.8 7.8-9.8c5.2 0 7.4 2.6 7.4 9.8Zm46-12.4c0 0-6.2-1.1-10.6-1.1c-5.3 0-10.5 2.1-10.5 8.6c0 5.8 3.1 7.1 9.7 8.1c6.4 1 8 1.8 8 4.8c0 4-2.6 5.1-7.4 5.1c-3 0-9.7-1-9.7-1l-0.2 3.8c0 0 6.5 1.1 10.3 1.1c7 0 11.4-2.3 11.4-9.2c0-5.6-2.8-7.1-10.1-8.3c-6.2-1.1-7.6-1.9-7.6-4.6c0-3.5 2.7-4.5 6.3-4.5c3.8 0 10.3 1 10.3 1Z" transform="translate(0,1.4) scale(.766,.766) translate(0,323.5)"/><path fill="#b58859" d="M8.6 0v-24.2c0 0 4.1-1.8 8.3-1.8c5.4 0 6.3 2.9 6.3 10.6v15.4h4.4v-15.5c0-10.4-1.9-14.4-10-14.4c-4.3 0-9 2.2-9 2.2v-14.4h-4.4v42.1Zm45.4-29.3v23.8c0 0-3.7 2.2-8.1 2.2c-5.4 0-6.1-2.7-6.1-10.8v-15.2h-4.4v15.3c0 10.8 1.7 14.6 9.9 14.6c4.3 0 8.7-2.7 8.7-2.7v2.1h4.4v-29.3Zm17.2 29.3v-23.8c0 0 4.1-2.2 8.3-2.2c5.4 0 6.3 2.9 6.3 10.6v15.4h4.3v-15.5c0-10.4-1.8-14.4-9.9-14.4c-4.3 0-9 2.6-9 2.6v-2h-4.4v29.3Zm49.6-42.1h-4.3v13c-0.9-0.2-4.7-0.8-7.3-0.8c-8.9 0-12.2 5.2-12.2 15.5c0 12.6 4.8 15 10.5 15c4.4 0 9-2.6 9-2.6v2h4.3Zm-12.7 38.8c-3.5 0-6.6-1.6-6.6-11.1c0-7.6 1.8-11.7 8-11.7c2.4 0 6 .5 7 .7v19.9c0 0-4.3 2.2-8.4 2.2Zm21.2 3.3h4.4v-21.5c0 0 5.1-2.9 10.6-4v-4.5c-5.6 1.2-10.7 4.7-10.7 4.7v-4h-4.3Zm30.5-3.3c-5.7 0-7.7-3.3-7.7-9.5h19.4l.2-3.4c0-9.6-4-13.7-11.8-13.7c-7.4 0-12.2 4.3-12.2 15.4c0 10 2.9 15.1 11.6 15.1c4.7 0 11.4-1 11.4-1l-0.1-3.4c0 0-6.4 .5-10.8 .5Zm-7.7-13.1c0-7 2.8-9.8 7.8-9.8c5.2 0 7.4 2.6 7.4 9.8Zm49-25.7h-4.4v13c-0.8-0.2-4.7-0.8-7.2-0.8c-8.9 0-12.2 5.2-12.2 15.5c0 12.6 4.8 15 10.5 15c4.4 0 8.9-2.6 8.9-2.6v2h4.4Zm-12.7 38.8c-3.5 0-6.6-1.6-6.6-11.1c0-7.6 1.8-11.7 8-11.7c2.4 0 6 .5 6.9 .7v19.9c0 0-4.2 2.2-8.3 2.2Zm40.7-25.5c0 0-6.2-1.1-10.6-1.1c-5.3 0-10.5 2.1-10.5 8.6c0 5.8 3.1 7.1 9.8 8.1c6.4 1 7.9 1.8 7.9 4.8c0 4-2.6 5.1-7.4 5.1c-3 0-9.7-1-9.7-1l-0.2 3.8c0 0 6.6 1.1 10.3 1.1c7 0 11.4-2.3 11.4-9.2c0-5.6-2.8-7.1-10.1-8.3c-6.2-1.1-7.6-1.9-7.6-4.6c0-3.5 2.7-4.5 6.4-4.5c3.7 0 10.2 1 10.2 1Zm31.9-1.1c-9.3 0-12.6 4.8-12.6 14.9c0 10.7 2.7 15.6 12.6 15.6c9.9 0 12.5-4.9 12.5-15.6c0-10.1-3.2-14.9-12.5-14.9Zm0 26.7c-7 0-8.1-3.5-8.1-11.8c0-8.2 1.8-11.1 8.1-11.1c6.2 0 8 2.9 8 11.1c0 8.3-1.1 11.8-8 11.8Zm25.3-22.3h8.5v-3.8h-8.5v-2.6c0-5.4 1-6.8 4.3-6.8c1.8 0 5.1 .1 5.1 .1v-3.7c0 0-3.9-0.4-5.9-0.4c-5.7 0-7.9 2.3-7.9 10.8v2.6h-3.7v3.8h3.7v25.5h4.4Zm31.1 25.5v-24.2c0 0 4.1-1.8 8.2-1.8c5.4 0 6.3 2.9 6.3 10.6v15.4h4.4v-15.5c0-10.4-1.9-14.4-9.9-14.4c-4.4 0-9 2.2-9 2.2v-14.4h-4.4v42.1Zm38.3-29.9c-9.3 0-12.6 4.8-12.6 14.9c0 10.7 2.7 15.6 12.6 15.6c9.9 0 12.5-4.9 12.5-15.6c0-10.1-3.2-14.9-12.5-14.9Zm0 26.7c-6.9 0-8.1-3.5-8.1-11.8c0-8.2 1.9-11.1 8.1-11.1c6.3 0 8 2.9 8 11.1c0 8.3-1 11.8-8 11.8Zm38-26.1v23.8c0 0-3.7 2.2-8.1 2.2c-5.4 0-6.1-2.7-6.1-10.8v-15.2h-4.4v15.3c0 10.8 1.7 14.6 9.9 14.6c4.3 0 8.7-2.7 8.7-2.7v2.1h4.4v-29.3Zm12.8 29.3h4.4v-21.5c0 0 5.2-2.9 10.7-4v-4.5c-5.7 1.2-10.8 4.7-10.8 4.7v-4h-4.3Zm39.9-28.8c0 0-6.3-1.1-10.6-1.1c-5.4 0-10.6 2.1-10.6 8.6c0 5.8 3.2 7.1 9.8 8.1c6.4 1 7.9 1.8 7.9 4.8c0 4-2.6 5.1-7.4 5.1c-3 0-9.7-1-9.7-1l-0.2 3.8c0 0 6.6 1.1 10.3 1.1c7.1 0 11.4-2.3 11.4-9.2c0-5.6-2.8-7.1-10.1-8.3c-6.2-1.1-7.6-1.9-7.6-4.6c0-3.5 2.8-4.5 6.4-4.5c3.7 0 10.2 1 10.2 1Zm31.4 25.5c-5.8 0-7.7-3.3-7.7-9.5h19.3l.3-3.4c0-9.6-4-13.7-11.8-13.7c-7.5 0-12.3 4.3-12.3 15.4c0 10 2.9 15.1 11.6 15.1c4.8 0 11.5-1 11.5-1l-0.1-3.4c0 0-6.4 .5-10.8 .5Zm-7.8-13.1c.1-7 2.9-9.8 7.9-9.8c5.1 0 7.4 2.6 7.4 9.8Zm23.3-12.9l8.3 29.3h8.8l8.2-29.3h-4.5l-7.1 25.5h-2.2l-6.8-25.5Zm41.2 26c-5.7 0-7.6-3.3-7.6-9.5h19.3l.2-3.4c0-9.6-3.9-13.7-11.7-13.7c-7.5 0-12.3 4.3-12.3 15.4c0 10 2.9 15.1 11.6 15.1c4.8 0 11.5-1 11.5-1l-0.2-3.4c0 0-6.4 .5-10.8 .5Zm-7.7-13.1c.1-7 2.9-9.8 7.9-9.8c5.1 0 7.4 2.6 7.4 9.8Zm26.5 16.4h4.4v-21.5c0 0 5.2-2.9 10.7-4v-4.5c-5.7 1.2-10.8 4.7-10.8 4.7v-4h-4.3Zm17.5-29.3l8.3 29.3h4.4l-3.8 13h4.4l12.2-42.3h-4.4l-7.4 25.5h-2l-7.3-25.5Zm41.2 0l8.4 29.3h4.3l-3.8 13h4.4l12.2-42.3h-4.4l-7.4 25.5h-1.9l-7.4-25.5Zm41.4 26c-5.7 0-7.7-3.3-7.7-9.5h19.4l.2-3.4c0-9.6-4-13.7-11.8-13.7c-7.4 0-12.2 4.3-12.2 15.4c0 10 2.8 15.1 11.6 15.1c4.7 0 11.4-1 11.4-1l-0.1-3.4c0 0-6.4 .5-10.8 .5Zm-7.7-13.1c0-7 2.8-9.8 7.8-9.8c5.2 0 7.4 2.6 7.4 9.8Zm47.2-4.1c0-6.3-2.9-9.4-9.5-9.4c-5 0-11.5 1.3-11.5 1.3l.2 3.3c0 0 7-0.7 11.1-0.7c3.5 0 5.3 1.4 5.3 5.5v2.6l-9.2 .8c-6.1 .6-9 3.1-9 8.7c0 5.9 2.9 9 8.2 9c5.3 0 10.6-2.4 10.6-2.4c1.8 1.8 3.9 2.4 7 2.4l.2-3.5c-1.9-0.2-3.3-0.9-3.4-2.6Zm-4.4 5.9v9.7c0 0-4.9 1.8-9.2 1.8c-3 0-4.5-2-4.5-5.4c0-3.2 1.4-4.9 5-5.3Zm13 14.6h4.4v-21.5c0 0 5.2-2.9 10.7-4v-4.5c-5.6 1.2-10.7 4.7-10.7 4.7v-4h-4.4Zm16.8 0h4.8v-6.7h-4.8Z" transform="translate(0,1.4) scale(.766,.766) translate(0,393.8)"/></g><g id="b" transform="translate(382.6,641.5) translate(0,0) translate(-151.1,-46.3)"><path fill="#b2b2b2" d="M2.4 0h4.4v-16.8h.5l4.2 15.8h4.4l4.3-15.8h.5v16.8h4.4v-21.8h-7.5l-3.9 15.9l-3.8-15.9h-7.5Zm39.3-11c0-3.8-1.7-5.4-5.8-5.4c-3.1 0-6.5 .9-6.5 .9l.1 3c0 0 3.9-0.2 6-0.2c1.3 0 1.9 .3 1.9 1.7v1l-3.4 .2c-3.5 .3-5.6 1.3-5.6 4.9c0 3.4 1.6 5.3 4.9 5.3c2.4 0 4.7-1.1 4.7-1.1c1.4 .9 2.5 1.1 4.6 1.1l.1-3.2c-0.8-0.2-0.9-0.6-1-1.6Zm-4.3 4v3.4c0 0-1.8 .5-3.1 .5c-1.2 0-1.6-0.8-1.6-1.9c0-1.1 .7-1.7 1.8-1.8Zm12.7 7v-12c0 0 1.4-0.5 2.9-0.5c2.1 0 2.4 1.5 2.4 4v8.5h4.3v-8.7c0-4.9-1.2-7.7-5.6-7.7c-1.9 0-4 1.3-4 1.3v-0.9h-4.3v16Zm25.7-11c0-3.8-1.7-5.4-5.9-5.4c-3 0-6.5 .9-6.5 .9l.2 3c0 0 3.9-0.2 6-0.2c1.3 0 1.9 .3 1.9 1.7v1l-3.5 .2c-3.5 .3-5.6 1.3-5.6 4.9c0 3.4 1.6 5.3 5 5.3c2.4 0 4.7-1.1 4.7-1.1c1.4 .9 2.4 1.1 4.6 1.1l.1-3.2c-0.9-0.2-1-0.6-1-1.6Zm-4.3 4v3.4c0 0-1.8 .5-3.2 .5c-1.1 0-1.5-0.8-1.5-1.9c0-1.1 .6-1.7 1.8-1.8Zm15.3 14.4c4.1 0 7.6-1.5 7.6-5.4c0-3.6-1.6-4.8-7-4.8c-2.7-0.1-3.1-0.3-3.1-1.1c0-0.4 .3-1.3 .3-1.3c.3 .1 1 .2 1.3 .2c4.4 0 6.8-1.2 6.8-5.7c0-0.9-0.5-1.7-0.7-2.1l2.4 .2v-3.5l-5.2 .2c0 0-1.8-0.4-3.2-0.4c-3.8 0-6.7 1.5-6.7 5.6c0 2.8 1 4 2.1 4.8c0 0-1.2 1.8-1.2 2.6c0 1 .5 1.9 1.2 2.4c-1.6 1.3-2.3 2.3-2.3 3.8c0 3.6 3 4.5 7.7 4.5Zm.2-6.5c2.4 0 3 .1 3 1.3c0 1.2-1.1 1.6-3.2 1.6c-2.4 0-3.5-0.4-3.5-1.3c0-0.8 .3-1.3 .8-1.9c0 0 2 .3 2.9 .3Zm-1-9.2c-1.7 0-2.5-0.9-2.5-2.4c0-1.5 .8-2.3 2.5-2.3c1.7 0 2.4 .8 2.4 2.3c0 1.5-0.7 2.4-2.4 2.4Zm11 8.3h4.2v-16h-4.2Zm0-18h4.2v-4.4h-4.2Zm12.5 18v-12c0 0 1.4-0.5 2.9-0.5c2.1 0 2.4 1.5 2.4 4v8.5h4.3v-8.7c0-4.9-1.2-7.7-5.6-7.7c-1.9 0-4 1.3-4 1.3v-0.9h-4.3v16Zm20.3 7.4c4.1 0 7.6-1.5 7.6-5.4c0-3.6-1.5-4.8-7-4.8c-2.7-0.1-3.1-0.3-3.1-1.1c0-0.4 .3-1.3 .3-1.3c.3 .1 1 .2 1.4 .2c4.3 0 6.7-1.2 6.7-5.7c0-0.9-0.4-1.7-0.7-2.1l2.4 .2v-3.5l-5.2 .2c0 0-1.8-0.4-3.2-0.4c-3.7 0-6.7 1.5-6.7 5.6c0 2.8 1.1 4 2.2 4.8c0 0-1.3 1.8-1.3 2.6c0 1 .5 1.9 1.2 2.4c-1.6 1.3-2.3 2.3-2.3 3.8c0 3.6 3 4.5 7.7 4.5Zm.3-6.5c2.3 0 3 .1 3 1.3c0 1.2-1.2 1.6-3.2 1.6c-2.5 0-3.6-0.4-3.6-1.3c0-0.8 .3-1.3 .9-1.9c0 0 2 .3 2.9 .3Zm-1.1-9.2c-1.7 0-2.4-0.9-2.4-2.4c0-1.5 .7-2.3 2.4-2.3c1.8 0 2.5 .8 2.5 2.3c0 1.5-0.7 2.4-2.5 2.4Zm25.8 8.3c7.8 0 9.2-3.9 9.2-11.3c0-7.2-1.7-10.5-9.2-10.5h-7.4v21.8Zm4.7-11.3c0 4.8-0.5 7.5-4.7 7.5h-3v-14.1h3c4.2 0 4.7 1.8 4.7 6.6Zm8 11.3h4.3v-16h-4.3Zm0-18h4.3v-4.4h-4.3Zm8.2 18h4.3v-10.7c0 0 2.3-0.8 5.1-1.4v-4.3c-2.4 .5-5.1 2.1-5.1 2.1v-1.7h-4.3Zm18.7-3.4c-2.3 0-3.2-0.9-3.3-2.8h9.5l.3-3c0-4.8-2.3-7.2-7-7.2c-4.7 0-7.1 2.9-7.1 8.6c0 5.8 2.1 8.2 6.9 8.2c3 0 6.7-0.9 6.7-0.9l-0.1-3.2c0 0-3.3 .3-5.9 .3Zm-3.3-6c0-2.5 .7-3.5 2.8-3.5c2 0 2.7 .9 2.7 3.5Zm18.8-7c-4.7 0-6.7 2.6-6.7 8.2c0 6.1 1.9 8.6 6.6 8.6c1.8 0 5.2-0.7 5.2-0.7l-0.1-3.4c0 0-2.5 .2-3.7 .2c-3.1 0-3.7-1.1-3.7-4.7c0-3.2 .6-4.3 3.7-4.3c1.2 0 3.7 .2 3.7 .2l.1-3.4c0 0-3.2-0.7-5.1-0.7Zm17.2 4v-3.6h-4v-4.4h-4.3v4.4h-1.8v3.6h1.8v6.7c0 4.6 1.2 6.1 5 6.1c1.2 0 3.3-0.5 3.3-0.5l-0.2-3.4c0 0-1.5 0-2.4 0c-1.4 0-1.4-0.7-1.4-2.3v-6.6Zm9.3-4c-5.6 0-7.4 3.4-7.4 8.4c0 4.9 1.8 8.4 7.4 8.4c5.5 0 7.3-3.5 7.3-8.4c0-5-1.8-8.4-7.3-8.4Zm0 13.1c-2.4 0-3-1.6-3-4.7c0-3.1 .6-4.7 3-4.7c2.3 0 3 1.6 3 4.7c0 3.1-0.7 4.7-3 4.7Zm10.5 3.3h4.3v-10.7c0 0 2.2-0.8 5.1-1.4v-4.3c-2.5 .5-5.2 2.1-5.2 2.1v-1.7h-4.2Z" transform="translate(-101.7,62.2) translate(123.6,22.4)"/><path fill="#b58859" d="M.6-28h9.5v28h3.5v-28h9.4v-3.1h-22.4Zm30.8 5.1c-7.1 0-9.6 3.7-9.6 11.4c0 8.2 2 11.9 9.6 11.9c7.6 0 9.6-3.7 9.6-11.9c0-7.7-2.5-11.4-9.6-11.4Zm0 20.4c-5.3 0-6.2-2.6-6.2-9c0-6.2 1.4-8.5 6.2-8.5c4.8 0 6.1 2.3 6.1 8.5c0 6.4-0.8 9-6.1 9Zm18.4 2.5v-18.2c0 0 2.8-1.7 6-1.7c4.1 0 4.7 2.1 4.7 8.3v11.6h3.4v-11.7c0-2.7-0.2-5.5-0.6-6.5c0 0 3-1.7 6.4-1.7c4 0 4.7 2.2 4.7 8.1v11.8h3.3v-11.8c0-8.2-1.4-11.1-7.6-11.1c-3.9 0-7.9 2.3-7.9 2.3c-1.2-1.6-2.9-2.3-5.9-2.3c-3.2 0-6.5 2-6.5 2v-1.5h-3.3v22.4Zm50-15.7c0-4.9-2.1-7.2-7.2-7.2c-3.9 0-8.8 1-8.8 1l.1 2.6c0 0 5.4-0.6 8.5-0.6c2.7 0 4 1.1 4 4.2v2l-7 .6c-4.6 .5-6.9 2.4-6.9 6.7c0 4.5 2.3 6.8 6.4 6.8c4 0 8-1.7 8-1.7c1.4 1.3 3 1.7 5.4 1.7l.1-2.6c-1.4-0.2-2.5-0.7-2.6-2Zm-3.4 4.5v7.4c0 0-3.7 1.4-7 1.4c-2.3 0-3.4-1.5-3.4-4.1c0-2.5 1.1-3.8 3.8-4Zm25-10.8c0 0-4.7-0.9-8.1-0.9c-4.1 0-8.1 1.6-8.1 6.6c0 4.5 2.5 5.4 7.5 6.2c4.9 .8 6.1 1.3 6.1 3.7c0 3-2 3.8-5.7 3.8c-2.3 0-7.4-0.7-7.4-0.7l-0.1 2.9c0 0 5 .8 7.9 .8c5.3 0 8.7-1.7 8.7-7c0-4.3-2.2-5.4-7.8-6.4c-4.7-0.8-5.8-1.4-5.8-3.5c0-2.6 2.1-3.4 4.9-3.4c2.9 0 7.8 .7 7.8 .7Zm-8.5-4.6h2.3l5.6-6.3h-3.4l-3.3 4l-3.4-4h-3.3Zm24.9 26.6h3.4v-27.4h.7l9 26.3h3.8l9.1-26.3h.6v27.4h3.4v-31.1h-6.2l-8.8 26.3l-8.8-26.3h-6.2Zm37.1 0h3.3v-22.4h-3.3Zm0-27.5h3.3v-3.9h-3.3Zm18.2 4.6c-6.7 0-9.3 3.2-9.3 11.3c0 8.8 2.1 12 9.2 12c2.1 0 6.2-0.6 6.2-0.6l-0.1-2.8c0 0-3.6 .4-5.3 .4c-5.6 0-6.6-2.4-6.6-9c0-6 1.4-8.3 6.6-8.3c1.7 0 5.3 .4 5.3 .4l.1-2.7c0 0-4-0.7-6.1-0.7Zm14.5 22.9v-18.5c0 0 3.2-1.4 6.4-1.4c4.1 0 4.8 2.2 4.8 8.1v11.8h3.3v-11.8c0-8-1.4-11.1-7.6-11.1c-3.3 0-6.9 1.7-6.9 1.7v-11h-3.3v32.2Zm36.6-15.7c0-4.9-2.2-7.2-7.2-7.2c-3.9 0-8.8 1-8.8 1l.1 2.6c0 0 5.4-0.6 8.5-0.6c2.7 0 4 1.1 4 4.2v2l-7 .6c-4.6 .5-6.9 2.4-6.9 6.7c0 4.5 2.3 6.8 6.3 6.8c4.1 0 8.1-1.7 8.1-1.7c1.4 1.3 3 1.7 5.4 1.7l.1-2.6c-1.4-0.2-2.5-0.7-2.6-2Zm-3.4 4.5v7.4c0 0-3.7 1.4-7 1.4c-2.3 0-3.4-1.5-3.4-4.1c0-2.5 1.1-3.8 3.8-4Zm-10.4-17.6l1 2.3l9.9-3.8l-1.2-2.9Zm20.7 28.8h3.4v-32.2h-3.4Zm18.4-2.5c-4.4 0-5.9-2.5-5.9-7.3h14.8l.2-2.6c0-7.3-3-10.5-9-10.5c-5.7 0-9.4 3.3-9.4 11.8c0 7.6 2.2 11.5 8.9 11.5c3.6 0 8.8-0.7 8.8-0.7l-0.1-2.6c0 0-4.9 .4-8.3 .4Zm-5.9-10c0-5.5 2.2-7.6 6-7.6c3.9 0 5.6 2 5.6 7.6Zm23.6 12.5v-10.3l3.6-0.1l6.7 10.4h3.8l-7.7-12.1l7.4-10.3h-3.9l-6.4 9l-3.5 .2v-19h-3.3v32.2Z" transform="translate(151.1,33.7) translate(-151.1,0)"/></g><path id="c" fill="#b58859" d="M19.2-41.5h-3.5l-3.7 12.8h4.6Zm-9 0h-3.5l-3.7 12.8h4.6Z" transform="translate(358.3,326.5) translate(0,0) scale(2.052,2.052) translate(0,0)"/><path id="d" fill="#b58859" d="M19.2-41.5h-3.5l-3.7 12.8h4.6Zm-9 0h-3.5l-3.7 12.8h4.6Z" transform="translate(360.2,326.5) translate(0,0) scale(2.052,2.052) translate(0,0)"/></g><script xlink:href="/jvg/keyshape.js"/><script><![CDATA[if(KeyshapeJS.version.indexOf('1.')!=0)throw Error('Expected KeyshapeJS v1.*.*');window.ks=document.ks=KeyshapeJS;(function(ks){
ks.animate("#a",[{p:'opacity',t:[200,1000],v:[0,1],e:[[1,.7,0,.3,1],[0]]}],
"#b",[{p:'mpath',t:[900,1900],v:['0%','100%'],e:[[1,.7,0,.3,1],[0]],mp:"M382.6,641.5L382.6,598.5"},{p:'opacity',t:[900,1900],v:[0,1],e:[[1,.7,0,.3,1],[0]]}],
"#c",[{p:'mpath',t:[0,600],v:['0%','100%'],e:[[1,.7,0,.3,1],[0]],mp:"M358.3,326.5L0,90.2"}],
"#d",[{p:'mpath',t:[0,600],v:['0%','100%'],e:[[1,.7,0,.3,1],[0]],mp:"M360.2,326.5L719.8,479.2"}],
{autoremove:false}).range(0,1900);
if(document.location.search.substr(1).split('&').indexOf('global=paused')>=0)ks.globalPause()})(KeyshapeJS);
]]></script></svg>