<svg xmlns="http://www.w3.org/2000/svg" clip-rule="evenodd" fill-rule="evenodd" stroke-linejoin="round" stroke-miterlimit="1.4" viewBox="0 0 1065 301"><defs><clipPath id="ClipPath-1"><rect width="487" height="301"/></clipPath></defs><g clip-path="url(#ClipPath-1)" transform="translate(0,0) scale(2.187,1)"><rect width="487" height="301" fill="none"/><g transform="translate(0,0) scale(.457,1)"><path d="M221.9 286.2l12.4-0.8c.2 2.1 .7 3.6 1.6 4.7c1.3 1.7 3.2 2.6 5.7 2.6c1.9 0 3.3-0.5 4.3-1.3c1-0.9 1.5-1.9 1.5-3.1c0-1.1-0.5-2.1-1.4-3c-0.9-0.9-3.1-1.7-6.6-2.5c-5.7-1.3-9.8-3-12.2-5.2c-2.5-2.1-3.7-4.8-3.7-8.2c0-2.1 .6-4.2 1.9-6.2c1.3-1.9 3.1-3.4 5.7-4.5c2.5-1.1 6-1.7 10.3-1.7c5.4 0 9.4 1 12.3 3c2.8 2.1 4.5 5.3 5 9.7l-12.2 .7c-0.3-1.9-1.1-3.3-2.1-4.2c-1.1-0.9-2.5-1.3-4.4-1.3c-1.5 0-2.6 .3-3.4 1c-0.8 .7-1.1 1.4-1.1 2.3c0 .7 .3 1.3 .9 1.9c.7 .6 2.1 1.1 4.4 1.5c5.7 1.3 9.7 2.5 12.2 3.8c2.4 1.3 4.2 2.9 5.4 4.7c1.1 1.9 1.6 4 1.6 6.3c0 2.7-0.7 5.3-2.3 7.6c-1.4 2.3-3.6 4-6.2 5.2c-2.7 1.2-6 1.8-10.1 1.8c-7.1 0-12.1-1.3-14.8-4.2c-2.7-2.7-4.3-6.3-4.7-10.6Zm-176.1 14.1h-13.6l-2.2-7h-14.7l-2 7h-13.3l15.8-42.5h14.2l15.8 42.5Zm63.6 0h-13.3l15.8-42.5h14.2l15.7 42.2v-42.3h21.6c4 0 7.1 .4 9.2 1.1c2.2 .7 3.9 2 5.2 3.9c1.2 1.8 1.9 4.2 1.9 6.9c0 2.4-0.5 4.4-1.5 6.1c-0.9 1.8-2.3 3.1-4 4.2c-1.1 .7-2.7 1.2-4.6 1.6c1.5 .5 2.7 1.1 3.3 1.6c.5 .4 1.2 1.1 2.1 2.2c.9 1.2 1.5 2 1.8 2.7l6.2 12.1l.1-42.4h19.2c3.8 0 6.9 .5 9.3 1.6c2.3 1 4.2 2.5 5.8 4.5c1.5 2 2.6 4.2 3.2 6.8c.7 2.6 1.1 5.3 1.1 8.2c0 4.6-0.5 8.1-1.5 10.6c-1.1 2.5-2.5 4.6-4.3 6.3c-1.8 1.7-3.8 2.8-5.9 3.4c-2.8 .7-5.4 1.2-7.7 1.2h-19.2h-14.6l-7-13c-0.8-1.6-1.6-2.7-2.3-3.2c-0.9-0.7-2-1-3.2-1h-1.1v17.2h-26.6l-2.2-7h-14.7l-2 7Zm-45.7 0h-12.8l-9.3-42.6h12.4l4.4 23.8l6.5-23.8h12.2l6.6 23.8l4.4-23.8h12.3l-9.3 42.6h-12.7l-7.4-26.9l-7.3 26.9Zm135.5-9.7c2.7 0 4.7-0.3 5.8-0.9c1.2-0.6 2-1.7 2.7-3.2c.7-1.6 1-4 1-7.4c0-4.5-0.7-7.6-2.2-9.3c-1.5-1.7-3.9-2.5-7.2-2.5l-3.2 .1v23.2h3.1Zm-171.8-6.5l-4.7-15.4l-4.6 15.4h9.3Zm96.1 0l-4.7-15.4l-4.6 15.4h9.3Zm37-17.8h-5.7v8.7h5.5c.6 0 1.8-0.2 3.4-0.6c.9-0.2 1.6-0.6 2.1-1.3c.5-0.8 .8-1.6 .8-2.5c0-1.4-0.4-2.4-1.3-3.2c-0.8-0.7-2.5-1.1-4.8-1.1Z" fill="#f8a531"/><path d="M427.8 16.9c0-9.3-7.6-16.9-16.9-16.9c-9.3 0-16.8 7.6-16.8 16.9c0 9.3 7.5 16.9 16.8 16.9c9.4 0 16.9-7.6 16.9-16.9Z" fill="#f8a531"/><path d="M472.1 42.8h9.4v19.5h-9.1v26.3c0 5.5-0.6 9.8 6.4 9.8c2.8 0 5.6-0.6 8.5-1.3v21.4l-17.5 2.2c-7.9 1-15.5-1.5-21.4-7.7c-5.8-6.3-5.6-13.7-5.6-21.9v-28.8h-9.7v-19.4h11.1v-25.3h27.9v25.2Zm-219.7 47.8c-2.7 19.7-16.7 30.2-36.1 30.2c-11.1 0-20-2.6-28-10.5c-7.7-7.8-11.4-18.1-11.4-29c0-23 15.8-39.9 39.3-39.9c18.8 0 33.7 11.1 36 30.2l-26.1 2.2l-0.1-0.7c-1.1-5.2-2.3-11.2-8.9-11.2c-9.4 0-9.4 12.4-9.4 19.1c0 7.2 .2 18.8 9.9 18.8c6.4 0 8.8-5.8 9.5-11.3l25.3 2.1Zm-132.6-3.6c-0.4 8.2 2.5 14.2 11.5 14.2c6.7 0 10.4-2.6 11.6-9.2l27.9 1.7c-4.6 18.5-21 27.1-39 27.1c-11.2 0-22.1-2.5-30.8-10.1c-8.2-7.3-12.5-17.8-12.5-28.7c0-10.3 4-21.5 11.1-28.8c7.8-8.1 19.4-11.8 30.4-11.8c25.3 0 40.8 16.4 40.8 41.5v4.1h-51Zm240.9 19.7c-3.2 9.8-13.3 14-23.2 14c-6.2 0-12.3-1.5-17-5.8c-5.4-5.4-6-12.1-6-19.3v-52.7h29.6v46.2c0 5-0.2 10.2 6.5 10.2c3.1 0 5.9-1.7 7.2-4.4c1.3-2.5 1.5-5.2 1.5-8.1v-43.9h29.6v76.4l-27.9-0.1v-12.5h-0.3Zm66 12.6h-29.5v-76.4h29.5v76.4Zm-139 0h-29.5v-76.4h25.2v15.7h.2c2.6-10.7 8-18.1 19.9-17.2l4 .3v26.7c-1.8-0.4-3.7-0.7-5.7-0.7c-4.7 0-9.7 .9-12 5.3c-2.1 3.7-2.1 8.6-2.1 13.1v33.2Zm-255.7-0.1h-31.8v-102.4h52c9 0 18.8 1.2 26.4 6.3c8.5 5.3 12.6 14.5 12.6 24.5c0 13.4-6 21.5-18.1 27l18.5 44.7l-34.9-0.1l-14.9-39.1h-9.8v39.1Zm109-47.1c0-7.6-2.4-13.2-10.7-13.2c-7.8 0-10.9 6.1-10.6 13.2h21.3Zm-96.4-33.5h-12.6v19.6l11.4-0.1c6.9 0 15.1-1 15.1-9.8c0-3.5-1.8-6.7-4.9-8.4c-2.7-1.3-6-1.3-9-1.3Z"/><path d="M142.7 239.5c-0.7-3.5-1-7-1-10.6c-6 8.8-14.5 12.1-25 12.1c-14.2 0-26.5-7.8-26.5-23c0-12.1 9.4-20.2 19.9-23.5c9.8-3 20-4.1 30-4.7v-0.6c0-6.9-1.8-9.6-8.9-9.6c-5.8 0-10.7 2.1-11.6 8.5l-27.2-2.5c4.5-19 22.5-23.9 39.7-23.9c8.9 0 20.4 1.2 27.9 6.6c9.9 7 8.8 16.9 8.8 27.8v26.8c0 5.6 .1 11.3 2.4 16.7l-28.5-0.1Zm63.9 0h-29.5v-76.4h27.8v10.8h.3c3.6-8.6 12.4-12.3 21.6-12.3c7.2 0 15.4 2.1 19.9 7.9c4.8 6.3 4.8 15 4.8 22.9v47.1h-29.5v-46.4c0-4.6 0-11-6.4-11c-8.3 0-9 7-9 13.3v44.1Zm81.9 0h-29.5v-102.6h29.5v55.3l6.4-8.4l17.9-20.7h25.6l-22.9 26.4l25.6 50h-30.9l-14.3-30.6l-7.4 9.5v21.1Zm-256.6 0h-31.8v-102.6h52.1c8.9 0 18.8 1.2 26.4 6.3c8.5 5.4 12.5 14.6 12.5 24.5c0 13.5-6 21.6-18 27.1l18.4 44.7h-34.9l-14.9-39.2h-9.8v39.2Zm108.2-35.7c-7.1 .7-19 3-19 12.3c0 4.9 3.1 7 7.8 7c11.1 0 11.3-9.4 11.3-17.8l-0.1-1.5Zm-95.5-45h-12.7v19.6h11.5c6.8 0 15.1-1 15.1-9.9c0-3.4-1.9-6.7-5-8.3c-2.6-1.4-6-1.4-8.9-1.4Z"/></g><g transform="translate(241.7,77.9) scale(1.62,3.542)"><g transform="translate(3.3,-23.8) scale(1.77,1.77)"><path d="M17.3 25.3c0 .7-0.1 1.3-0.3 1.9c-0.3 .6-0.6 1.1-1.1 1.5c-0.4 .4-1 .6-1.8 .6c-1 0-1.8-0.4-2.4-1.1c-0.6-0.8-0.8-1.7-0.8-2.9c0-1.3 .2-2.2 .8-3c.5-0.7 1.3-1.1 2.4-1.1c.7 0 1.3 .2 1.7 .6c.5 .4 .9 .9 1.1 1.5c.2 .6 .4 1.3 .4 2Zm-8.9 11.6h2.5v-7.4c.5 .7 1.1 1.1 1.8 1.4c.7 .3 1.4 .4 2.1 .4c1.2 0 2.1-0.3 2.8-0.8c.8-0.6 1.3-1.3 1.7-2.2c.3-0.9 .5-1.9 .5-3c0-1.1-0.2-2.1-0.6-3c-0.4-1-1-1.7-1.8-2.2c-0.8-0.6-1.8-0.9-3-0.9c-0.7 0-1.4 .2-2 .5c-0.7 .3-1.2 .7-1.5 1.4l-0.1-1.6h-2.4v17.4Zm12.2-5.9h2.6v-5.4c0-1.3 .3-2.3 .9-3c.6-0.6 1.3-1 2.2-1c.2 0 .4 0 .5 .1h.6v-2.4l-0.4-0.1c-0.1 0-0.3 0-0.6 0c-0.8 0-1.5 .3-2.1 .8c-0.7 .5-1.1 1.1-1.2 1.8l-0.1-2.3h-2.4v11.5Zm12.1-1.7c-0.7 0-1.3-0.2-1.8-0.6c-0.5-0.4-0.9-0.9-1.1-1.5c-0.2-0.6-0.3-1.3-0.3-1.9c0-0.7 .1-1.4 .3-2c.2-0.6 .6-1.1 1.1-1.5c.5-0.4 1.1-0.6 1.8-0.6c.8 0 1.4 .2 1.9 .6c.5 .4 .8 .9 1.1 1.5c.2 .6 .3 1.3 .3 2c0 .6-0.1 1.3-0.3 1.9c-0.3 .6-0.6 1.1-1.1 1.5c-0.5 .4-1.1 .6-1.9 .6Zm0 2c1.9 0 3.3-0.6 4.3-1.7c1-1.1 1.5-2.5 1.5-4.3c0-1.8-0.5-3.3-1.5-4.4c-1-1.1-2.4-1.6-4.3-1.7c-1.8 .1-3.2 .6-4.2 1.7c-1 1.1-1.5 2.6-1.6 4.4c.1 1.8 .6 3.2 1.6 4.3c1 1.1 2.4 1.7 4.2 1.7Zm5.4-9.9h1.9v9.6h2.5v-9.6h2.1v-1.9h-2.1v-1.1c0-0.5 .1-0.8 .4-1c.2-0.2 .5-0.3 .8-0.3c.3 0 .5 .1 .7 .1c.2 0 .4 0 .5 .1v-2c-0.2-0.1-0.4-0.1-0.7-0.1c-0.3 0-0.7-0.1-1.1-0.1c-0.5 0-1 .1-1.5 .3c-0.5 .2-0.9 .5-1.2 1c-0.3 .5-0.4 1.2-0.4 2.2v.9h-1.9c0 0 0 1.9 0 1.9Zm17.1 4.5c.2-1.1 0-2.2-0.4-3.2c-0.4-1.1-1-1.9-1.9-2.5c-0.8-0.6-1.9-1-3.1-1c-1.1 0-2.1 .3-3 .9c-0.8 .5-1.4 1.2-1.9 2.2c-0.4 .9-0.6 1.9-0.6 3c0 1.8 .4 3.2 1.4 4.3c1 1.1 2.4 1.7 4.2 1.7c1.3 0 2.4-0.3 3.3-1c1-0.6 1.6-1.6 1.9-2.9h-2.4c-0.2 .7-0.6 1.1-1 1.5c-0.5 .3-1.1 .4-1.8 .4c-1.1 0-1.9-0.3-2.4-1c-0.5-0.6-0.7-1.4-0.7-2.4h8.4Zm-8.4-1.6c0-0.9 .3-1.6 .9-2.2c.5-0.6 1.2-0.9 2.1-0.9c.9 0 1.6 .4 2.1 .9c.5 .6 .7 1.3 .8 2.2h-5.9Zm10.4 6.1c-0.9-0.7-1.4-1.7-1.5-3h2.5c.1 .7 .4 1.2 .9 1.5c.5 .3 1 .4 1.7 .4c.4 0 .7 0 1.1-0.1c.4 0 .8-0.2 1.1-0.4c.3-0.2 .4-0.5 .4-1c0-0.4-0.2-0.7-0.6-1c-0.4-0.2-0.8-0.4-1.4-0.5c-0.5-0.1-1.1-0.3-1.8-0.4c-0.9-0.2-1.8-0.5-2.5-1c-0.7-0.4-1.1-1.3-1.2-2.4c.1-0.8 .3-1.5 .8-2c.5-0.4 1.1-0.8 1.9-1c.7-0.2 1.4-0.3 2.1-0.3c1.3 0 2.3 .3 3.2 .8c.9 .6 1.5 1.5 1.6 2.8h-2.6c-0.1-0.6-0.4-1-0.8-1.3c-0.5-0.2-1-0.3-1.5-0.3c-0.3 0-0.6 0-0.9 .1c-0.3 .1-0.6 .2-0.8 .3c-0.3 .2-0.4 .5-0.4 .8c0 .4 .2 .7 .5 .9c.4 .3 .8 .4 1.4 .6c.6 .1 1.2 .2 1.8 .3c.6 .2 1.2 .4 1.8 .6c.6 .2 1 .6 1.4 1c.3 .5 .5 1.1 .5 1.8c0 .9-0.3 1.6-0.8 2.2c-0.5 .5-1.1 .9-1.9 1.2c-0.8 .2-1.6 .3-2.4 .3c-1.5 0-2.7-0.3-3.6-0.9Zm9.5-12.7h2.5v-2.4h-2.5v2.4Zm0 13.3h2.5v-11.5h-2.5v11.5Zm11.1-3.8v-1.9c-0.4 .2-0.9 .4-1.4 .4c-0.6 .1-1.1 .2-1.7 .3c-0.6 0-1 .2-1.4 .5c-0.4 .3-0.6 .7-0.7 1.4c.1 .3 .2 .6 .5 .9c.2 .2 .5 .3 .9 .4c.3 .1 .7 .1 1 .1c.4 0 .8 0 1.2-0.2c.5-0.1 .8-0.3 1.1-0.7c.3-0.3 .5-0.7 .5-1.2Zm2.6-4.6v5.9c0 .3 0 .5 .1 .6c.1 .2 .2 .2 .5 .2h.2c.1 0 .3 0 .4 0v1.7c-0.2 .1-0.5 .2-0.8 .2c-0.3 .1-0.6 .1-0.8 .1c-0.5 0-1-0.1-1.3-0.3c-0.3-0.2-0.6-0.5-0.7-1.1c-0.5 .5-1.1 .9-1.8 1.1c-0.8 .2-1.5 .3-2.2 .3c-1 0-1.9-0.2-2.7-0.8c-0.8-0.6-1.2-1.4-1.2-2.5c0-1 .2-1.7 .7-2.2c.4-0.5 1-0.8 1.6-1c.7-0.2 1.4-0.3 2.1-0.4c.7-0.1 1.2-0.2 1.7-0.2c.6-0.1 1-0.2 1.3-0.4c.3-0.2 .5-0.5 .5-1c-0.1-0.7-0.3-1.1-0.8-1.3c-0.5-0.2-1-0.3-1.6-0.3c-0.7 0-1.3 .2-1.8 .5c-0.3 .2-0.6 .6-0.7 1.1h-2.5c.1-0.9 .3-1.6 .8-2.1c.5-0.5 1.1-0.9 1.9-1.1c.8-0.3 1.6-0.4 2.5-0.4c.7 0 1.5 .1 2.2 .3c.6 .3 1.2 .6 1.7 1.1c.4 .5 .6 1.1 .7 2Z" fill="#231f20" fill-rule="nonzero"/></g><g transform="translate(3.3,-23.8) scale(1.77,1.77)"><path d="M25.4 15.3c1.2-3.8 3.6-7.2 7-9.8c8.6-6.7 20.9-5.6 28.6 1.6l.9-2.8l1.5 10.5c-3.6-6.7-10.7-11.3-18.9-11.3c-8.3 0-15.6 4.8-19.1 11.8Z" fill="#fbae17" fill-rule="nonzero"/></g><g transform="translate(3.3,-23.8) scale(1.77,1.77)"><path d="M63.9 34.7c-1.3 3.8-3.7 7.2-7 9.8c-8.7 6.7-21 5.6-28.7-1.6l-0.9 2.8l-1.5-10.5c3.6 6.7 10.7 11.3 18.9 11.3c8.4 0 15.6-4.8 19.2-11.8Z" fill="#ec1c24" fill-rule="nonzero"/></g></g></g></svg>